<svg display="none" width="0" height="0" version="1.1" xmlns="http://www.w3.org/2000/svg" xmlns:xlink="http://www.w3.org/1999/xlink">
<defs>
<symbol id="icon-time" viewBox="0 0 1024 1024">
	<title>time</title>
	<path class="path1" d="M512 112c-229.792 0-416 186.24-416 416s186.208 416 416 416c229.728 0 416-186.24 416-416s-186.24-416-416-416zM508.64 864.864c-185.568 0-336-150.432-336-336s150.432-336 336-336c185.536 0 336 150.432 336 336s-150.464 336-336 336zM605.76 548.192h-95.36v-161.024c0-17.472-14.176-31.68-31.648-31.68-17.504 0-31.68 14.176-31.68 31.68v192.672c0 17.504 14.176 31.648 31.68 31.648h127.008c17.504 0 31.68-14.144 31.68-31.648 0-17.472-14.176-31.648-31.68-31.648z"></path>
</symbol>
<symbol id="icon-phone" viewBox="0 0 1024 1024">
	<title>phone</title>
	<path class="path1" d="M490.592 632.32c-0.832-0.576-97.088-162.4-97.408-164.48-19.904-43.488-35.968-87.968-2.496-107.712l-138.912-234.24c-36 26.912-137.824 172.96 52.768 503.936 200.768 348.8 391.84 334.304 430.144 310.688l-135.36-228.64c-32 18.816-58.944-12.192-108.736-79.552zM827.584 851.744l0.032-0.192c0 0-105.696-178.112-105.76-178.176-8.384-14.112-26.4-18.56-40.448-10.368l-64.768 38.304 135.744 229.312c0 0 64.768-38.112 64.736-38.24h0.128c14.88-8.832 18.304-27.072 10.336-40.64zM473.152 311.552v-0.128c14.88-8.8 18.368-27.040 10.4-40.48l0.064-0.192c0 0-108.736-183.328-108.8-183.36-8.352-14.176-26.432-18.56-40.416-10.368l-64.768 38.304 138.752 234.368c0 0 64.736-38.048 64.768-38.144z"></path>
</symbol>
<symbol id="icon-envelope" viewBox="0 0 1024 1024">
	<title>envelope</title>
	<path class="path1" d="M512.48 603.552l-130.304-106.976-283.584 334.816h828.032l-283.616-338.144-130.528 110.304zM957.632 192.608h-890.080l445.056 374.336 445.024-374.336zM662.56 476.384l297.312 354.688v-606.464l-297.312 251.776zM64.128 224.608v606.464l297.312-354.688-297.312-251.776z"></path>
</symbol>
<symbol id="icon-home" viewBox="0 0 1024 1024">
	<title>home</title>
	<path class="path1" d="M1024 590.444l-512-397.426-512 397.428v-162.038l512-397.426 512 397.428zM896 576v384h-256v-256h-256v256h-256v-384l384-288z"></path>
</symbol>
</defs>
</svg>
