<svg xmlns="http://www.w3.org/2000/svg" width="20" height="20" viewBox="0 0 32 32"><path fill="#3771c8" d="M15.33 19.76c-.025-.018-3.033-5.075-3.043-5.14-.622-1.36-1.124-2.75-.078-3.366l-4.342-7.32c-1.125.84-4.307 5.405 1.65 15.748 6.273 10.9 12.244 10.447 13.44 9.71l-4.23-7.146c-1 .588-1.84-.38-3.397-2.486zm10.532 6.857v-.006l-3.304-5.567c-.262-.44-.825-.58-1.264-.324l-2.024 1.196 4.242 7.166s2.024-1.19 2.023-1.195h.004c.464-.276.57-.846.322-1.27zM14.786 9.737V9.73c.465-.275.574-.845.325-1.265l.003-.006-3.4-5.73c-.26-.442-.826-.58-1.263-.323L8.426 3.604l4.336 7.324s2.023-1.19 2.024-1.192z"/></svg>