<?xml version="1.0" standalone="no"?>
<!DOCTYPE svg PUBLIC "-//W3C//DTD SVG 1.1//EN" "http://www.w3.org/Graphics/SVG/1.1/DTD/svg11.dtd" >
<svg>
<metadata>
Created by FontForge 20090914 at Mon Sep  9 17:00:08 2013
 By www-data
Copyright (c) Dustin Norlander, 2002. This program is free software; you can redistribute it and/or modify it under the terms of the GNU General Public License as published by the Free Software Foundation; either version 2 of the License, or any later 
</metadata>
<defs>
<font id="Dustismo" horiz-adv-x="2048" >
  <font-face 
    font-family="Dustismo"
    font-weight="400"
    font-stretch="normal"
    units-per-em="2048"
    panose-1="2 0 5 0 0 0 0 2 0 4"
    ascent="1638"
    descent="-410"
    x-height="957"
    cap-height="1355"
    bbox="-168.999 -402 1783 1764"
    underline-thickness="50"
    underline-position="-75"
    unicode-range="U+0020-U+F002"
  />
<missing-glyph horiz-adv-x="1024" 
d="M128 0v1727h768v-1727h-768zM256 128h512v1471h-512v-1471z" />
    <glyph glyph-name=".notdef" horiz-adv-x="1024" 
d="M128 0v1727h768v-1727h-768zM256 128h512v1471h-512v-1471z" />
    <glyph glyph-name="space" unicode=" " horiz-adv-x="724" 
 />
    <glyph glyph-name="exclam" unicode="!" horiz-adv-x="375" 
d="M120 302v1049h130v-1049h-130zM108 70c0 19.333 6.83301 35.833 20.5 49.5s30.167 20.5 49.5 20.5s36 -6.83301 50 -20.5s21 -30.167 21 -49.5s-7 -35.833 -21 -49.5s-30.667 -20.5 -50 -20.5s-35.833 6.83301 -49.5 20.5s-20.5 30.167 -20.5 49.5z" />
    <glyph glyph-name="quotedbl" unicode="&#x22;" horiz-adv-x="657" 
d="M541 898h-130v457h130v-457zM235 898h-130v457h130v-457z" />
    <glyph glyph-name="numbersign" unicode="#" horiz-adv-x="1132" 
d="M679 591h-213l-56 -207h216zM159 725h200l61 232h138l-58 -232h214l60 232h136l-59 -232h181l-33 -134h-183l-53 -207h182l-35 -134h-182l-65 -250h-139l67 250h-215l-65 -250h-137l65 250h-206l39 134h200l54 207h-203z" />
    <glyph glyph-name="dollar" unicode="$" horiz-adv-x="875" 
d="M475 327c50.667 0 93.333 9.33203 128 27.999c44.667 23.333 67 58 67 104c0 52.667 -20 93.334 -60 122.001c-35.333 25.333 -80.333 38 -135 38v-292zM340.999 1018c-50 0 -91 -12 -123 -36c-36.667 -27.333 -55 -65 -55 -113c0 -88.667 59.333 -133 178 -133v282z
M474.999 1018l-0.000976562 -282.003c87.333 0 161 -24 221 -72c64.667 -51.333 97 -119.666 97 -204.999c0 -87.333 -32 -154.666 -96 -201.999c-57.333 -42.667 -131.333 -64 -222 -64v-193h-134v193c-167.333 0 -270 70 -308 210h141
c24.667 -50.667 80.334 -76 167.001 -76v292c-86.667 0 -157.667 19.667 -213 59c-63.333 44 -95 107.667 -95 191c0 88.667 29.667 158.334 89 209.001c55.333 46 128.333 70.667 219 74v203h134v-203c176.667 0 282.667 -71.333 318 -214h-141
c-31.333 53.333 -90.333 80 -177 80z" />
    <glyph glyph-name="percent" unicode="%" horiz-adv-x="1281" 
d="M873 1355l-398 -1355h-141l401 1355h138zM899 524c73.333 0 136.167 -25.333 188.5 -76s78.5 -112.667 78.5 -186c0 -74 -26 -136.167 -78 -186.5s-115 -75.5 -189 -75.5c-75.333 -0 -138.5 24.833 -189.5 74.5s-76.5 112.167 -76.5 187.5c0 74.667 25.667 137 77 187
s114.333 75 189 75zM899.001 391c-36 0 -67 -12.5 -93 -37.5s-39 -55.5 -39 -91.5s13 -66.333 39 -91s57 -37 93 -37s67.167 12.333 93.5 37s39.5 55 39.5 91s-13.167 66.5 -39.5 91.5s-57.5 37.5 -93.5 37.5zM308.001 1355c74.667 0 138.167 -24.999 190.5 -74.999
s78.5 -112 78.5 -186c0 -74.667 -26.167 -137 -78.5 -187s-115.833 -75 -190.5 -75c-74 0 -137.167 25.167 -189.5 75.5s-78.5 112.5 -78.5 186.5c0 73.333 26.333 135.166 79 185.499s115.667 75.5 189 75.5zM308.001 1222c-38 0 -69.833 -11.833 -95.5 -35.5
s-38.5 -54.5 -38.5 -92.5c0 -37.333 13 -68.333 39 -93s57.667 -37 95 -37c36.667 0 68.667 12.667 96 38s41 56 41 92c0 35.333 -13.833 65.5 -41.5 90.5s-59.5 37.5 -95.5 37.5z" />
    <glyph glyph-name="ampersand" unicode="&#x26;" horiz-adv-x="982" 
d="M274 822c0 -58.667 37.667 -122.667 113 -192c104 40.667 156 98.667 156 174c0 89.333 -44 134 -132 134c-91.333 0 -137 -38.667 -137 -116zM698 257c33.333 33.333 48.332 68.332 44.999 104.999h138c0 -68 -34.333 -139.333 -103 -214l61 -79l-111 -73l-54 69
c-71.333 -42.667 -168.666 -64 -291.999 -64c-88 0 -164 32.833 -228 98.5s-96 142.5 -96 230.5c0 108.667 65 194.667 195 258l-81 118c-22 39.333 -33 84 -33 134c0 68.667 28.333 124.334 85 167.001c51.333 39.333 112 59 182 59c76.667 0 138.167 -24.833 184.5 -74.5
s69.5 -113.167 69.5 -190.5c0 -68 -18 -123 -54 -165c-26 -30.667 -73.667 -65 -143 -103zM328.999 495.999c-91.333 -36.667 -137 -92.667 -137 -168c0 -60 18.667 -108 56 -144s86 -54 146 -54c88.667 0 156.667 12.333 204 37z" />
    <glyph glyph-name="quotesingle" unicode="'" horiz-adv-x="360" 
d="M245 898h-130v457h130v-457z" />
    <glyph glyph-name="parenleft" unicode="(" horiz-adv-x="485" 
d="M74 478c0 184.667 19.333 352 58 502c57.333 221.333 148.333 346.333 273 375v-109c-131.333 -54.667 -197 -310.667 -197 -768s65.667 -713.333 197 -768v-109c-124.667 28.667 -215.667 153.667 -273 375c-38.667 150 -58 317.333 -58 502z" />
    <glyph glyph-name="parenright" unicode=")" horiz-adv-x="455" 
d="M387 476c0 -184.667 -19.333 -352 -58 -502c-57.333 -221.333 -148.333 -346.333 -273 -375v109c131.333 54.667 197 310.667 197 768s-65.667 713.333 -197 768v109c124.667 -28.667 215.667 -153.667 273 -375c38.667 -150 58 -317.333 58 -502z" />
    <glyph glyph-name="asterisk" unicode="*" horiz-adv-x="778" 
d="M474 533l97 -167l-103 -60l-96 166l-96 -167l-103 60l97 168h-206v119h204l-107 186l103 59l108 -188l108 187l103 -59l-107 -185h202v-119h-204z" />
    <glyph glyph-name="plus" unicode="+" horiz-adv-x="794" 
d="M41 589h282v299h131v-299h278v-130h-278v-292h-131v292h-282v130z" />
    <glyph glyph-name="comma" unicode="," horiz-adv-x="360" 
d="M206 214c29.333 0 55.168 -10.832 77.501 -32.499s33.5 -47.167 33.5 -76.5c0 -70 -21 -133.333 -63 -190c-45.333 -60.667 -102 -94 -170 -100l-15 58c80.667 31.333 122.667 69.666 126 114.999c-31.333 2 -57.333 13.5 -78 34.5s-31 47.167 -31 78.5
c0 33.333 11.667 60.5 35 81.5s51.666 31.5 84.999 31.5z" />
    <glyph glyph-name="hyphen" unicode="-" horiz-adv-x="709" 
d="M72 660h523v-130h-523v130z" />
    <glyph glyph-name="hyphen" unicode="&#x2010;" horiz-adv-x="709" 
d="M72 660h523v-130h-523v130z" />
    <glyph glyph-name="period" unicode="." horiz-adv-x="390" 
d="M72 109c0 31.333 10.5 57.666 31.5 78.999s47.167 32 78.5 32s57.333 -10.667 78 -32s31 -47.666 31 -78.999c0 -30.667 -10.5 -56.5 -31.5 -77.5s-46.833 -31.5 -77.5 -31.5s-56.667 10.5 -78 31.5s-32 46.833 -32 77.5z" />
    <glyph glyph-name="slash" unicode="/" horiz-adv-x="601" 
d="M554 1355l-399 -1355h-141l403 1355h137z" />
    <glyph glyph-name="zero" unicode="0" horiz-adv-x="989" 
d="M874 606v-254.998c0 -102.667 -42.667 -191.334 -128 -266.001c-82.667 -71.333 -176 -107 -280 -107c-105.333 0 -198.666 35.667 -279.999 107c-84.667 74 -127 162.667 -127 266v255c0 103.333 42.333 192 127 266c81.333 71.333 174.666 107 279.999 107
c104 0 197.333 -35.667 280 -107c85.333 -74.667 128 -163.334 128 -266.001zM744 604.002c0 70 -29.668 129 -89.001 177c-55.333 45.333 -118.666 68 -189.999 68c-70 0 -132.333 -21.333 -187 -64c-59.333 -46 -89 -103 -89 -171v-274c0 -66 30 -122 90 -168
c56 -42.667 118 -64 186 -64c70 0 133 22.333 189 67c60 48 90 106 90 174v255z" />
    <glyph glyph-name="one" unicode="1" horiz-adv-x="416" 
d="M53 760v98c81.333 0 124 33 128 99h90v-827h70v-130h-288v130h88v630h-88z" />
    <glyph glyph-name="two" unicode="2" horiz-adv-x="1040" 
d="M902 0h-834.001v130c0 167.333 83.333 269 250 305c132.667 28 223 50.333 271 67c129.333 44.667 194 97.334 194 158.001c0 14.667 -5.66699 34.667 -17 60c-37.333 86 -127.666 129 -270.999 129c-66 0 -128.667 -15.333 -188 -46
c-70.667 -37.333 -106 -86.333 -106 -147h-132c0 101.333 47.333 182.333 142 243c82 53.333 176.333 80 283 80c104.667 0 197.667 -26.333 279 -79c94 -60.667 141 -140.667 141 -240c0 -108.667 -70 -192.334 -210 -251.001c-53.333 -22 -170.333 -52 -351 -90
c-101.333 -22 -152 -85 -152 -189h701v-130z" />
    <glyph glyph-name="three" unicode="3" horiz-adv-x="1031" 
d="M266 789l-109 74.999c78.667 76.667 175 115 289 115c109.333 0 200 -33 272 -99c74.667 -68 112 -156 112 -264c0 -57.333 -16 -109.666 -48 -156.999c-34 -49.333 -78.333 -80.333 -133 -93c82.667 -28 147.834 -74.333 195.501 -139s71.5 -140.334 71.5 -227.001
c0 -116 -44.667 -210.667 -134 -284c-84 -68.667 -185.333 -103 -304 -103s-220 34.333 -304 103c-89.333 73.333 -134 168 -134 284h132c0 -56 21.667 -112.833 65 -170.5s123.666 -86.5 240.999 -86.5c83.333 0 154 22.667 212 68c64 50 96 115.333 96 196
c0 94.667 -38.333 168.334 -115 221.001c-66.667 46 -149 69 -247 69v127c73.333 0.666992 134 14.334 182 41.001c61.333 33.333 92 83.666 92 150.999c0 69.333 -24.667 126 -74 170c-47.333 42 -106.333 63 -177 63c-70 0 -129 -20 -177 -60h-4z" />
    <glyph glyph-name="four" unicode="4" horiz-adv-x="903" 
d="M572 130v673l-418 -673h418zM702 957v-827h100v-130h-100v-399h-130v399h-561v130l504 827h187z" />
    <glyph glyph-name="five" unicode="5" horiz-adv-x="992" 
d="M420 380c-98.667 0 -178.333 -30.332 -239 -90.999h-107v668h673v-130h-543v-366c69.333 32.667 141.333 49 216 49c126.667 0 236.334 -38 329.001 -114c98.667 -81.333 148 -184 148 -308c0 -143.333 -44.333 -260.333 -133 -351s-204.334 -136 -347.001 -136
c-131.333 0 -247 48.333 -347 145v204c36 -64 84 -115.667 144 -155c64 -42.667 131 -64 201 -64c101.333 0 185.333 34 252 102s100 153 100 255c0 93.333 -35.333 166.666 -106 219.999c-64 48 -144.333 72 -241 72z" />
    <glyph glyph-name="six" unicode="6" horiz-adv-x="1024" 
d="M181 679c110 73.333 211.332 110 303.999 110c124.667 0 228 -34.667 310 -104c88 -74 132 -172 132 -294c0 -114 -46 -209 -138 -285c-86 -70.667 -187.333 -106 -304 -106c-189.333 0 -321.333 72.667 -396 218c-32 62.667 -48 166.667 -48 312
c0 212 58.333 398 175 558c129.333 176.667 296.333 265 501 265v-130c-137.333 0 -258.666 -57.333 -363.999 -172c-98 -106.667 -155.333 -230.667 -172 -372zM517.999 659c-91.333 0 -167.334 -19.001 -228.001 -57.001c-72.667 -44.667 -109 -110 -109 -196
c0 -88.667 29 -157.667 87 -207c54.667 -46 127.334 -69 218.001 -69c86.667 0 158.667 22.333 216 67c62 48.667 93 115.334 93 200.001c0 74.667 -27.333 137 -82 187s-119.667 75 -195 75z" />
    <glyph glyph-name="seven" unicode="7" horiz-adv-x="1044" 
d="M36 957h935l-675 -1356h-148l605 1226h-717v130z" />
    <glyph glyph-name="eight" unicode="8" horiz-adv-x="1035" 
d="M722 1003c0 59.333 -24.667 111.666 -74 156.999c-48.667 43.333 -103 65 -163 65s-114.333 -21.667 -163 -65c-49.333 -45.333 -74 -97.666 -74 -156.999c0 -66 23.333 -119.667 70 -161c44 -39.333 99.667 -59 167 -59s123 19.667 167 59c46.667 41.333 70 95 70 161z
M485 648c-80 0 -149.668 -22.333 -209.001 -67c-64.667 -49.333 -97 -112.666 -97 -189.999c0 -76.667 32.333 -140.334 97 -191.001c60 -46.667 129.667 -70 209 -70s149 23.333 209 70c64.667 50.667 97 114.334 97 191.001c0 77.333 -32.667 140.666 -98 189.999
c-59.333 44.667 -128.666 67 -207.999 67zM484.999 0c-119.333 0 -220.668 35 -304.001 105c-88 74 -132 169.333 -132 286c0 146 69.333 257.333 208 334c-92.667 70 -139 162.667 -139 278c0 98 37 181.667 111 251c72 67.333 157.333 101 256 101s184 -33.667 256 -101
c74 -69.333 111 -153 111 -251c0 -115.333 -46.333 -208 -139 -278c138.667 -76.667 208 -188 208 -334c0 -116.667 -44 -212 -132 -286c-83.333 -70 -184.666 -105 -303.999 -105z" />
    <glyph glyph-name="nine" unicode="9" horiz-adv-x="1021" 
d="M786 300c-110 -73.333 -211.333 -110 -304 -110c-124.667 0 -228 34.667 -310 104c-88 74 -132 172 -132 294c0 114 46 209 138 285c86 70.667 187.333 106 304 106c172.667 0 302.667 -74 390 -222c36 -61.333 54 -167.333 54 -318
c0 -214.667 -57.333 -403.667 -172 -567c-128.667 -182 -296 -273 -502 -273v130c138 0 259.667 62 365 186c96 112.667 152.333 241 169 385zM449 320c91.333 0 167.334 19.001 228.001 57.001c72.667 44.667 109 110 109 196c0 81.333 -31 148.333 -93 201
c-58.667 50 -129.334 75 -212.001 75c-86.667 0 -158.667 -22.333 -216 -67c-62 -48.667 -93 -115.334 -93 -200.001c0 -74.667 27.333 -137 82 -187s119.667 -75 195 -75z" />
    <glyph glyph-name="colon" unicode=":" horiz-adv-x="399" 
d="M92 853c0 30 10.667 55.667 32 77s47 32 77 32s55.833 -10.667 77.5 -32s32.5 -47 32.5 -77c0 -30.667 -10.667 -57 -32 -79s-47.333 -33 -78 -33s-56.5 11 -77.5 33s-31.5 48.333 -31.5 79zM92 113c0 30.667 10.5 57 31.5 79s46.833 33 77.5 33s56.667 -11 78 -33
s32 -48.333 32 -79s-10.667 -56.5 -32 -77.5s-47.333 -31.5 -78 -31.5s-56.5 10.5 -77.5 31.5s-31.5 46.833 -31.5 77.5z" />
    <glyph glyph-name="semicolon" unicode=";" horiz-adv-x="390" 
d="M93 853c0 30 10.835 55.667 32.502 77s47.5 32 77.5 32c29.333 0 55.166 -10.833 77.499 -32.5s33.5 -47.167 33.5 -76.5c0 -30.667 -10.833 -57 -32.5 -79s-47.834 -33 -78.501 -33s-56.667 11 -78 33s-32 48.333 -32 79zM204.002 208
c29.333 0 55.168 -10.832 77.501 -32.499s33.5 -47.167 33.5 -76.5c0 -70 -21 -133.333 -63 -190c-45.333 -60.667 -102 -94 -170 -100l-15 58c80.667 31.333 122.667 69.666 126 114.999c-31.333 2 -57.333 13.5 -78 34.5s-31 47.167 -31 78.5
c0 33.333 11.667 60.5 35 81.5s51.666 31.5 84.999 31.5z" />
    <glyph glyph-name="less" unicode="&#x3c;" horiz-adv-x="664" 
d="M551 976l-369 -401l369 -397v-178l-475 492v171l475 491v-178z" />
    <glyph glyph-name="equal" unicode="=" horiz-adv-x="785" 
d="M72 452h637v-130h-637v130zM72 756h637v-130h-637v130z" />
    <glyph glyph-name="greater" unicode="&#x3e;" horiz-adv-x="664" 
d="M110 1154l475 -491v-171l-475 -492v178l369 397l-369 401v178z" />
    <glyph glyph-name="question" unicode="?" horiz-adv-x="798" 
d="M372 300h-131c0.666992 137.333 1.33398 209 2.00098 215c6 85.333 24.333 154 55 206c25.333 42.667 84 90.667 176 144c75.333 43.333 113 88 113 134c0 148.667 -69 223 -207 223c-67.333 0 -119.166 -20.167 -155.499 -60.5s-54.5 -94.5 -54.5 -162.5h-133
c0 102 31.833 186.833 95.5 254.5s146.167 101.5 247.5 101.5c93.333 0 174.166 -32.167 242.499 -96.5s102.5 -143.166 102.5 -236.499c0 -92.667 -23.333 -160 -70 -202c-15.333 -14 -78 -49 -188 -105c-36 -18.667 -62.667 -58.334 -80 -119.001
c-10.667 -38 -16.334 -87.333 -17.001 -148zM238 70c0 19.333 6.83301 35.833 20.5 49.5s30.167 20.5 49.5 20.5s36 -6.83301 50 -20.5s21 -30.167 21 -49.5s-7 -35.833 -21 -49.5s-30.667 -20.5 -50 -20.5s-35.833 6.83301 -49.5 20.5s-20.5 30.167 -20.5 49.5z" />
    <glyph glyph-name="at" unicode="@" horiz-adv-x="1797" 
d="M1409 1066l-90 -449.001c-26 -128.667 -39 -194 -39 -196c0 -42.667 22.333 -64 67 -64c21.333 0 49 28 83 84c48 79.333 72 189 72 329c0 112.667 -31 211.334 -93 296.001zM1318 227.999c-50 0 -90.3311 15.8311 -120.998 47.498s-46.667 72.834 -48 123.501
c-92 -108.667 -210.667 -163 -356 -163c-108 0 -197.333 35.833 -268 107.5s-106 161.834 -106 270.501c0 144 56 269.667 168 377s240 161 384 161c137.333 0 234 -55 290 -165l25 107h102c-111.333 138 -261.333 207 -450 207c-177.333 0 -328.833 -62.667 -454.5 -188
s-188.5 -276.666 -188.5 -453.999c0 -153.333 47.333 -288 142 -404c101.333 -123.333 227 -185 377 -185c121.333 0 251 40 389 120l65 -118c-153.333 -88.667 -304.333 -133 -453 -133c-188 0 -345.333 74.333 -472 223c-120 141.333 -180 307.333 -180 498
c0 214 74.667 396.5 224 547.5s330.666 226.5 543.999 226.5c188.667 0 351.667 -61 489 -183c141.333 -126.667 212 -283.334 212 -470.001c0 -130 -21 -246 -63 -348c-56.667 -136.667 -140.334 -205 -251.001 -205zM942.002 1029
c-105.333 0 -197.501 -39.832 -276.501 -119.499s-118.5 -172.167 -118.5 -277.5c0 -82.667 25.833 -148.334 77.5 -197.001s119.167 -73 202.5 -73c106 0 196 40.667 270 122c72.667 79.333 109 172.333 109 279c0 80.667 -23.667 145.167 -71 193.5
s-111.666 72.5 -192.999 72.5z" />
    <glyph glyph-name="A" unicode="A" horiz-adv-x="1150" 
d="M695 649l-152 510l-156 -510h308zM888 0l-156 517h-384l-156 -517h-135l406 1355h160l406 -1355h-141z" />
    <glyph glyph-name="B" unicode="B" horiz-adv-x="1120" 
d="M204 591l0.000976562 -461h357c73.333 0 142.666 20.667 207.999 62c74 46.667 111 104.667 111 174c0 70 -37.333 126.667 -112 170c-63.333 36.667 -132.333 55 -207 55h-357zM204.001 1225l0.000976562 -500h299c79.333 0 148.666 21.333 207.999 64
c66.667 48 100 110 100 186c0 74 -33 135.333 -99 184c-60 44 -128.333 66 -205 66h-303zM500.002 1355c119.333 0 220.668 -33 304.001 -99c91.333 -71.333 137 -165 137 -281c0 -122 -53 -220 -159 -294c149.333 -71.333 224 -176.333 224 -315
c0 -110.667 -47.667 -201 -143 -271c-86.667 -63.333 -187.334 -95 -302.001 -95h-487v1355h426z" />
    <glyph glyph-name="C" unicode="C" horiz-adv-x="1104" 
d="M57 851c0 142.667 44.333 265 133 367c92.667 107.333 209.334 161 350.001 161c120.667 0 225.334 -41 314.001 -123c84 -78.667 137 -178.667 159 -300h-128c-17.333 86 -57 156 -119 210c-64 55.333 -139.333 83 -226 83c-105.333 0 -191 -38 -257 -114
c-64 -72 -96 -161.333 -96 -268v-377c0 -106.667 32 -196 96 -268c66 -76 151.667 -114 257 -114c86.667 0 162 27.667 226 83c62 54 101.667 124 119 210h128c-22 -121.333 -75 -221.333 -159 -300c-88.667 -82 -193.334 -123 -314.001 -123
c-140.667 0 -257.334 53.667 -350.001 161c-88.667 102 -133 224.333 -133 367v345z" />
    <glyph glyph-name="D" unicode="D" horiz-adv-x="1097" 
d="M204 130h296c104.667 0 190 41 256 123c61.333 76 92 167.667 92 275v299c0 110.667 -30 203 -90 277c-64 80.667 -150 121 -258 121h-296v-1095zM500 1355c138 0 253.334 -54.332 346.001 -162.999c88 -102.667 132 -224.334 132 -365.001v-299
c0 -141.333 -43.667 -263.333 -131 -366c-92.667 -108 -208.334 -162 -347.001 -162h-426v1355h426z" />
    <glyph glyph-name="E" unicode="E" horiz-adv-x="944" 
d="M865 1355v-130h-661v-428h531v-130h-531v-537h661v-130h-791v1355h791z" />
    <glyph glyph-name="F" unicode="F" horiz-adv-x="923" 
d="M865 1355v-130h-661v-424h531v-134h-531v-667h-130v1355h791z" />
    <glyph glyph-name="G" unicode="G" horiz-adv-x="1139" 
d="M893 0l-0.00292969 140.998c-90 -108.667 -207.667 -163 -353 -163c-140.667 0 -257.334 53.667 -350.001 161c-88.667 102 -133 224.333 -133 367v345c0 142.667 44.333 265 133 367c92.667 107.333 209.334 161 350.001 161s257.334 -53.667 350.001 -161
c88.667 -102 133 -224.333 133 -367h-130c0 112 -30.333 205 -91 279c-65.333 79.333 -152.666 119 -261.999 119c-105.333 0 -191 -38 -257 -114c-64 -72 -96 -161.333 -96 -268v-377c0 -106.667 32 -196 96 -268c66 -76 151.667 -114 257 -114
c106.667 0 193.334 38.667 260.001 116c62.667 72.667 94 163.334 94 272.001h-288c-0.666992 20.667 -1 51.334 -1 92.001l1 37h360c11.333 0 23.5 -6.5 36.5 -19.5s19.5 -25.167 19.5 -36.5v-569h-129z" />
    <glyph glyph-name="H" unicode="H" horiz-adv-x="1040" 
d="M204 1355v-708h570v708h130v-1355h-130v517h-570v-517h-130v1355h130z" />
    <glyph glyph-name="I" unicode="I" horiz-adv-x="612" 
d="M49 130h171v1096h-171v129h479v-129h-176v-1096h176v-130h-479v130z" />
    <glyph glyph-name="J" unicode="J" horiz-adv-x="955" 
d="M508 1355l326 -0.000976562v-993c0 -105.333 -41.667 -196.333 -125 -273c-81.333 -74 -175 -111 -281 -111c-108.667 0 -204.334 37.667 -287.001 113c-84.667 78 -127 170.667 -127 278v126h130v-132c0 -65.333 31 -124.666 93 -177.999c60 -51.333 123 -77 189 -77
c72.667 0 136.834 25.5 192.501 76.5s83.5 112.5 83.5 184.5v856h-194v130z" />
    <glyph glyph-name="K" unicode="K" horiz-adv-x="1154" 
d="M192 725l627 630h187l-550 -554l576 -801h-163l-510 702l-167 -166v-536h-131v1355h131v-630z" />
    <glyph glyph-name="L" unicode="L" horiz-adv-x="911" 
d="M204 1355v-1225h596v-130h-726v1355h130z" />
    <glyph glyph-name="M" unicode="M" horiz-adv-x="1395" 
d="M204 1131v-1131h-132v1355h167l417 -834l417 834h172v-1355h-133v1131l-380 -758h-148z" />
    <glyph glyph-name="N" unicode="N" horiz-adv-x="1166" 
d="M227 1355l668 -1130v1130h132v-1355h-154l-669 1135v-1135h-132v1355h155z" />
    <glyph glyph-name="O" unicode="O" horiz-adv-x="1132" 
d="M187 490c0 -106.667 32 -196 96 -268c66 -76 151.667 -114 257 -114s191 38 257 114c64 72 96 161.333 96 268v377c0 106.667 -32 196 -96 268c-66 76 -151.667 114 -257 114s-191 -38 -257 -114c-64 -72 -96 -161.333 -96 -268v-377zM1023 506
c0 -142.667 -44.333 -265 -133 -367c-92.667 -107.333 -209.334 -161 -350.001 -161s-257.334 53.667 -350.001 161c-88.667 102 -133 224.333 -133 367v345c0 142.667 44.333 265 133 367c92.667 107.333 209.334 161 350.001 161s257.334 -53.667 350.001 -161
c88.667 -102 133 -224.333 133 -367v-345z" />
    <glyph glyph-name="P" unicode="P" horiz-adv-x="1060" 
d="M204 517l-0.000976562 -517h-132v1355h384c132.667 0 250.667 -35.667 354 -107c116.667 -80 175 -183.333 175 -310c0 -128 -58 -232.333 -174 -313c-103.333 -72 -221.666 -108 -354.999 -108h-252zM203.999 1225l-0.000976562 -578h252
c102.667 0 191.334 22.333 266.001 67c88.667 53.333 133 128 133 224c0 98 -44 172.667 -132 224c-72.667 42 -161.667 63 -267 63h-252z" />
    <glyph glyph-name="Q" unicode="Q" horiz-adv-x="1139" 
d="M708 414l128.002 -139.999c38 62 57 134 57 216v377c0 106 -32 195.333 -96 268c-66.667 76 -152.334 114 -257.001 114s-190.334 -38 -257.001 -114c-64 -72.667 -96 -162 -96 -268v-377c0 -106.667 31.667 -196.334 95 -269.001c66.667 -75.333 152.667 -113 258 -113
c81.333 0 151.333 23 210 69l-141 153zM1023 506.001c0 -123.333 -33.668 -231.667 -101.001 -325l101 -110v-93h-91c-22 22.667 -54 57.667 -96 105c-86 -70 -184.667 -105 -296 -105c-140.667 0 -257.334 53.667 -350.001 161c-88.667 102 -133 224.333 -133 367v345
c0 142.667 44.333 265 133 367c92.667 107.333 209.334 161 350.001 161s257.334 -53.667 350.001 -161c88.667 -102 133 -224.333 133 -367v-345z" />
    <glyph glyph-name="R" unicode="R" horiz-adv-x="1097" 
d="M204 1229v-581.999h271c95.333 0 179.666 24 252.999 72c84.667 55.333 127 128.333 127 219c0 95.333 -44.667 169.666 -134 222.999c-75.333 45.333 -163.666 68 -264.999 68h-252zM204 517.001v-517h-132v1355h384c132.667 0 250.667 -35.667 354 -107
c116.667 -80 175 -183.333 175 -310c0 -103.333 -39.667 -192.666 -119 -267.999c-72 -68.667 -161.333 -113.334 -268 -134.001l297 -536h-152l-287 517h-252z" />
    <glyph glyph-name="S" unicode="S" horiz-adv-x="1125" 
d="M183 999c0 -109.333 72.668 -184.333 218.001 -225l404 -101c144.667 -59.333 217 -165.333 217 -318c0 -113.333 -54.667 -206.666 -164 -279.999c-96.667 -64.667 -204.667 -97 -324 -97c-126 0 -234.333 33 -325 99c-100 73.333 -152 170.666 -156 291.999h130
c4 -90 41.667 -157.667 113 -203c61.333 -38.667 140 -58 236 -58c91.333 0 170.333 18.667 237 56c82 46 123 110.667 123 194c0 109.333 -72.333 185.333 -217 228l-404 103c-145.333 58.667 -218 161.667 -218 309c0 117.333 52 212.333 156 285c92.667 64 200 96 322 96
c131.333 0 242.666 -31.333 333.999 -94c104.667 -72 157 -171 157 -297h-130c0 92 -37.333 160.667 -112 206c-60.667 36.667 -140 55 -238 55c-239.333 0 -359 -83.333 -359 -250z" />
    <glyph glyph-name="T" unicode="T" horiz-adv-x="1060" 
d="M558 1225v-1225h-130v1225h-407v130h954v-130h-417z" />
    <glyph glyph-name="U" unicode="U" horiz-adv-x="1150" 
d="M195 1355l-0.000976562 -867c0 -104 31.667 -192.333 95 -265c66 -76.667 150.333 -115 253 -115s187.334 39 254.001 117c63.333 73.333 95 162.333 95 267v863h130v-849c0 -140 -44.333 -261.667 -133 -365c-92.667 -108.667 -208 -163 -346 -163
s-253.333 54.333 -346 163c-88 103.333 -132 225 -132 365v849h130z" />
    <glyph glyph-name="V" unicode="V" horiz-adv-x="1081" 
d="M170 1355l338 -1123l343 1123h134l-405 -1355h-141l-406 1355h137z" />
    <glyph glyph-name="W" unicode="W" horiz-adv-x="1459" 
d="M1188 1355h137l-243 -1355h-141l-253 1071l-257 -1071h-135l-243 1355h135l188 -1059l246 1059h129l252 -1059z" />
    <glyph glyph-name="X" unicode="X" horiz-adv-x="1129" 
d="M216 1355l315 -543l320 543h152l-391 -671l394 -684h-151l-324 551l-318 -551h-156l399 684l-391 671h151z" />
    <glyph glyph-name="Y" unicode="Y" horiz-adv-x="1048" 
d="M428 681l-402 674h152l315 -543l318 543h153l-403 -674v-681h-133v681z" />
    <glyph glyph-name="Z" unicode="Z" horiz-adv-x="1031" 
d="M50 1355h877v-144l-728 -1081h730v-130h-880v156l715 1074h-714v125z" />
    <glyph glyph-name="bracketleft" unicode="[" horiz-adv-x="456" 
d="M364 1222h-160v-1480h160v-133h-227l-65 64v1613l65 69h227v-133z" />
    <glyph glyph-name="backslash" unicode="\" horiz-adv-x="605" 
d="M151 1355l403 -1355h-141l-399 1355h137z" />
    <glyph glyph-name="bracketright" unicode="]" horiz-adv-x="481" 
d="M88 1355h223l69 -64v-1618l-69 -64h-223v133h158v1480h-158v133z" />
    <glyph glyph-name="asciicircum" unicode="^" horiz-adv-x="1028" 
d="M61 877l340 478h167l342 -478h-163l-262 365l-261 -365h-163z" />
    <glyph glyph-name="underscore" unicode="_" horiz-adv-x="1072" 
d="M72 130h866v-130h-866v130z" />
    <glyph glyph-name="grave" unicode="`" horiz-adv-x="662" 
d="M474 1087l-377 268h235l200 -211z" />
    <glyph glyph-name="a" unicode="a" horiz-adv-x="1066" 
d="M497 108c60 0 120.33 10.334 180.997 31.001c81.333 27.333 122 64.666 122 111.999v220c-1.33301 -10 -58.666 -16.667 -171.999 -20c-89.333 -3.33301 -153.666 -9.33301 -192.999 -18c-73.333 -15.333 -127.666 -46 -162.999 -92c-24.667 -32 -37 -62 -37 -90
c0 -95.333 87.333 -143 262 -143zM799.997 705.001c0 44 -33.668 81.0039 -101.001 111.004c-55.333 24 -108.333 36 -159 36c-166 0 -269 -58 -309 -174l-126 27c18 94.667 69.667 165.667 155 213c72 40.667 160.333 61 265 61c86.667 0 171.334 -20 254.001 -60
c100.667 -48.667 151 -111.334 151 -188.001v-579c0 -26.667 16 -41.334 48 -44.001c-1.33301 -21.333 -3 -64.333 -5 -129c-72 4 -122.333 33 -151 87c-82 -58.667 -188 -88 -318 -88c-271.333 0 -407 91.667 -407 275c0 49.333 16.667 98.666 50 147.999
c47.333 71.333 113.333 118 198 140c42 11.333 118 18.333 228 21c92 2.66699 158.333 15 199 37c17.333 9.33301 27 24.666 29 45.999c-0.666992 -7.33301 -1 12.667 -1 60z" />
    <glyph glyph-name="b" unicode="b" horiz-adv-x="1138" 
d="M547 849c-96.667 0 -178 -37.998 -244 -113.998c-62.667 -72.667 -94 -158.334 -94 -257.001s32.333 -184.334 97 -257.001c66.667 -75.333 148.667 -113 246 -113s183.333 37.333 258 112s112 160.667 112 258s-38 183.5 -114 258.5s-163 112.5 -261 112.5zM547 979.002
c133.333 0 250.833 -50.168 352.5 -150.501s152.5 -217.166 152.5 -350.499c0 -132.667 -50.167 -249.167 -150.5 -349.5s-216.833 -150.5 -349.5 -150.5c-146.667 0 -262.667 65.333 -348 196v-174h-132v1355h132v-572c82 130.667 196.333 196 343 196z" />
    <glyph glyph-name="c" unicode="c" horiz-adv-x="1084" 
d="M529 979c90.667 0 174.332 -25.3311 250.999 -75.998c74 -48.667 132.333 -114.667 175 -198h-152c-71.333 96 -162.666 144 -273.999 144c-98 0 -181 -38 -249 -114c-66 -72.667 -99 -158.667 -99 -258c0 -98.667 33 -184.334 99 -257.001
c68.667 -74.667 151.667 -112 249 -112c100 0 188.667 44 266 132h155c-98 -174.667 -238.333 -262 -421 -262c-132 0 -245 50.667 -339 152c-92.667 99.333 -139 215.333 -139 348c0 133.333 46.5 250.166 139.5 350.499s205.833 150.5 338.5 150.5z" />
    <glyph glyph-name="d" unicode="d" horiz-adv-x="1113" 
d="M503 979c146.667 0 261 -65.332 343 -195.999v572h132v-1355h-132v174c-85.333 -130.667 -201.333 -196 -348 -196c-132.667 0 -249.167 50.167 -349.5 150.5s-150.5 216.833 -150.5 349.5c0 133.333 50.833 250.166 152.5 350.499s219.167 150.5 352.5 150.5z
M503 849.001c-98 0 -185 -37.502 -261 -112.502s-114 -161.167 -114 -258.5s37.333 -183.333 112 -258s160.667 -112 258 -112s179.333 37.667 246 113c64.667 72.667 97 158.334 97 257.001s-31.333 184.334 -94 257.001c-66 76 -147.333 114 -244 114z" />
    <glyph glyph-name="e" unicode="e" horiz-adv-x="1125" 
d="M180 463c4 -94.667 40.666 -176.998 109.999 -246.998c70.667 -72 153 -108 247 -108c68.667 0 136.334 21 203.001 63s114.667 94 144 156l130 -23c-37.333 -92.667 -101.5 -170.167 -192.5 -232.5s-185.833 -93.5 -284.5 -93.5c-132.667 0 -246.667 50 -342 150
s-143 216.667 -143 350s47.667 250.166 143 350.499s209.333 150.5 342 150.5c136.667 0 251.667 -52.333 345 -157c90 -100.667 135 -220.334 135 -359.001h-837zM536.999 849.002c-73.333 0 -142.333 -25.667 -207 -77c-60.667 -48 -105 -107.667 -133 -179h670
c-24 72 -65.667 132.333 -125 181c-62.667 50 -131 75 -205 75z" />
    <glyph glyph-name="f" unicode="f" horiz-adv-x="485" 
d="M431 1222c-52.667 0 -96.667 -14.333 -132 -43c-37.333 -30.667 -56 -72 -56 -124v-98h188v-130h-188v-827h-132v827h-78v130h78v98c0 90 31.333 163 94 219c60 54 135.333 81 226 81v-133z" />
    <glyph glyph-name="g" unicode="g" horiz-adv-x="1100" 
d="M510 108c96.667 0 175.666 38.334 236.999 115.001c58 71.333 87 156.333 87 255c0 99.333 -28.667 184.666 -86 255.999c-62 76.667 -141.333 115 -238 115s-177 -38.333 -241 -115c-61.333 -72 -92 -157.333 -92 -256s30.333 -184 91 -256
c64.667 -76 145.334 -114 242.001 -114zM509.999 -21.999c-136 0 -247.998 50 -335.998 150c-84.667 95.333 -127 212 -127 350c0 134 43.333 250 130 348c90 102 201 153 333 153c140 0 249.667 -67 329 -201v179h130v-888c0 -133.333 -43.5 -243.833 -130.5 -331.5
s-197.167 -131.5 -330.5 -131.5c-113.333 0 -210.833 35.333 -292.5 106s-133.167 162 -154.5 274l127 21c18 -81.333 55 -146.333 111 -195c58 -50.667 128 -76 210 -76c97.333 0 176.666 33.333 237.999 100s92 149 92 247v91
c-82.667 -130.667 -192.334 -196 -329.001 -196z" />
    <glyph glyph-name="h" unicode="h" horiz-adv-x="1051" 
d="M74 1355h130v-572c84 130.667 197 196 339 196c128.667 0 232.667 -51.333 312 -154c72.667 -94 109 -207 109 -339v-486h-130v478c0 99.333 -23 183.333 -69 252c-53.333 79.333 -127.333 119 -222 119c-95.333 0 -176.333 -38.333 -243 -115
c-64 -74 -96 -159.333 -96 -256v-478h-130v1355z" />
    <glyph glyph-name="i" unicode="i" horiz-adv-x="400" 
d="M161 1281c0 20.667 8 38.5 24 53.5s34.333 22.5 55 22.5c21.333 0 39.666 -7.33301 54.999 -22s23 -32.667 23 -54s-7.66699 -39.333 -23 -54s-33.666 -22 -54.999 -22c-20.667 0 -39 7.5 -55 22.5s-24 32.833 -24 53.5zM47 957h257v-957h-130v827h-127v130z" />
    <glyph glyph-name="j" unicode="j" horiz-adv-x="420" 
d="M188 1279c0 20.667 8 38.5 24 53.5s34.333 22.5 55 22.5c21.333 0 39.666 -7.33301 54.999 -22s23 -32.667 23 -54s-7.66699 -39.333 -23 -54s-33.666 -22 -54.999 -22c-20.667 0 -39 7.5 -55 22.5s-24 32.833 -24 53.5zM74 827v130.001h257l-1 -1055
c0 -90 -30.5 -162.667 -91.5 -218s-136.833 -83 -227.5 -83v134c52.667 0 96.667 14.333 132 43c38 31.333 57 72.666 57 123.999v923h-124c0 1.33301 -0.666992 2 -2 2z" />
    <glyph glyph-name="k" unicode="k" horiz-adv-x="844" 
d="M204 656l437 331l87 -99l-330 -254l384 -634h-156l-337 554l-85 -65v-489h-132v1355h132v-699z" />
    <glyph glyph-name="l" unicode="l" horiz-adv-x="355" 
d="M86 1355h132v-1355h-132v1355z" />
    <glyph glyph-name="m" unicode="m" horiz-adv-x="1547" 
d="M1046 849c-86.667 0 -151 -42.667 -193 -128c-32 -64.667 -48 -145.667 -48 -243v-478h-130l-1 478c0 247.333 -73 371 -219 371c-88.667 0 -155 -42 -199 -126c-34.667 -66 -52 -147.667 -52 -245v-478h-130v957h130v-106c60 85.333 143.667 128 251 128
c146 0 244.667 -69.333 296 -208c36.667 138.667 135 208 295 208c232.667 0 349 -167 349 -501v-478h-130v478c0 247.333 -73 371 -219 371z" />
    <glyph glyph-name="n" unicode="n" horiz-adv-x="1117" 
d="M74 957l130 0.000976562v-174c76.667 130.667 190.334 196 341.001 196c144.667 0 257 -46.667 337 -140c74.667 -87.333 112 -205 112 -353v-486h-132v478c0 110 -24.667 197.333 -74 262c-54.667 72.667 -135.667 109 -243 109c-100.667 0 -183.334 -37 -248.001 -111
c-62 -70.667 -93 -157.334 -93 -260.001v-478h-130v957z" />
    <glyph glyph-name="o" unicode="o" horiz-adv-x="1125" 
d="M530 849c-98 0 -180.999 -38 -248.999 -114c-66 -73.333 -99 -159.333 -99 -258s33 -184.334 99 -257.001c68.667 -74.667 151.667 -112 249 -112s180.666 37.333 249.999 112c67.333 73.333 101 159 101 257c0 98.667 -34 185.334 -102 260.001s-151 112 -249 112z
M530.001 979c132.667 0 246 -50.332 340 -150.999s141 -217.667 141 -351c0 -132.667 -46.667 -248.667 -140 -348c-95.333 -100.667 -209 -151 -341 -151s-245 50.667 -339 152c-92.667 99.333 -139 215.333 -139 348c0 133.333 46.5 250.166 139.5 350.499
s205.833 150.5 338.5 150.5z" />
    <glyph glyph-name="p" unicode="p" horiz-adv-x="1113" 
d="M551 108c96.667 0 179.334 37.6689 248.001 113.002c66.667 73.333 100 159 100 257s-33.333 183.667 -100 257c-68.667 76 -151.334 114 -248.001 114c-97.333 0 -179.333 -38 -246 -114c-64 -72.667 -96 -158.334 -96 -257.001s32 -184.334 96 -257.001
c66.667 -75.333 148.667 -113 246 -113zM551 -21.998c-146.667 0 -262.334 65.332 -347.001 195.999v-573h-130v1356h130v-174c84.667 130.667 200.334 196 347.001 196c132.667 0 246 -50.667 340 -152c92 -99.333 138 -215.666 138 -348.999s-46 -249.333 -138 -348
c-94.667 -101.333 -208 -152 -340 -152z" />
    <glyph glyph-name="q" unicode="q" horiz-adv-x="1166" 
d="M554 -22c-132 0 -245.333 50.668 -340 152.001c-92 98.667 -138 214.667 -138 348s46.5 250.166 139.5 350.499s205.833 150.5 338.5 150.5c146.667 0 262.334 -65.333 347.001 -196v174h130v-1356h-130v573c-84.667 -130.667 -200.334 -196 -347.001 -196zM554 108.001
c97.333 0 179.333 37.666 246 112.999c64 73.333 96 159 96 257c0 98.667 -32 184.334 -96 257.001c-66.667 76 -148.667 114 -246 114c-96.667 0 -179.334 -38 -248.001 -114c-66.667 -73.333 -100 -159 -100 -257s33.333 -183.667 100 -257
c68.667 -75.333 151.334 -113 248.001 -113z" />
    <glyph glyph-name="r" unicode="r" horiz-adv-x="857" 
d="M204 783c85.333 116 198.334 174 339.001 174h204v-174c-68.667 29.333 -134.334 44 -197.001 44c-98 0 -180.167 -33.667 -246.5 -101s-99.5 -150 -99.5 -248v-478h-132v957h132v-174z" />
    <glyph glyph-name="s" unicode="s" horiz-adv-x="1003" 
d="M183 281c4 -59.333 44.001 -104.664 120.001 -135.997c58 -23.333 122.333 -35 193 -35c60 0 115.333 10.667 166 32c66 27.333 99 66.666 99 117.999c0 60 -40 102.333 -120 127c-20.667 6 -104.667 20 -252 42c-108.667 16 -183.667 41.333 -225 76
c-38.667 31.333 -64.334 58.666 -77.001 81.999c-14.667 26 -22 62.333 -22 109c0 92 46.333 163.667 139 215c76 42.667 164 64 264 64c104 0 195 -20.333 273 -61c94.667 -49.333 148.334 -120.333 161.001 -213l-126 -27c-24.667 116 -134.334 174 -329.001 174
c-60 0 -113 -10 -159 -30c-61.333 -26.667 -92 -66.334 -92 -119.001c0 -72.667 54.667 -121.667 164 -147l253 -29c83.333 -12 158.333 -45.667 225 -101c40 -33.333 60 -87.333 60 -162c0 -88.667 -48 -159.667 -144 -213c-80 -44.667 -168.333 -67 -265 -67
c-103.333 0 -194 20.333 -272 61c-94 49.333 -147.333 120.333 -160 213z" />
    <glyph glyph-name="t" unicode="t" horiz-adv-x="612" 
d="M306 957h240.999v-130h-241v-595c0 -70 48.667 -105 146 -105c12 0 28.667 0.5 50 1.5s36.333 1.5 45 1.5v-130h-141c-65.333 -0 -120 22.333 -164 67s-66 99.667 -66 165v595h-150v130c74.667 0 120.334 17 137.001 51c8.66699 17.333 13 69 13 155h130v-206z" />
    <glyph glyph-name="u" unicode="u" horiz-adv-x="1040" 
d="M904 0l-129.998 -0.000976562v137c-72.667 -106 -169.667 -159 -291 -159c-134.667 0 -239.334 47.333 -314.001 142c-68 86 -102 198 -102 336v501h130v-501c0 -93.333 24 -172.666 72 -237.999c53.333 -73.333 124.666 -110 213.999 -110c97.333 0 172 38.667 224 116
c44.667 67.333 67 152 67 254v479h130v-957z" />
    <glyph glyph-name="v" unicode="v" horiz-adv-x="1081" 
d="M178 957l334 -813l331 813h142l-390 -957h-171l-391 957h145z" />
    <glyph glyph-name="w" unicode="w" horiz-adv-x="1439" 
d="M395 0l-335 957h137l259 -739l167 476l-93 263h137l262 -744l258 744h138l-334 -957h-125l-174 498l-176 -498h-121z" />
    <glyph glyph-name="x" unicode="x" horiz-adv-x="1044" 
d="M224 957l269 -369l270 369h164l-350 -482l350 -475h-167l-267 366l-266 -366h-166l352 475l-352 482h163z" />
    <glyph glyph-name="y" unicode="y" horiz-adv-x="1104" 
d="M253 -269c88 -1.33301 142.333 23.667 163 75l103 259l-486 892h148l400 -735l292 735h140l-458 -1151c-55.333 -138.667 -152 -207 -290 -205h-12v130z" />
    <glyph glyph-name="z" unicode="z" horiz-adv-x="1000" 
d="M223 130h657v-130h-812v167l626 660h-625v130h811v-133z" />
    <glyph glyph-name="braceleft" unicode="{" horiz-adv-x="504" 
d="M71 539c70 48 105 99.665 105 154.998c0 294 13 473.5 39 538.5s77 105.833 153 122.5l22 -130c-56.667 -11.333 -85 -88.666 -85 -231.999c0 -18.667 0.5 -42.167 1.5 -70.5s1.5 -45.833 1.5 -52.5c0 -107.333 -2.33301 -177.666 -7 -210.999
c-12 -86 -41.667 -146.333 -89 -181c65.333 -48.667 98 -157.667 98 -327c0 -18 -0.333008 -42.5 -1 -73.5s-1 -52.5 -1 -64.5c0 -87.333 1.33301 -140.666 4 -159.999c10 -72.667 36 -113.334 78 -122.001l-22 -130c-76 16.667 -127 58 -153 124c-26 64 -39 243 -39 537
c0 55.333 -35 107 -105 155v122z" />
    <glyph glyph-name="bar" unicode="|" horiz-adv-x="383" 
d="M245 1355v-1742h-132v1742h132z" />
    <glyph glyph-name="braceright" unicode="}" horiz-adv-x="521" 
d="M418 415c-70 -48 -105 -99.665 -105 -154.998c0 -294 -12.667 -473 -38 -537c-26.667 -66 -78 -107.333 -154 -124l-22 130c56.667 11.333 85 88.666 85 231.999c0 18.667 -0.5 42.167 -1.5 70.5s-1.5 45.833 -1.5 52.5c0 107.333 2.33301 177.666 7 210.999
c12 86 41.667 146.333 89 181c-65.333 48.667 -98 157.667 -98 327c0 18 0.333008 42.5 1 73.5s1 52.5 1 64.5c0 87.333 -1.33301 140.666 -4 159.999c-10 72.667 -36 113.334 -78 122.001l22 130c76 -16.667 127 -57.5 153 -122.5s39 -244.5 39 -538.5
c0 -55.333 35 -107 105 -155v-122z" />
    <glyph glyph-name="asciitilde" unicode="~" horiz-adv-x="758" 
d="M248 1196c38 0 78.834 -14.167 122.501 -42.5s77.5 -42.5 101.5 -42.5c25.333 0 50.333 27 75 81l123 -47c-41.333 -114 -109 -171 -203 -171c-46 0 -89.833 14.667 -131.5 44s-69.834 44 -84.501 44c-36 0 -64 -28 -84 -84l-123 51c40 111.333 108 167 204 167z" />
    <glyph glyph-name="uni00A0" unicode="&#xa0;" horiz-adv-x="724" 
 />
    <glyph glyph-name="exclamdown" unicode="&#xa1;" horiz-adv-x="379" 
d="M115 1281c0 19.333 6.83301 35.833 20.5 49.5s30.167 20.5 49.5 20.5s36 -6.83301 50 -20.5s21 -30.167 21 -49.5s-7 -35.833 -21 -49.5s-30.667 -20.5 -50 -20.5s-35.833 6.83301 -49.5 20.5s-20.5 30.167 -20.5 49.5zM264 1049v-1049h-143v1049h143z" />
    <glyph glyph-name="cent" unicode="&#xa2;" horiz-adv-x="923" 
d="M431 916c-80 -16.667 -144 -51.667 -192 -105c-50.667 -56 -76 -123.667 -76 -203c0 -80.667 24.5 -148.5 73.5 -203.5s113.833 -89.5 194.5 -103.5v615zM565 297c122 13.333 210.332 79.667 264.999 199v-211c-78.667 -71.333 -167 -112 -265 -122v-163h-134v167
c-116.667 15.333 -212.167 63.333 -286.5 144s-111.5 179.667 -111.5 297c0 115.333 38 214 114 296c73.333 80 168 128 284 144v144h134v-144c104.667 -12 193 -51 265 -117v-213c-51.333 112.667 -139.666 180 -264.999 202v-623z" />
    <glyph glyph-name="sterling" unicode="&#xa3;" horiz-adv-x="1122" 
d="M311 160c-12 4.66699 -20.667 7 -26 7c-45.333 0 -68 -10 -68 -30c0 -18.667 16 -28 48 -28c22 0 37.333 17 46 51zM1040 109c-62 -72.667 -182.999 -108.999 -362.999 -108.999c-80 0 -165.333 32.667 -256 98c-36 -65.333 -83.667 -98 -143 -98
c-47.333 0 -88.333 9.66699 -123 29c-42.667 23.333 -64 56.666 -64 99.999c0 44.667 21.667 79.667 65 105c37.333 20.667 81 31 131 31c15.333 0 29.666 -1 42.999 -3c2.66699 18 4 40.667 4 68v334h-132v133h132v329c0 134.667 64.333 202 193 202
c36 0 74.333 -6.33301 115 -19l-42 -126c-33.333 10 -59 15 -77 15c-36.667 0 -55 -24 -55 -72v-329h105v-133h-105v-334c0 -51.333 -3 -90.333 -9 -117c88 -52.667 160.667 -79 218 -79c134 0 221 21 261 63z" />
    <glyph glyph-name="currency" unicode="&#xa4;" horiz-adv-x="899" 
d="M420 812c-60 0 -109.998 -20.333 -149.998 -61s-60 -91 -60 -151c0 -59.333 20.167 -109.333 60.5 -150s90.166 -61 149.499 -61c60 0 110.5 20.167 151.5 60.5s61.5 90.5 61.5 150.5c0 62.667 -19.833 113.667 -59.5 153s-90.834 59 -153.501 59zM134.002 793
l-68.999 68.998l95 95l68 -69c61.333 38 125.333 57 192 57c69.333 0 134.666 -19 195.999 -57l68 69l95 -95l-69 -69c38 -61.333 57 -125.666 57 -192.999c0 -68 -19 -132.667 -57 -194l69 -68l-95 -95l-68 68c-60 -37.333 -125.333 -56 -196 -56
c-68.667 0 -132.667 18.667 -192 56l-68 -68l-95 95l69 68c-38 58.667 -57 123.334 -57 194.001c0 70 19 134.333 57 193z" />
    <glyph glyph-name="yen" unicode="&#xa5;" horiz-adv-x="1042" 
d="M489 812l320 543h151l-402 -674v-138h209v-133h-209v-117h209v-133h-209v-345h-134v345h-234v133h234v117h-234v133h234v138l-401 674h151z" />
    <glyph glyph-name="brokenbar" unicode="&#xa6;" horiz-adv-x="303" 
d="M81 -387v714h132v-714h-132zM213 588h-132v767h132v-767z" />
    <glyph glyph-name="section" unicode="&#xa7;" horiz-adv-x="715" 
d="M347 1222c-96.667 0 -145.002 -47.665 -145.002 -142.998c0 -48.667 36.333 -99.334 109 -152.001l202 -146c72.667 -66.667 109 -140 109 -220c0 -54.667 -20 -103.667 -60 -147c-37.333 -40.667 -83.666 -67.334 -138.999 -80.001l136 -101
c46.667 -44 70 -92.333 70 -145c0 -85.333 -25.667 -153.5 -77 -204.5s-119.666 -76.5 -204.999 -76.5c-92 0 -162 28.667 -210 86c-44 52.667 -66 126 -66 220h136c-2.66699 -6 -4 -16.333 -4 -31c0 -95.333 48 -143 144 -143c98.667 0 148 49.667 148 149
c0 33.333 -24 68.333 -72 105l-280 213c-48 36.667 -72 96 -72 178c0 131.333 65.333 212.333 196 243c-88 68 -134 104.333 -138 109c-38.667 40 -58 91.333 -58 154c0 83.333 25 148.333 75 195s117 70 201 70c188 0 282 -101 282 -303h-137c2 10 3 20.333 3 31
c0 92.667 -49.333 139 -148 139zM201.998 580.002c0 -38.667 15.002 -68.999 45.002 -90.999c27.333 -20 60.666 -30 99.999 -30c98.667 0 148 40.333 148 121c0 40 -15.333 71.667 -46 95c-27.333 21.333 -61.333 32 -102 32s-74.334 -10.667 -101.001 -32
c-29.333 -22.667 -44 -54.334 -44 -95.001z" />
    <glyph glyph-name="dieresis" unicode="&#xa8;" horiz-adv-x="697" 
d="M417 1055c0 28 9.66699 52.333 29 73s43 31 71 31c27.333 0 50.666 -10.5 69.999 -31.5s29 -45.167 29 -72.5s-9.66699 -50.5 -29 -69.5s-42.666 -28.5 -69.999 -28.5c-28 0 -51.667 9.5 -71 28.5s-29 42.167 -29 69.5zM58 1055c0 28 9.5 52.333 28.5 73
s42.167 31 69.5 31s50.5 -10.5 69.5 -31.5s28.5 -45.167 28.5 -72.5s-9.5 -50.5 -28.5 -69.5s-42.167 -28.5 -69.5 -28.5c-28 0 -51.333 9.33301 -70 28s-28 42 -28 70z" />
    <glyph glyph-name="copyright" unicode="&#xa9;" horiz-adv-x="1485" 
d="M736 996c-96.667 0 -176.332 -29.998 -238.999 -89.998s-94 -138 -94 -234c0 -96.667 31.167 -174.834 93.5 -234.501s142.166 -89.5 239.499 -89.5c70.667 0 134.5 18.333 191.5 55s99.5 87 127.5 151v-213c-89.333 -80.667 -195.666 -121 -318.999 -121
c-132.667 0 -243 42.333 -331 127s-132 193 -132 325c0 131.333 44.667 239.666 134 324.999c87.333 84.667 197 127 329 127c123.333 0 229.666 -40.333 318.999 -121v-213c-28.667 62 -72 111.833 -130 149.5s-121 56.5 -189 56.5zM721.002 1348
c188 0 347.834 -64.833 479.501 -194.5s197.5 -288.5 197.5 -476.5s-65.833 -347.833 -197.5 -479.5s-291.5 -197.5 -479.5 -197.5s-347.5 65.667 -478.5 197s-196.5 291.333 -196.5 480c0 186.667 65.667 345.167 197 475.5s290.666 195.5 477.999 195.5zM721.003 1228
c-151.333 0 -281.5 -54 -390.5 -162s-163.5 -237.667 -163.5 -389c0 -154 53.833 -284.833 161.5 -392.5s238.5 -161.5 392.5 -161.5c154.667 0 285.667 53.667 393 161s161 238.333 161 393c0 152.667 -54.167 282.667 -162.5 390s-238.833 161 -391.5 161z" />
    <glyph glyph-name="guillemotleft" unicode="&#xab;" horiz-adv-x="981" 
d="M899 793l-208 -281l208 -276v-178l-436 459l436 454v-178zM486 793l-208 -281l208 -276v-178l-436 459l436 454v-178z" />
    <glyph glyph-name="logicalnot" unicode="&#xac;" horiz-adv-x="1024" 
d="M45 829h851l-2 -448h-132v314h-717v134z" />
    <glyph glyph-name="minus" unicode="&#xad;" horiz-adv-x="889" 
d="M100 660h679v-130h-679v130z" />
    <glyph glyph-name="minus" unicode="&#x2212;" horiz-adv-x="889" 
d="M100 660h679v-130h-679v130z" />
    <glyph glyph-name="registered" unicode="&#xae;" horiz-adv-x="1485" 
d="M721 1348c188 0 347.834 -64.833 479.501 -194.5s197.5 -288.5 197.5 -476.5s-65.833 -347.833 -197.5 -479.5s-291.5 -197.5 -479.5 -197.5s-347.5 65.667 -478.5 197s-196.5 291.333 -196.5 480c0 186.667 65.667 345.167 197 475.5s290.666 195.5 477.999 195.5z
M721.001 1228c-151.333 0 -281.5 -54 -390.5 -162s-163.5 -237.667 -163.5 -389c0 -154 53.833 -284.833 161.5 -392.5s238.5 -161.5 392.5 -161.5c154.667 0 285.667 53.667 393 161s161 238.333 161 393c0 152.667 -54.167 282.667 -162.5 390s-238.833 161 -391.5 161z
M616.001 463v-201h-134v862l261 3c88 0 163.833 -33.5 227.5 -100.5s95.5 -144.833 95.5 -233.5c0 -132 -58 -229.333 -174 -292l167 -239h-164l-139 201h-140zM616.001 597h140c50 0 92.667 20.333 128 61c33.333 39.333 50 84.333 50 135c0 49.333 -18.333 95 -55 137
c-38.667 44 -82.667 66 -132 66l-131 -4v-395z" />
    <glyph glyph-name="macron" unicode="&#xaf;" horiz-adv-x="847" 
d="M0 1355h767v-130h-767v130z" />
    <glyph glyph-name="macron" unicode="&#x2c9;" horiz-adv-x="847" 
d="M0 1355h767v-130h-767v130z" />
    <glyph glyph-name="degree" unicode="&#xb0;" horiz-adv-x="648" 
d="M311 1355c74.667 0 138.167 -24.999 190.5 -74.999s78.5 -112 78.5 -186s-26.167 -136.167 -78.5 -186.5s-115.833 -75.5 -190.5 -75.5c-73.333 0 -135.833 25.333 -187.5 76s-77.5 112.667 -77.5 186s25.833 135.166 77.5 185.499s114.167 75.5 187.5 75.5zM311 1222
c-36 0 -67.165 -12.5 -93.498 -37.5s-39.5 -55.167 -39.5 -90.5c0 -37.333 12.833 -68.333 38.5 -93s57.167 -37 94.5 -37s69.666 12.5 96.999 37.5s41 55.833 41 92.5c0 36 -13.833 66.333 -41.5 91s-59.834 37 -96.501 37z" />
    <glyph glyph-name="plusminus" unicode="&#xb1;" horiz-adv-x="798" 
d="M42 971h280v297h134v-297h276v-132h-276v-292h-134v292h-280v132zM33 517h703v-133h-703v133z" />
    <glyph glyph-name="twosuperior" unicode="&#xb2;" 
 />
    <glyph glyph-name="threesuperior" unicode="&#xb3;" 
 />
    <glyph glyph-name="acute" unicode="&#xb4;" horiz-adv-x="630" 
d="M130 1144l200 211h235l-377 -268z" />
    <glyph glyph-name="mu" unicode="&#xb5;" horiz-adv-x="1000" 
d="M757 193c-59.333 -128.667 -138 -192.999 -236 -192.999s-176.667 64.333 -236 193c-16 -317.333 -63 -513 -141 -587l-98 90c54 90.667 92.333 258 115 502c8.66699 92 18 267.667 28 527h130c0.666992 -104.667 15 -217.667 43 -339c39.333 -168 92.333 -252 159 -252
s119.667 84 159 252c28 121.333 42.333 234.333 43 339h130c7.33301 -199.333 12.333 -320.333 15 -363c8 -138 20 -258.667 36 -362h-132c-6.66699 57.333 -11.667 121.666 -15 192.999z" />
    <glyph glyph-name="mu" unicode="&#x3bc;" horiz-adv-x="1000" 
d="M757 193c-59.333 -128.667 -138 -192.999 -236 -192.999s-176.667 64.333 -236 193c-16 -317.333 -63 -513 -141 -587l-98 90c54 90.667 92.333 258 115 502c8.66699 92 18 267.667 28 527h130c0.666992 -104.667 15 -217.667 43 -339c39.333 -168 92.333 -252 159 -252
s119.667 84 159 252c28 121.333 42.333 234.333 43 339h130c7.33301 -199.333 12.333 -320.333 15 -363c8 -138 20 -258.667 36 -362h-132c-6.66699 57.333 -11.667 121.666 -15 192.999z" />
    <glyph glyph-name="paragraph" unicode="&#xb6;" horiz-adv-x="880" 
d="M37 638c0 74 20.334 143.333 61.001 208c46.667 74 105 111 175 111h536v-130h-142v-827h-131v827h-123v-827h-131v319c-74.667 1.33301 -135.334 37.333 -182.001 108c-42 62.667 -63 133 -63 211z" />
    <glyph glyph-name="middot" unicode="&#xb7;" 
 />
    <glyph glyph-name="cedilla" unicode="&#xb8;" horiz-adv-x="462" 
d="M244 -190c0 7.33301 -27.333 38 -82 92l-101 98h129c14 -20 38.333 -39.667 73 -59c38.667 -20.667 64 -37.667 76 -51c23.333 -26 35 -61.667 35 -107c0 -80.667 -57.333 -121 -172 -121l-68 113c36 9.33301 72.667 21 110 35z" />
    <glyph glyph-name="onesuperior" unicode="&#xb9;" 
 />
    <glyph glyph-name="ordmasculine" unicode="&#xba;" 
 />
    <glyph glyph-name="guillemotright" unicode="&#xbb;" horiz-adv-x="985" 
d="M468 971l435 -454l-435 -459v178l209 276l-209 281v178zM54 971l414 -454l-414 -459v178l208 276l-208 281v178z" />
    <glyph glyph-name="onequarter" unicode="&#xbc;" 
 />
    <glyph glyph-name="onehalf" unicode="&#xbd;" 
 />
    <glyph glyph-name="questiondown" unicode="&#xbf;" horiz-adv-x="784" 
d="M238 1285c0 19.333 6.83301 35.833 20.5 49.5s30.167 20.5 49.5 20.5s36 -6.83301 50 -20.5s21 -30.167 21 -49.5s-7 -35.833 -21 -49.5s-30.667 -20.5 -50 -20.5s-35.833 6.83301 -49.5 20.5s-20.5 30.167 -20.5 49.5zM725 333
c0 -93.333 -34.168 -172.166 -102.501 -236.499s-149.166 -96.5 -242.499 -96.5c-101.333 0 -184.333 34.333 -249 103c-62.667 66.667 -94 151 -94 253h133c0 -68 18 -121.667 54 -161c36.667 -41.333 88.667 -62 156 -62c138 0 207 74.333 207 223
c0 46 -37.667 90.667 -113 134c-92 53.333 -150.667 101.333 -176 144c-30.667 52 -49 120.667 -55 206c-0.666992 6 -1.33398 77.667 -2.00098 215h131l-2 -148c0.666992 -60.667 6.33398 -110 17.001 -148c17.333 -60.667 44 -100.334 80 -119.001
c110 -56 172.667 -91 188 -105c46.667 -42 70 -109.333 70 -202z" />
    <glyph glyph-name="Agrave" unicode="&#xc0;" horiz-adv-x="1150" 
d="M695 649l-152 510l-156 -510h308zM888 0l-156 517h-384l-156 -517h-135l406 1355h160l406 -1355h-141zM546 1452l-377 268h235l200 -211z" />
    <glyph glyph-name="Aacute" unicode="&#xc1;" horiz-adv-x="1136" 
d="M695 649l-152 510l-156 -510h308zM888 0l-156 517h-384l-156 -517h-135l406 1355h160l406 -1355h-141zM507 1514l200 211h235l-377 -268z" />
    <glyph glyph-name="Acircumflex" unicode="&#xc2;" horiz-adv-x="1136" 
d="M695 649l-152 510l-156 -510h308zM888 0l-156 517h-384l-156 -517h-135l406 1355h160l406 -1355h-141zM266 1444h164l113 158l113 -158h164l-194 271h-167z" />
    <glyph glyph-name="Atilde" unicode="&#xc3;" horiz-adv-x="1136" 
d="M695 649l-152 510l-156 -510h308zM888 0l-156 517h-384l-156 -517h-135l406 1355h160l406 -1355h-141zM429 1679c34.667 0 76.501 -14 125.501 -42s81.833 -42 98.5 -42c29.333 0 55.333 27 78 81l123 -46c-41.333 -114 -110 -171 -206 -171
c-38 0 -79.833 14.333 -125.5 43s-76.834 43 -93.501 43c-30.667 0 -56.667 -27.333 -78 -82l-123 49c38.667 111.333 105.667 167 201 167z" />
    <glyph glyph-name="Adieresis" unicode="&#xc4;" horiz-adv-x="1136" 
d="M695 649l-152 510l-156 -510h308zM888 0l-156 517h-384l-156 -517h-135l406 1355h160l406 -1355h-141zM615 1555c0 28 9.66699 52.333 29 73s43 31 71 31c27.333 0 50.666 -10.5 69.999 -31.5s29 -45.167 29 -72.5s-9.66699 -50.5 -29 -69.5s-42.666 -28.5 -69.999 -28.5
c-28 0 -51.667 9.5 -71 28.5s-29 42.167 -29 69.5zM256 1555c0 28 9.5 52.333 28.5 73s42.167 31 69.5 31s50.5 -10.5 69.5 -31.5s28.5 -45.167 28.5 -72.5s-9.5 -50.5 -28.5 -69.5s-42.167 -28.5 -69.5 -28.5c-28 0 -51.333 9.33301 -70 28s-28 42 -28 70z" />
    <glyph glyph-name="Aring" unicode="&#xc5;" horiz-adv-x="1136" 
d="M695 649l-152 510l-156 -510h308zM888 0l-156 517h-384l-156 -517h-135l406 1355h160l406 -1355h-141zM539 1642c44.667 0 83 -15.167 115 -45.5s48 -67.833 48 -112.5c0 -44 -16 -81.167 -48 -111.5s-70.333 -45.5 -115 -45.5c-43.333 0 -80.666 15.5 -111.999 46.5
s-47 67.833 -47 110.5c0 43.333 15.667 80.5 47 111.5s68.666 46.5 111.999 46.5zM539 1562c-21.333 0 -39.833 -7.66699 -55.5 -23s-23.5 -33.666 -23.5 -54.999c0 -22 7.66699 -40.333 23 -55s34 -22 56 -22s41.333 7.33301 58 22s25 33 25 55
c0 21.333 -8.5 39.666 -25.5 54.999s-36.167 23 -57.5 23z" />
    <glyph glyph-name="AE" unicode="&#xc6;" horiz-adv-x="1739" 
d="M445 445l-267 -445h-155l804 1355h825v-124h-660v-430h530v-134h-530v-541h660v-126h-794v445h-413zM858 1145l-334 -568h334v568z" />
    <glyph glyph-name="Ccedilla" unicode="&#xc7;" horiz-adv-x="1090" 
d="M57 851c0 142.667 44.333 265 133 367c92.667 107.333 209.334 161 350.001 161c120.667 0 225.334 -41 314.001 -123c84 -78.667 137 -178.667 159 -300h-128c-17.333 86 -57 156 -119 210c-64 55.333 -139.333 83 -226 83c-105.333 0 -191 -38 -257 -114
c-64 -72 -96 -161.333 -96 -268v-377c0 -106.667 32 -196 96 -268c66 -76 151.667 -114 257 -114c86.667 0 162 27.667 226 83c62 54 101.667 124 119 210h128c-22 -121.333 -75 -221.333 -159 -300c-88.667 -82 -193.334 -123 -314.001 -123
c-140.667 0 -257.334 53.667 -350.001 161c-88.667 102 -133 224.333 -133 367v345zM534 -156c0 7.33301 -27.333 38 -82 92l-101 98h129c14 -20 38.333 -39.667 73 -59c38.667 -20.667 64 -37.667 76 -51c23.333 -26 35 -61.667 35 -107c0 -80.667 -57.333 -121 -172 -121
l-68 113c36 9.33301 72.667 21 110 35z" />
    <glyph glyph-name="Egrave" unicode="&#xc8;" horiz-adv-x="930" 
d="M865 1355v-130h-661v-428h531v-130h-531v-537h661v-130h-791v1355h791zM469 1450l-377 268h235l200 -211z" />
    <glyph glyph-name="Eacute" unicode="&#xc9;" horiz-adv-x="930" 
d="M865 1355v-130h-661v-428h531v-130h-531v-537h661v-130h-791v1355h791zM419 1507l200 211h235l-377 -268z" />
    <glyph glyph-name="Ecircumflex" unicode="&#xca;" horiz-adv-x="930" 
d="M865 1355v-130h-661v-428h531v-130h-531v-537h661v-130h-791v1355h791zM177 1456h164l113 158l113 -158h164l-194 271h-167z" />
    <glyph glyph-name="Edieresis" unicode="&#xcb;" horiz-adv-x="930" 
d="M865 1355v-130h-661v-428h531v-130h-531v-537h661v-130h-791v1355h791zM511 1544c0 28 9.66699 52.333 29 73s43 31 71 31c27.333 0 50.666 -10.5 69.999 -31.5s29 -45.167 29 -72.5s-9.66699 -50.5 -29 -69.5s-42.666 -28.5 -69.999 -28.5c-28 0 -51.667 9.5 -71 28.5
s-29 42.167 -29 69.5zM152 1544c0 28 9.5 52.333 28.5 73s42.167 31 69.5 31s50.5 -10.5 69.5 -31.5s28.5 -45.167 28.5 -72.5s-9.5 -50.5 -28.5 -69.5s-42.167 -28.5 -69.5 -28.5c-28 0 -51.333 9.33301 -70 28s-28 42 -28 70z" />
    <glyph glyph-name="Igrave" unicode="&#xcc;" horiz-adv-x="598" 
d="M49 130h171v1096h-171v129h479v-129h-176v-1096h176v-130h-479v130zM379 1453l-377 268h235l200 -211z" />
    <glyph glyph-name="Iacute" unicode="&#xcd;" horiz-adv-x="598" 
d="M49 130h171v1096h-171v129h479v-129h-176v-1096h176v-130h-479v130zM98 1508l200 211h235l-377 -268z" />
    <glyph glyph-name="Icircumflex" unicode="&#xce;" horiz-adv-x="598" 
d="M49 130h171v1096h-171v129h479v-129h-176v-1096h176v-130h-479v130zM11 1450h164l113 158l113 -158h164l-194 271h-167z" />
    <glyph glyph-name="Idieresis" unicode="&#xcf;" horiz-adv-x="598" 
d="M49 130h171v1096h-171v129h479v-129h-176v-1096h176v-130h-479v130zM358 1549c0 28 9.66699 52.333 29 73s43 31 71 31c27.333 0 50.666 -10.5 69.999 -31.5s29 -45.167 29 -72.5s-9.66699 -50.5 -29 -69.5s-42.666 -28.5 -69.999 -28.5c-28 0 -51.667 9.5 -71 28.5
s-29 42.167 -29 69.5zM-1 1549c0 28 9.5 52.333 28.5 73s42.167 31 69.5 31s50.5 -10.5 69.5 -31.5s28.5 -45.167 28.5 -72.5s-9.5 -50.5 -28.5 -69.5s-42.167 -28.5 -69.5 -28.5c-28 0 -51.333 9.33301 -70 28s-28 42 -28 70z" />
    <glyph glyph-name="Eth" unicode="&#xd0;" horiz-adv-x="1181" 
d="M565 126c104.667 0 191.333 41.666 260 124.999c65.333 78 98 170.333 98 277v299c0 106.667 -32.333 199.334 -97 278.001c-69.333 84 -156.333 126 -261 126h-296v-471h232v-134h-232v-500h296zM564.999 1355c100 0 190.334 -30.666 271.001 -91.999
c77.333 -58.667 134.333 -136.334 171 -233.001c24 -63.333 36 -131 36 -203v-299c0 -141.333 -43.667 -263.333 -131 -366c-92.667 -108 -208.334 -162 -347.001 -162h-428v626h-216v134h216v595h428z" />
    <glyph glyph-name="Ntilde" unicode="&#xd1;" horiz-adv-x="1152" 
d="M227 1355l668 -1130v1130h132v-1355h-154l-669 1135v-1135h-132v1355h155zM450 1669c34.667 0 76.501 -14 125.501 -42s81.833 -42 98.5 -42c29.333 0 55.333 27 78 81l123 -46c-41.333 -114 -110 -171 -206 -171c-38 0 -79.833 14.333 -125.5 43s-76.834 43 -93.501 43
c-30.667 0 -56.667 -27.333 -78 -82l-123 49c38.667 111.333 105.667 167 201 167z" />
    <glyph glyph-name="Ograve" unicode="&#xd2;" horiz-adv-x="1118" 
d="M187 490c0 -106.667 32 -196 96 -268c66 -76 151.667 -114 257 -114s191 38 257 114c64 72 96 161.333 96 268v377c0 106.667 -32 196 -96 268c-66 76 -151.667 114 -257 114s-191 -38 -257 -114c-64 -72 -96 -161.333 -96 -268v-377zM1023 506
c0 -142.667 -44.333 -265 -133 -367c-92.667 -107.333 -209.334 -161 -350.001 -161s-257.334 53.667 -350.001 161c-88.667 102 -133 224.333 -133 367v345c0 142.667 44.333 265 133 367c92.667 107.333 209.334 161 350.001 161s257.334 -53.667 350.001 -161
c88.667 -102 133 -224.333 133 -367v-345zM707 1450l-377 268h235l200 -211z" />
    <glyph glyph-name="Oacute" unicode="&#xd3;" horiz-adv-x="1118" 
d="M187 490c0 -106.667 32 -196 96 -268c66 -76 151.667 -114 257 -114s191 38 257 114c64 72 96 161.333 96 268v377c0 106.667 -32 196 -96 268c-66 76 -151.667 114 -257 114s-191 -38 -257 -114c-64 -72 -96 -161.333 -96 -268v-377zM1023 506
c0 -142.667 -44.333 -265 -133 -367c-92.667 -107.333 -209.334 -161 -350.001 -161s-257.334 53.667 -350.001 161c-88.667 102 -133 224.333 -133 367v345c0 142.667 44.333 265 133 367c92.667 107.333 209.334 161 350.001 161s257.334 -53.667 350.001 -161
c88.667 -102 133 -224.333 133 -367v-345zM438 1501l200 211h235l-377 -268z" />
    <glyph glyph-name="Ocircumflex" unicode="&#xd4;" horiz-adv-x="1118" 
d="M187 490c0 -106.667 32 -196 96 -268c66 -76 151.667 -114 257 -114s191 38 257 114c64 72 96 161.333 96 268v377c0 106.667 -32 196 -96 268c-66 76 -151.667 114 -257 114s-191 -38 -257 -114c-64 -72 -96 -161.333 -96 -268v-377zM1023 506
c0 -142.667 -44.333 -265 -133 -367c-92.667 -107.333 -209.334 -161 -350.001 -161s-257.334 53.667 -350.001 161c-88.667 102 -133 224.333 -133 367v345c0 142.667 44.333 265 133 367c92.667 107.333 209.334 161 350.001 161s257.334 -53.667 350.001 -161
c88.667 -102 133 -224.333 133 -367v-345zM267 1456h164l113 158l113 -158h164l-194 271h-167z" />
    <glyph glyph-name="Otilde" unicode="&#xd5;" horiz-adv-x="1118" 
d="M187 490c0 -106.667 32 -196 96 -268c66 -76 151.667 -114 257 -114s191 38 257 114c64 72 96 161.333 96 268v377c0 106.667 -32 196 -96 268c-66 76 -151.667 114 -257 114s-191 -38 -257 -114c-64 -72 -96 -161.333 -96 -268v-377zM1023 506
c0 -142.667 -44.333 -265 -133 -367c-92.667 -107.333 -209.334 -161 -350.001 -161s-257.334 53.667 -350.001 161c-88.667 102 -133 224.333 -133 367v345c0 142.667 44.333 265 133 367c92.667 107.333 209.334 161 350.001 161s257.334 -53.667 350.001 -161
c88.667 -102 133 -224.333 133 -367v-345zM414 1668c34.667 0 76.501 -14 125.501 -42s81.833 -42 98.5 -42c29.333 0 55.333 27 78 81l123 -46c-41.333 -114 -110 -171 -206 -171c-38 0 -79.833 14.333 -125.5 43s-76.834 43 -93.501 43c-30.667 0 -56.667 -27.333 -78 -82
l-123 49c38.667 111.333 105.667 167 201 167z" />
    <glyph glyph-name="Odieresis" unicode="&#xd6;" horiz-adv-x="1118" 
d="M187 490c0 -106.667 32 -196 96 -268c66 -76 151.667 -114 257 -114s191 38 257 114c64 72 96 161.333 96 268v377c0 106.667 -32 196 -96 268c-66 76 -151.667 114 -257 114s-191 -38 -257 -114c-64 -72 -96 -161.333 -96 -268v-377zM1023 506
c0 -142.667 -44.333 -265 -133 -367c-92.667 -107.333 -209.334 -161 -350.001 -161s-257.334 53.667 -350.001 161c-88.667 102 -133 224.333 -133 367v345c0 142.667 44.333 265 133 367c92.667 107.333 209.334 161 350.001 161s257.334 -53.667 350.001 -161
c88.667 -102 133 -224.333 133 -367v-345zM610 1550c0 28 9.66699 52.333 29 73s43 31 71 31c27.333 0 50.666 -10.5 69.999 -31.5s29 -45.167 29 -72.5s-9.66699 -50.5 -29 -69.5s-42.666 -28.5 -69.999 -28.5c-28 0 -51.667 9.5 -71 28.5s-29 42.167 -29 69.5zM251 1550
c0 28 9.5 52.333 28.5 73s42.167 31 69.5 31s50.5 -10.5 69.5 -31.5s28.5 -45.167 28.5 -72.5s-9.5 -50.5 -28.5 -69.5s-42.167 -28.5 -69.5 -28.5c-28 0 -51.333 9.33301 -70 28s-28 42 -28 70z" />
    <glyph glyph-name="multiply" unicode="&#xd7;" horiz-adv-x="1024" 
d="M289 876l199 -199l212 212l92 -93l-211 -212l197 -196l-92 -92l-197 197l-206 -207l-93 93l206 206l-199 200z" />
    <glyph glyph-name="Oslash" unicode="&#xd8;" horiz-adv-x="1079" 
d="M322 171c50.667 -30 107.667 -45.001 171 -45.001c102.667 0 188.667 42 258 126c64.667 78.667 97 170.667 97 276v299c0 86.667 -25.667 169.334 -77 248.001zM486 1231c-102 0 -187.333 -42.667 -256 -128c-64 -79.333 -96 -171.333 -96 -276v-299
c0 -104 28.667 -192.667 86 -266l447 911c-56.667 38.667 -117 58 -181 58zM906 1355l-74 -159c90.667 -103.333 136 -226.333 136 -369v-299c0 -142.667 -44.333 -265 -133 -367c-92.667 -107.333 -209 -161 -349 -161c-76 0 -148.333 20.333 -217 61l-30 -61h-148l69 144
c-99.333 103.333 -149 231.333 -149 384v299c0 140.667 44.667 262.667 134 366c93.333 108 209.333 162 348 162c82 0 159.333 -23 232 -69l35 69h146z" />
    <glyph glyph-name="Ugrave" unicode="&#xd9;" horiz-adv-x="1136" 
d="M195 1355l-0.000976562 -867c0 -104 31.667 -192.333 95 -265c66 -76.667 150.333 -115 253 -115s187.334 39 254.001 117c63.333 73.333 95 162.333 95 267v863h130v-849c0 -140 -44.333 -261.667 -133 -365c-92.667 -108.667 -208 -163 -346 -163
s-253.333 54.333 -346 163c-88 103.333 -132 225 -132 365v849h130zM696.999 1351l-377 268h235l200 -211z" />
    <glyph glyph-name="Uacute" unicode="&#xda;" horiz-adv-x="1136" 
d="M195 1355l-0.000976562 -867c0 -104 31.667 -192.333 95 -265c66 -76.667 150.333 -115 253 -115s187.334 39 254.001 117c63.333 73.333 95 162.333 95 267v863h130v-849c0 -140 -44.333 -261.667 -133 -365c-92.667 -108.667 -208 -163 -346 -163
s-253.333 54.333 -346 163c-88 103.333 -132 225 -132 365v849h130zM307.999 1511l200 211h235l-377 -268z" />
    <glyph glyph-name="Ucircumflex" unicode="&#xdb;" horiz-adv-x="1136" 
d="M195 1355l-0.000976562 -867c0 -104 31.667 -192.333 95 -265c66 -76.667 150.333 -115 253 -115s187.334 39 254.001 117c63.333 73.333 95 162.333 95 267v863h130v-849c0 -140 -44.333 -261.667 -133 -365c-92.667 -108.667 -208 -163 -346 -163
s-253.333 54.333 -346 163c-88 103.333 -132 225 -132 365v849h130zM260.999 1450h164l113 158l113 -158h164l-194 271h-167z" />
    <glyph glyph-name="Udieresis" unicode="&#xdc;" horiz-adv-x="1136" 
d="M195 1355l-0.000976562 -867c0 -104 31.667 -192.333 95 -265c66 -76.667 150.333 -115 253 -115s187.334 39 254.001 117c63.333 73.333 95 162.333 95 267v863h130v-849c0 -140 -44.333 -261.667 -133 -365c-92.667 -108.667 -208 -163 -346 -163
s-253.333 54.333 -346 163c-88 103.333 -132 225 -132 365v849h130zM609.999 1546c0 28 9.66699 52.333 29 73s43 31 71 31c27.333 0 50.666 -10.5 69.999 -31.5s29 -45.167 29 -72.5s-9.66699 -50.5 -29 -69.5s-42.666 -28.5 -69.999 -28.5c-28 0 -51.667 9.5 -71 28.5
s-29 42.167 -29 69.5zM250.999 1546c0 28 9.5 52.333 28.5 73s42.167 31 69.5 31s50.5 -10.5 69.5 -31.5s28.5 -45.167 28.5 -72.5s-9.5 -50.5 -28.5 -69.5s-42.167 -28.5 -69.5 -28.5c-28 0 -51.333 9.33301 -70 28s-28 42 -28 70z" />
    <glyph glyph-name="Yacute" unicode="&#xdd;" horiz-adv-x="1034" 
d="M428 681l-402 674h152l315 -543l318 543h153l-403 -674v-681h-133v681zM267 1504l200 211h235l-377 -268z" />
    <glyph glyph-name="Thorn" unicode="&#xde;" horiz-adv-x="1234" 
d="M662 256c97.333 0 179.833 33.668 247.5 101.001s101.5 149.666 101.5 246.999s-33.833 179.833 -101.5 247.5s-150.167 101.5 -247.5 101.5s-178.5 -33.667 -243.5 -101s-97.5 -150 -97.5 -248s32.5 -180.5 97.5 -247.5s146.167 -100.5 243.5 -100.5zM1136 618.001
c0 -138 -47.167 -253.501 -141.5 -346.501s-206.5 -139.5 -336.5 -139.5c-146.667 0 -262 58 -346 174v-502h115v-141h-366v141h119v814h-1v799h-119v141h366v-141h-115v-502c84 116 199.333 174 346 174c130 0 242.333 -46.667 337 -140s142 -203.666 142 -330.999z" />
    <glyph glyph-name="germandbls" unicode="&#xdf;" 
 />
    <glyph glyph-name="agrave" unicode="&#xe0;" horiz-adv-x="1111" 
d="M522 108c60 0 120.33 10.334 180.997 31.001c81.333 27.333 122 64.666 122 111.999v220c-1.33301 -10 -58.666 -16.667 -171.999 -20c-89.333 -3.33301 -153.666 -9.33301 -192.999 -18c-73.333 -15.333 -127.666 -46 -162.999 -92c-24.667 -32 -37 -62 -37 -90
c0 -95.333 87.333 -143 262 -143zM824.997 705.001c0 44 -33.668 81.0039 -101.001 111.004c-55.333 24 -108.333 36 -159 36c-166 0 -269 -58 -309 -174l-126 27c18 94.667 69.667 165.667 155 213c72 40.667 160.333 61 265 61c86.667 0 171.334 -20 254.001 -60
c100.667 -48.667 151 -111.334 151 -188.001v-579c0 -26.667 16 -41.334 48 -44.001c-1.33301 -21.333 -3 -64.333 -5 -129c-72 4 -122.333 33 -151 87c-82 -58.667 -188 -88 -318 -88c-271.333 0 -407 91.667 -407 275c0 49.333 16.667 98.666 50 147.999
c47.333 71.333 113.333 118 198 140c42 11.333 118 18.333 228 21c92 2.66699 158.333 15 199 37c17.333 9.33301 27 24.666 29 45.999c-0.666992 -7.33301 -1 12.667 -1 60zM562.996 1087l-377 268h235l200 -211z" />
    <glyph glyph-name="aacute" unicode="&#xe1;" horiz-adv-x="1111" 
d="M522 108c60 0 120.33 10.334 180.997 31.001c81.333 27.333 122 64.666 122 111.999v220c-1.33301 -10 -58.666 -16.667 -171.999 -20c-89.333 -3.33301 -153.666 -9.33301 -192.999 -18c-73.333 -15.333 -127.666 -46 -162.999 -92c-24.667 -32 -37 -62 -37 -90
c0 -95.333 87.333 -143 262 -143zM824.997 705.001c0 44 -33.668 81.0039 -101.001 111.004c-55.333 24 -108.333 36 -159 36c-166 0 -269 -58 -309 -174l-126 27c18 94.667 69.667 165.667 155 213c72 40.667 160.333 61 265 61c86.667 0 171.334 -20 254.001 -60
c100.667 -48.667 151 -111.334 151 -188.001v-579c0 -26.667 16 -41.334 48 -44.001c-1.33301 -21.333 -3 -64.333 -5 -129c-72 4 -122.333 33 -151 87c-82 -58.667 -188 -88 -318 -88c-271.333 0 -407 91.667 -407 275c0 49.333 16.667 98.666 50 147.999
c47.333 71.333 113.333 118 198 140c42 11.333 118 18.333 228 21c92 2.66699 158.333 15 199 37c17.333 9.33301 27 24.666 29 45.999c-0.666992 -7.33301 -1 12.667 -1 60zM457.996 1144l200 211h235l-377 -268z" />
    <glyph glyph-name="acircumflex" unicode="&#xe2;" horiz-adv-x="1111" 
d="M522 108c60 0 120.33 10.334 180.997 31.001c81.333 27.333 122 64.666 122 111.999v220c-1.33301 -10 -58.666 -16.667 -171.999 -20c-89.333 -3.33301 -153.666 -9.33301 -192.999 -18c-73.333 -15.333 -127.666 -46 -162.999 -92c-24.667 -32 -37 -62 -37 -90
c0 -95.333 87.333 -143 262 -143zM824.997 705.001c0 44 -33.668 81.0039 -101.001 111.004c-55.333 24 -108.333 36 -159 36c-166 0 -269 -58 -309 -174l-126 27c18 94.667 69.667 165.667 155 213c72 40.667 160.333 61 265 61c86.667 0 171.334 -20 254.001 -60
c100.667 -48.667 151 -111.334 151 -188.001v-579c0 -26.667 16 -41.334 48 -44.001c-1.33301 -21.333 -3 -64.333 -5 -129c-72 4 -122.333 33 -151 87c-82 -58.667 -188 -88 -318 -88c-271.333 0 -407 91.667 -407 275c0 49.333 16.667 98.666 50 147.999
c47.333 71.333 113.333 118 198 140c42 11.333 118 18.333 228 21c92 2.66699 158.333 15 199 37c17.333 9.33301 27 24.666 29 45.999c-0.666992 -7.33301 -1 12.667 -1 60zM242.996 1083h164l113 158l113 -158h164l-194 271h-167z" />
    <glyph glyph-name="atilde" unicode="&#xe3;" horiz-adv-x="1111" 
d="M522 108c60 0 120.33 10.334 180.997 31.001c81.333 27.333 122 64.666 122 111.999v220c-1.33301 -10 -58.666 -16.667 -171.999 -20c-89.333 -3.33301 -153.666 -9.33301 -192.999 -18c-73.333 -15.333 -127.666 -46 -162.999 -92c-24.667 -32 -37 -62 -37 -90
c0 -95.333 87.333 -143 262 -143zM824.997 705.001c0 44 -33.668 81.0039 -101.001 111.004c-55.333 24 -108.333 36 -159 36c-166 0 -269 -58 -309 -174l-126 27c18 94.667 69.667 165.667 155 213c72 40.667 160.333 61 265 61c86.667 0 171.334 -20 254.001 -60
c100.667 -48.667 151 -111.334 151 -188.001v-579c0 -26.667 16 -41.334 48 -44.001c-1.33301 -21.333 -3 -64.333 -5 -129c-72 4 -122.333 33 -151 87c-82 -58.667 -188 -88 -318 -88c-271.333 0 -407 91.667 -407 275c0 49.333 16.667 98.666 50 147.999
c47.333 71.333 113.333 118 198 140c42 11.333 118 18.333 228 21c92 2.66699 158.333 15 199 37c17.333 9.33301 27 24.666 29 45.999c-0.666992 -7.33301 -1 12.667 -1 60zM413.996 1309c34.667 0 76.501 -14 125.501 -42s81.833 -42 98.5 -42c29.333 0 55.333 27 78 81
l123 -46c-41.333 -114 -110 -171 -206 -171c-38 0 -79.833 14.333 -125.5 43s-76.834 43 -93.501 43c-30.667 0 -56.667 -27.333 -78 -82l-123 49c38.667 111.333 105.667 167 201 167z" />
    <glyph glyph-name="adieresis" unicode="&#xe4;" horiz-adv-x="1111" 
d="M522 108c60 0 120.33 10.334 180.997 31.001c81.333 27.333 122 64.666 122 111.999v220c-1.33301 -10 -58.666 -16.667 -171.999 -20c-89.333 -3.33301 -153.666 -9.33301 -192.999 -18c-73.333 -15.333 -127.666 -46 -162.999 -92c-24.667 -32 -37 -62 -37 -90
c0 -95.333 87.333 -143 262 -143zM824.997 705.001c0 44 -33.668 81.0039 -101.001 111.004c-55.333 24 -108.333 36 -159 36c-166 0 -269 -58 -309 -174l-126 27c18 94.667 69.667 165.667 155 213c72 40.667 160.333 61 265 61c86.667 0 171.334 -20 254.001 -60
c100.667 -48.667 151 -111.334 151 -188.001v-579c0 -26.667 16 -41.334 48 -44.001c-1.33301 -21.333 -3 -64.333 -5 -129c-72 4 -122.333 33 -151 87c-82 -58.667 -188 -88 -318 -88c-271.333 0 -407 91.667 -407 275c0 49.333 16.667 98.666 50 147.999
c47.333 71.333 113.333 118 198 140c42 11.333 118 18.333 228 21c92 2.66699 158.333 15 199 37c17.333 9.33301 27 24.666 29 45.999c-0.666992 -7.33301 -1 12.667 -1 60zM602.996 1186c0 28 9.66699 52.333 29 73s43 31 71 31c27.333 0 50.666 -10.5 69.999 -31.5
s29 -45.167 29 -72.5s-9.66699 -50.5 -29 -69.5s-42.666 -28.5 -69.999 -28.5c-28 0 -51.667 9.5 -71 28.5s-29 42.167 -29 69.5zM243.996 1186c0 28 9.5 52.333 28.5 73s42.167 31 69.5 31s50.5 -10.5 69.5 -31.5s28.5 -45.167 28.5 -72.5s-9.5 -50.5 -28.5 -69.5
s-42.167 -28.5 -69.5 -28.5c-28 0 -51.333 9.33301 -70 28s-28 42 -28 70z" />
    <glyph glyph-name="aring" unicode="&#xe5;" horiz-adv-x="1111" 
d="M522 108c60 0 120.33 10.334 180.997 31.001c81.333 27.333 122 64.666 122 111.999v220c-1.33301 -10 -58.666 -16.667 -171.999 -20c-89.333 -3.33301 -153.666 -9.33301 -192.999 -18c-73.333 -15.333 -127.666 -46 -162.999 -92c-24.667 -32 -37 -62 -37 -90
c0 -95.333 87.333 -143 262 -143zM824.997 705.001c0 44 -33.668 81.0039 -101.001 111.004c-55.333 24 -108.333 36 -159 36c-166 0 -269 -58 -309 -174l-126 27c18 94.667 69.667 165.667 155 213c72 40.667 160.333 61 265 61c86.667 0 171.334 -20 254.001 -60
c100.667 -48.667 151 -111.334 151 -188.001v-579c0 -26.667 16 -41.334 48 -44.001c-1.33301 -21.333 -3 -64.333 -5 -129c-72 4 -122.333 33 -151 87c-82 -58.667 -188 -88 -318 -88c-271.333 0 -407 91.667 -407 275c0 49.333 16.667 98.666 50 147.999
c47.333 71.333 113.333 118 198 140c42 11.333 118 18.333 228 21c92 2.66699 158.333 15 199 37c17.333 9.33301 27 24.666 29 45.999c-0.666992 -7.33301 -1 12.667 -1 60zM544.996 1400c44.667 0 83 -15.167 115 -45.5s48 -67.833 48 -112.5
c0 -44 -16 -81.167 -48 -111.5s-70.333 -45.5 -115 -45.5c-43.333 0 -80.666 15.5 -111.999 46.5s-47 67.833 -47 110.5c0 43.333 15.667 80.5 47 111.5s68.666 46.5 111.999 46.5zM544.996 1320c-21.333 0 -39.833 -7.66699 -55.5 -23s-23.5 -33.666 -23.5 -54.999
c0 -22 7.66699 -40.333 23 -55s34 -22 56 -22s41.333 7.33301 58 22s25 33 25 55c0 21.333 -8.5 39.666 -25.5 54.999s-36.167 23 -57.5 23z" />
    <glyph glyph-name="ae" unicode="&#xe6;" horiz-adv-x="1887" 
d="M1302 827c-72 0 -138.669 -21.5 -200.002 -64.5s-105 -98.167 -131 -165.5h663c-25.333 68.667 -68.666 124.167 -129.999 166.5s-128.666 63.5 -201.999 63.5zM431.998 0c-96 0 -181 29.002 -255 87.002c-79.333 62.667 -119 141 -119 235c0 68.667 23 131.167 69 187.5
s103.667 94.5 173 114.5c49.333 14 119.333 21 210 21c131.333 0 234.666 7.33301 309.999 22c-2.66699 45.333 -19.834 82.666 -51.501 111.999s-70.167 44 -115.5 44h-259c-45.333 0 -84.333 -16.5 -117 -49.5s-49 -72.167 -49 -117.5h-133
c0 82.667 29.167 153.5 87.5 212.5s128.833 88.5 211.5 88.5h259c59.333 0 114.5 -16.167 165.5 -48.5s88.5 -75.5 112.5 -129.5c98 118.667 221.667 178 371 178c138.667 0 253.334 -47.5 344.001 -142.5s136 -212.167 136 -351.5h-829v-4c0 -90 39 -168 117 -234
c74.667 -63.333 157.334 -95 248.001 -95c68 0 133.333 18 196 54s108.667 83.667 138 143l130 -23c-34.667 -90.667 -96.667 -164.334 -186 -221.001c-86 -55.333 -178.667 -83 -278 -83c-120 -0 -222.667 35.333 -308 106v-4c-20.667 23.333 -47 35 -79 35
c-30 0 -57.667 -13 -83 -39c-64 -65.333 -155.667 -98 -275 -98h-141zM572.998 134.002c60 0 114.335 16.002 163.002 48.002c56 36 84 82.667 84 140v206c-34.667 -8.66699 -76.334 -14.334 -125.001 -17.001c-35.333 -2 -80.333 -2.33301 -135 -1
c-81.333 1.33301 -124 2 -128 2c-60 0 -113.333 -16.333 -160 -49c-52.667 -36.667 -79 -83.667 -79 -141c0 -56.667 26.333 -103.334 79 -140.001c47.333 -32 100.666 -48 159.999 -48h141z" />
    <glyph glyph-name="ccedilla" unicode="&#xe7;" horiz-adv-x="971" 
d="M529 979c90.667 0 174.332 -25.3311 250.999 -75.998c74 -48.667 132.333 -114.667 175 -198h-152c-71.333 96 -162.666 144 -273.999 144c-98 0 -181 -38 -249 -114c-66 -72.667 -99 -158.667 -99 -258c0 -98.667 33 -184.334 99 -257.001
c68.667 -74.667 151.667 -112 249 -112c100 0 188.667 44 266 132h155c-98 -174.667 -238.333 -262 -421 -262c-132 0 -245 50.667 -339 152c-92.667 99.333 -139 215.333 -139 348c0 133.333 46.5 250.166 139.5 350.499s205.833 150.5 338.5 150.5zM563.998 -158.998
c0 7.33301 -27.333 38 -82 92l-101 98h129c14 -20 38.333 -39.667 73 -59c38.667 -20.667 64 -37.667 76 -51c23.333 -26 35 -61.667 35 -107c0 -80.667 -57.333 -121 -172 -121l-68 113c36 9.33301 72.667 21 110 35z" />
    <glyph glyph-name="egrave" unicode="&#xe8;" horiz-adv-x="1106" 
d="M176 463c4 -94.667 40.666 -176.998 109.999 -246.998c70.667 -72 153 -108 247 -108c68.667 0 136.334 21 203.001 63s114.667 94 144 156l130 -23c-37.333 -92.667 -101.5 -170.167 -192.5 -232.5s-185.833 -93.5 -284.5 -93.5c-132.667 0 -246.667 50 -342 150
s-143 216.667 -143 350s47.667 250.166 143 350.499s209.333 150.5 342 150.5c136.667 0 251.667 -52.333 345 -157c90 -100.667 135 -220.334 135 -359.001h-837zM532.999 849.002c-73.333 0 -142.333 -25.667 -207 -77c-60.667 -48 -105 -107.667 -133 -179h670
c-24 72 -65.667 132.333 -125 181c-62.667 50 -131 75 -205 75zM556.999 1087l-377 268h235l200 -211z" />
    <glyph glyph-name="eacute" unicode="&#xe9;" horiz-adv-x="1106" 
d="M176 463c4 -94.667 40.666 -176.998 109.999 -246.998c70.667 -72 153 -108 247 -108c68.667 0 136.334 21 203.001 63s114.667 94 144 156l130 -23c-37.333 -92.667 -101.5 -170.167 -192.5 -232.5s-185.833 -93.5 -284.5 -93.5c-132.667 0 -246.667 50 -342 150
s-143 216.667 -143 350s47.667 250.166 143 350.499s209.333 150.5 342 150.5c136.667 0 251.667 -52.333 345 -157c90 -100.667 135 -220.334 135 -359.001h-837zM532.999 849.002c-73.333 0 -142.333 -25.667 -207 -77c-60.667 -48 -105 -107.667 -133 -179h670
c-24 72 -65.667 132.333 -125 181c-62.667 50 -131 75 -205 75zM450.999 1144l200 211h235l-377 -268z" />
    <glyph glyph-name="ecircumflex" unicode="&#xea;" horiz-adv-x="1106" 
d="M176 463c4 -94.667 40.666 -176.998 109.999 -246.998c70.667 -72 153 -108 247 -108c68.667 0 136.334 21 203.001 63s114.667 94 144 156l130 -23c-37.333 -92.667 -101.5 -170.167 -192.5 -232.5s-185.833 -93.5 -284.5 -93.5c-132.667 0 -246.667 50 -342 150
s-143 216.667 -143 350s47.667 250.166 143 350.499s209.333 150.5 342 150.5c136.667 0 251.667 -52.333 345 -157c90 -100.667 135 -220.334 135 -359.001h-837zM532.999 849.002c-73.333 0 -142.333 -25.667 -207 -77c-60.667 -48 -105 -107.667 -133 -179h670
c-24 72 -65.667 132.333 -125 181c-62.667 50 -131 75 -205 75zM265.999 1084h164l113 158l113 -158h164l-194 271h-167z" />
    <glyph glyph-name="edieresis" unicode="&#xeb;" horiz-adv-x="1106" 
d="M176 463c4 -94.667 40.666 -176.998 109.999 -246.998c70.667 -72 153 -108 247 -108c68.667 0 136.334 21 203.001 63s114.667 94 144 156l130 -23c-37.333 -92.667 -101.5 -170.167 -192.5 -232.5s-185.833 -93.5 -284.5 -93.5c-132.667 0 -246.667 50 -342 150
s-143 216.667 -143 350s47.667 250.166 143 350.499s209.333 150.5 342 150.5c136.667 0 251.667 -52.333 345 -157c90 -100.667 135 -220.334 135 -359.001h-837zM532.999 849.002c-73.333 0 -142.333 -25.667 -207 -77c-60.667 -48 -105 -107.667 -133 -179h670
c-24 72 -65.667 132.333 -125 181c-62.667 50 -131 75 -205 75zM591.999 1174c0 28 9.66699 52.333 29 73s43 31 71 31c27.333 0 50.666 -10.5 69.999 -31.5s29 -45.167 29 -72.5s-9.66699 -50.5 -29 -69.5s-42.666 -28.5 -69.999 -28.5c-28 0 -51.667 9.5 -71 28.5
s-29 42.167 -29 69.5zM232.999 1174c0 28 9.5 52.333 28.5 73s42.167 31 69.5 31s50.5 -10.5 69.5 -31.5s28.5 -45.167 28.5 -72.5s-9.5 -50.5 -28.5 -69.5s-42.167 -28.5 -69.5 -28.5c-28 0 -51.333 9.33301 -70 28s-28 42 -28 70z" />
    <glyph glyph-name="igrave" unicode="&#xec;" horiz-adv-x="476" 
d="M405 1095l-377 268h235l200 -211zM176 957h257v-957h-130v827h-127v130z" />
    <glyph glyph-name="iacute" unicode="&#xed;" horiz-adv-x="453" 
d="M24 1150l200 211h235l-377 -268zM176 957h257v-957h-130v827h-127v130z" />
    <glyph glyph-name="icircumflex" unicode="&#xee;" horiz-adv-x="692" 
d="M96 1084h164l113 158l113 -158h164l-194 271h-167zM233 957h257v-957h-130v827h-127v130z" />
    <glyph glyph-name="idieresis" unicode="&#xef;" horiz-adv-x="692" 
d="M464 1169c0 28 9.66699 52.333 29 73s43 31 71 31c27.333 0 50.666 -10.5 69.999 -31.5s29 -45.167 29 -72.5s-9.66699 -50.5 -29 -69.5s-42.666 -28.5 -69.999 -28.5c-28 0 -51.667 9.5 -71 28.5s-29 42.167 -29 69.5zM105 1169c0 28 9.5 52.333 28.5 73
s42.167 31 69.5 31s50.5 -10.5 69.5 -31.5s28.5 -45.167 28.5 -72.5s-9.5 -50.5 -28.5 -69.5s-42.167 -28.5 -69.5 -28.5c-28 0 -51.333 9.33301 -70 28s-28 42 -28 70zM244 957h257v-957h-130v827h-127v130z" />
    <glyph glyph-name="eth" unicode="&#xf0;" horiz-adv-x="1024" 
d="M504 648c-42 0 -80.667 -6.66602 -116 -19.999c-120 -45.333 -180 -126 -180 -242v-16c0 -78 33 -140.667 99 -188c58.667 -42 128.667 -63 210 -63h2c89.333 0 161.333 23.333 216 70c58 49.333 87 118 87 206c0 35.333 -7.66699 68.666 -23 99.999
c-50 102 -138.667 153 -266 153h-29zM536 1144c-61.333 44.667 -128.001 67.0029 -200.001 67.0029h-50v133h50c120.667 0 235.334 -45 344.001 -135l237 105l56 -122l-201 -88c58 -78.667 102 -165.334 132 -260.001c33.333 -107.333 50 -238 50 -392v-72
c0 -52.667 -11.667 -103.334 -35 -152.001c-36.667 -75.333 -91.167 -134 -163.5 -176s-151.5 -63 -237.5 -63c-116.667 0 -218 35.333 -304 106c-92 76 -138 171 -138 285c0 56 11.667 107.667 35 155c36.667 74 92.667 133.333 168 178
c68.667 40 148.334 61.667 239.001 65c101.333 4 191.333 -24 270 -84c-10.667 147.333 -60.334 263.666 -149.001 348.999l-199 -90l-56 122z" />
    <glyph glyph-name="ntilde" unicode="&#xf1;" horiz-adv-x="1103" 
d="M74 957l130 0.000976562v-174c76.667 130.667 190.334 196 341.001 196c144.667 0 257 -46.667 337 -140c74.667 -87.333 112 -205 112 -353v-486h-132v478c0 110 -24.667 197.333 -74 262c-54.667 72.667 -135.667 109 -243 109c-100.667 0 -183.334 -37 -248.001 -111
c-62 -70.667 -93 -157.334 -93 -260.001v-478h-130v957zM424 1310c34.667 0 76.501 -14 125.501 -42s81.833 -42 98.5 -42c29.333 0 55.333 27 78 81l123 -46c-41.333 -114 -110 -171 -206 -171c-38 0 -79.833 14.333 -125.5 43s-76.834 43 -93.501 43
c-30.667 0 -56.667 -27.333 -78 -82l-123 49c38.667 111.333 105.667 167 201 167z" />
    <glyph glyph-name="ograve" unicode="&#xf2;" horiz-adv-x="1111" 
d="M530 849c-98 0 -180.999 -38 -248.999 -114c-66 -73.333 -99 -159.333 -99 -258s33 -184.334 99 -257.001c68.667 -74.667 151.667 -112 249 -112s180.666 37.333 249.999 112c67.333 73.333 101 159 101 257c0 98.667 -34 185.334 -102 260.001s-151 112 -249 112z
M530.001 979c132.667 0 246 -50.332 340 -150.999s141 -217.667 141 -351c0 -132.667 -46.667 -248.667 -140 -348c-95.333 -100.667 -209 -151 -341 -151s-245 50.667 -339 152c-92.667 99.333 -139 215.333 -139 348c0 133.333 46.5 250.166 139.5 350.499
s205.833 150.5 338.5 150.5zM507.001 1087l-377 268h235l200 -211z" />
    <glyph glyph-name="oacute" unicode="&#xf3;" horiz-adv-x="1111" 
d="M530 849c-98 0 -180.999 -38 -248.999 -114c-66 -73.333 -99 -159.333 -99 -258s33 -184.334 99 -257.001c68.667 -74.667 151.667 -112 249 -112s180.666 37.333 249.999 112c67.333 73.333 101 159 101 257c0 98.667 -34 185.334 -102 260.001s-151 112 -249 112z
M530.001 979c132.667 0 246 -50.332 340 -150.999s141 -217.667 141 -351c0 -132.667 -46.667 -248.667 -140 -348c-95.333 -100.667 -209 -151 -341 -151s-245 50.667 -339 152c-92.667 99.333 -139 215.333 -139 348c0 133.333 46.5 250.166 139.5 350.499
s205.833 150.5 338.5 150.5zM451.001 1144l200 211h235l-377 -268z" />
    <glyph glyph-name="ocircumflex" unicode="&#xf4;" horiz-adv-x="1111" 
d="M530 849c-98 0 -180.999 -38 -248.999 -114c-66 -73.333 -99 -159.333 -99 -258s33 -184.334 99 -257.001c68.667 -74.667 151.667 -112 249 -112s180.666 37.333 249.999 112c67.333 73.333 101 159 101 257c0 98.667 -34 185.334 -102 260.001s-151 112 -249 112z
M530.001 979c132.667 0 246 -50.332 340 -150.999s141 -217.667 141 -351c0 -132.667 -46.667 -248.667 -140 -348c-95.333 -100.667 -209 -151 -341 -151s-245 50.667 -339 152c-92.667 99.333 -139 215.333 -139 348c0 133.333 46.5 250.166 139.5 350.499
s205.833 150.5 338.5 150.5zM259.001 1084h164l113 158l113 -158h164l-194 271h-167z" />
    <glyph glyph-name="otilde" unicode="&#xf5;" horiz-adv-x="1111" 
d="M530 849c-98 0 -180.999 -38 -248.999 -114c-66 -73.333 -99 -159.333 -99 -258s33 -184.334 99 -257.001c68.667 -74.667 151.667 -112 249 -112s180.666 37.333 249.999 112c67.333 73.333 101 159 101 257c0 98.667 -34 185.334 -102 260.001s-151 112 -249 112z
M530.001 979c132.667 0 246 -50.332 340 -150.999s141 -217.667 141 -351c0 -132.667 -46.667 -248.667 -140 -348c-95.333 -100.667 -209 -151 -341 -151s-245 50.667 -339 152c-92.667 99.333 -139 215.333 -139 348c0 133.333 46.5 250.166 139.5 350.499
s205.833 150.5 338.5 150.5zM413.001 1303c34.667 0 76.501 -14 125.501 -42s81.833 -42 98.5 -42c29.333 0 55.333 27 78 81l123 -46c-41.333 -114 -110 -171 -206 -171c-38 0 -79.833 14.333 -125.5 43s-76.834 43 -93.501 43c-30.667 0 -56.667 -27.333 -78 -82l-123 49
c38.667 111.333 105.667 167 201 167z" />
    <glyph glyph-name="odieresis" unicode="&#xf6;" horiz-adv-x="1111" 
d="M530 849c-98 0 -180.999 -38 -248.999 -114c-66 -73.333 -99 -159.333 -99 -258s33 -184.334 99 -257.001c68.667 -74.667 151.667 -112 249 -112s180.666 37.333 249.999 112c67.333 73.333 101 159 101 257c0 98.667 -34 185.334 -102 260.001s-151 112 -249 112z
M530.001 979c132.667 0 246 -50.332 340 -150.999s141 -217.667 141 -351c0 -132.667 -46.667 -248.667 -140 -348c-95.333 -100.667 -209 -151 -341 -151s-245 50.667 -339 152c-92.667 99.333 -139 215.333 -139 348c0 133.333 46.5 250.166 139.5 350.499
s205.833 150.5 338.5 150.5zM601.001 1188c0 28 9.66699 52.333 29 73s43 31 71 31c27.333 0 50.666 -10.5 69.999 -31.5s29 -45.167 29 -72.5s-9.66699 -50.5 -29 -69.5s-42.666 -28.5 -69.999 -28.5c-28 0 -51.667 9.5 -71 28.5s-29 42.167 -29 69.5zM242.001 1188
c0 28 9.5 52.333 28.5 73s42.167 31 69.5 31s50.5 -10.5 69.5 -31.5s28.5 -45.167 28.5 -72.5s-9.5 -50.5 -28.5 -69.5s-42.167 -28.5 -69.5 -28.5c-28 0 -51.333 9.33301 -70 28s-28 42 -28 70z" />
    <glyph glyph-name="divide" unicode="&#xf7;" horiz-adv-x="1055" 
d="M391 126c0 30 10.834 55.833 32.501 77.5s47.5 32.5 77.5 32.5s56 -10.833 78 -32.5s33 -47.5 33 -77.5c0 -30.667 -10.833 -57 -32.5 -79s-47.834 -33 -78.501 -33s-56.667 11 -78 33s-32 48.333 -32 79zM391.001 760c0 30.667 10.667 56.499 32 77.499
s47.333 31.5 78 31.5c30 0 56 -10.667 78 -32s33 -47 33 -77s-11 -56 -33 -78s-48 -33 -78 -33c-30.667 0 -56.667 10.833 -78 32.5s-32 47.834 -32 78.501zM11.001 513.999h1007v-130h-1007v130z" />
    <glyph glyph-name="oslash" unicode="&#xf8;" horiz-adv-x="1172" 
d="M467 148c28.667 -12 68.001 -17.998 118.001 -17.998c97.333 0 179.666 33.667 246.999 101s101 149.666 101 246.999c0 101.333 -36.333 184.666 -109 249.999zM585.001 827.002c-98 0 -180.833 -33.833 -248.5 -101.5s-101.5 -150.167 -101.5 -247.5
c0 -111.333 41 -201 123 -269l362 592c-47.333 17.333 -92.333 26 -135 26zM585.001 957.002c62 0 128.666 -14.667 199.999 -44l32 44h146l-72 -113c114.667 -97.333 172 -219.333 172 -366c0 -132.667 -46.5 -245.5 -139.5 -338.5s-205.833 -139.5 -338.5 -139.5
c-71.333 0 -133.666 12.333 -186.999 37l-22 -37h-148l60 98c-120.667 94 -181 220.667 -181 380c0 133.333 46.333 246.5 139 339.5s205.667 139.5 339 139.5z" />
    <glyph glyph-name="ugrave" unicode="&#xf9;" horiz-adv-x="1026" 
d="M904 0l-129.998 -0.000976562v137c-72.667 -106 -169.667 -159 -291 -159c-134.667 0 -239.334 47.333 -314.001 142c-68 86 -102 198 -102 336v501h130v-501c0 -93.333 24 -172.666 72 -237.999c53.333 -73.333 124.666 -110 213.999 -110c97.333 0 172 38.667 224 116
c44.667 67.333 67 152 67 254v479h130v-957zM555.002 1087l-377 268h235l200 -211z" />
    <glyph glyph-name="uacute" unicode="&#xfa;" horiz-adv-x="1026" 
d="M904 0l-129.998 -0.000976562v137c-72.667 -106 -169.667 -159 -291 -159c-134.667 0 -239.334 47.333 -314.001 142c-68 86 -102 198 -102 336v501h130v-501c0 -93.333 24 -172.666 72 -237.999c53.333 -73.333 124.666 -110 213.999 -110c97.333 0 172 38.667 224 116
c44.667 67.333 67 152 67 254v479h130v-957zM313.002 1144l200 211h235l-377 -268z" />
    <glyph glyph-name="ucircumflex" unicode="&#xfb;" horiz-adv-x="1026" 
d="M904 0l-129.998 -0.000976562v137c-72.667 -106 -169.667 -159 -291 -159c-134.667 0 -239.334 47.333 -314.001 142c-68 86 -102 198 -102 336v501h130v-501c0 -93.333 24 -172.666 72 -237.999c53.333 -73.333 124.666 -110 213.999 -110c97.333 0 172 38.667 224 116
c44.667 67.333 67 152 67 254v479h130v-957zM210.002 1087h164l113 158l113 -158h164l-194 271h-167z" />
    <glyph glyph-name="udieresis" unicode="&#xfc;" horiz-adv-x="1026" 
d="M904 0l-129.998 -0.000976562v137c-72.667 -106 -169.667 -159 -291 -159c-134.667 0 -239.334 47.333 -314.001 142c-68 86 -102 198 -102 336v501h130v-501c0 -93.333 24 -172.666 72 -237.999c53.333 -73.333 124.666 -110 213.999 -110c97.333 0 172 38.667 224 116
c44.667 67.333 67 152 67 254v479h130v-957zM562.002 1175c0 28 9.66699 52.333 29 73s43 31 71 31c27.333 0 50.666 -10.5 69.999 -31.5s29 -45.167 29 -72.5s-9.66699 -50.5 -29 -69.5s-42.666 -28.5 -69.999 -28.5c-28 0 -51.667 9.5 -71 28.5s-29 42.167 -29 69.5z
M203.002 1175c0 28 9.5 52.333 28.5 73s42.167 31 69.5 31s50.5 -10.5 69.5 -31.5s28.5 -45.167 28.5 -72.5s-9.5 -50.5 -28.5 -69.5s-42.167 -28.5 -69.5 -28.5c-28 0 -51.333 9.33301 -70 28s-28 42 -28 70z" />
    <glyph glyph-name="yacute" unicode="&#xfd;" horiz-adv-x="1090" 
d="M253 -269c88 -1.33301 142.333 23.667 163 75l103 259l-486 892h148l400 -735l292 735h140l-458 -1151c-55.333 -138.667 -152 -207 -290 -205h-12v130zM354 1144l200 211h235l-377 -268z" />
    <glyph glyph-name="thorn" unicode="&#xfe;" horiz-adv-x="1256" 
d="M670 387c97.333 0 179.833 33.668 247.5 101.001s101.5 149.666 101.5 246.999s-33.833 179.833 -101.5 247.5s-150.167 101.5 -247.5 101.5s-178.5 -33.667 -243.5 -101s-97.5 -150 -97.5 -248s32.5 -180.5 97.5 -247.5s146.167 -100.5 243.5 -100.5zM1144 749.001
c0 -134.667 -46 -249.334 -138 -344.001s-205.333 -142 -340 -142c-146.667 0 -262 58 -346 174v-600h115v-141h-366v141h119v912h-1v701h-119v141h165l88 -141h-2v-404c84 116 199.333 174 346 174c130 0 242.333 -46.167 337 -138.5s142 -203.166 142 -332.499z" />
    <glyph glyph-name="ydieresis" unicode="&#xff;" horiz-adv-x="1090" 
d="M253 -269c88 -1.33301 142.333 23.667 163 75l103 259l-486 892h148l400 -735l292 735h140l-458 -1151c-55.333 -138.667 -152 -207 -290 -205h-12v130zM649 1182c0 28 9.66699 52.333 29 73s43 31 71 31c27.333 0 50.666 -10.5 69.999 -31.5s29 -45.167 29 -72.5
s-9.66699 -50.5 -29 -69.5s-42.666 -28.5 -69.999 -28.5c-28 0 -51.667 9.5 -71 28.5s-29 42.167 -29 69.5zM290 1182c0 28 9.5 52.333 28.5 73s42.167 31 69.5 31s50.5 -10.5 69.5 -31.5s28.5 -45.167 28.5 -72.5s-9.5 -50.5 -28.5 -69.5s-42.167 -28.5 -69.5 -28.5
c-28 0 -51.333 9.33301 -70 28s-28 42 -28 70z" />
    <glyph glyph-name="Amacron" unicode="&#x100;" horiz-adv-x="1150" 
d="M695 649l-152 510l-156 -510h308zM888 0l-156 517h-384l-156 -517h-135l406 1355h160l406 -1355h-141zM276 1585h523v-130h-523v130z" />
    <glyph glyph-name="amacron" unicode="&#x101;" horiz-adv-x="1066" 
d="M497 108c60 0 120.33 10.334 180.997 31.001c81.333 27.333 122 64.666 122 111.999v220c-1.33301 -10 -58.666 -16.667 -171.999 -20c-89.333 -3.33301 -153.666 -9.33301 -192.999 -18c-73.333 -15.333 -127.666 -46 -162.999 -92c-24.667 -32 -37 -62 -37 -90
c0 -95.333 87.333 -143 262 -143zM799.997 705.001c0 44 -33.668 81.0039 -101.001 111.004c-55.333 24 -108.333 36 -159 36c-166 0 -269 -58 -309 -174l-126 27c18 94.667 69.667 165.667 155 213c72 40.667 160.333 61 265 61c86.667 0 171.334 -20 254.001 -60
c100.667 -48.667 151 -111.334 151 -188.001v-579c0 -26.667 16 -41.334 48 -44.001c-1.33301 -21.333 -3 -64.333 -5 -129c-72 4 -122.333 33 -151 87c-82 -58.667 -188 -88 -318 -88c-271.333 0 -407 91.667 -407 275c0 49.333 16.667 98.666 50 147.999
c47.333 71.333 113.333 118 198 140c42 11.333 118 18.333 228 21c92 2.66699 158.333 15 199 37c17.333 9.33301 27 24.666 29 45.999c-0.666992 -7.33301 -1 12.667 -1 60zM295.996 1216h523v-130h-523v130z" />
    <glyph glyph-name="Abreve" unicode="&#x102;" horiz-adv-x="1150" 
d="M695 649l-152 510l-156 -510h308zM888 0l-156 517h-384l-156 -517h-135l406 1355h160l406 -1355h-141zM543 1586c97.333 0 171.333 35.333 222 106l105 -74c-79.333 -108.667 -188.333 -163 -327 -163s-247.667 54.333 -327 163l105 74
c50.667 -70.667 124.667 -106 222 -106z" />
    <glyph glyph-name="abreve" unicode="&#x103;" horiz-adv-x="1066" 
d="M497 108c60 0 120.33 10.334 180.997 31.001c81.333 27.333 122 64.666 122 111.999v220c-1.33301 -10 -58.666 -16.667 -171.999 -20c-89.333 -3.33301 -153.666 -9.33301 -192.999 -18c-73.333 -15.333 -127.666 -46 -162.999 -92c-24.667 -32 -37 -62 -37 -90
c0 -95.333 87.333 -143 262 -143zM799.997 705.001c0 44 -33.668 81.0039 -101.001 111.004c-55.333 24 -108.333 36 -159 36c-166 0 -269 -58 -309 -174l-126 27c18 94.667 69.667 165.667 155 213c72 40.667 160.333 61 265 61c86.667 0 171.334 -20 254.001 -60
c100.667 -48.667 151 -111.334 151 -188.001v-579c0 -26.667 16 -41.334 48 -44.001c-1.33301 -21.333 -3 -64.333 -5 -129c-72 4 -122.333 33 -151 87c-82 -58.667 -188 -88 -318 -88c-271.333 0 -407 91.667 -407 275c0 49.333 16.667 98.666 50 147.999
c47.333 71.333 113.333 118 198 140c42 11.333 118 18.333 228 21c92 2.66699 158.333 15 199 37c17.333 9.33301 27 24.666 29 45.999c-0.666992 -7.33301 -1 12.667 -1 60zM524.996 1214c97.333 0 171.333 35.333 222 106l105 -74
c-79.333 -108.667 -188.333 -163 -327 -163s-247.667 54.333 -327 163l105 74c50.667 -70.667 124.667 -106 222 -106z" />
    <glyph glyph-name="Aogonek" unicode="&#x104;" horiz-adv-x="1150" 
d="M695 649l-152 510l-156 -510h308zM888 0l-156 517h-384l-156 -517h-135l406 1355h160l406 -1355h-141zM840 -199c0 7.33301 27.333 38 82 92l101 98h-129c-14 -20 -38.333 -39.667 -73 -59c-38.667 -20.667 -64 -37.667 -76 -51c-23.333 -26 -35 -61.667 -35 -107
c0 -80.667 57.333 -121 172 -121l68 113c-36 9.33301 -72.667 21 -110 35z" />
    <glyph glyph-name="aogonek" unicode="&#x105;" horiz-adv-x="1066" 
d="M497 108c60 0 120.33 10.334 180.997 31.001c81.333 27.333 122 64.666 122 111.999v220c-1.33301 -10 -58.666 -16.667 -171.999 -20c-89.333 -3.33301 -153.666 -9.33301 -192.999 -18c-73.333 -15.333 -127.666 -46 -162.999 -92c-24.667 -32 -37 -62 -37 -90
c0 -95.333 87.333 -143 262 -143zM799.997 705.001c0 44 -33.668 81.0039 -101.001 111.004c-55.333 24 -108.333 36 -159 36c-166 0 -269 -58 -309 -174l-126 27c18 94.667 69.667 165.667 155 213c72 40.667 160.333 61 265 61c86.667 0 171.334 -20 254.001 -60
c100.667 -48.667 151 -111.334 151 -188.001v-579c0 -26.667 16 -41.334 48 -44.001c-1.33301 -21.333 -3 -64.333 -5 -129c-72 4 -122.333 33 -151 87c-82 -58.667 -188 -88 -318 -88c-271.333 0 -407 91.667 -407 275c0 49.333 16.667 98.666 50 147.999
c47.333 71.333 113.333 118 198 140c42 11.333 118 18.333 228 21c92 2.66699 158.333 15 199 37c17.333 9.33301 27 24.666 29 45.999c-0.666992 -7.33301 -1 12.667 -1 60zM449.996 -208.995c0 7.33301 27.333 38 82 92l101 98h-129c-14 -20 -38.333 -39.667 -73 -59
c-38.667 -20.667 -64 -37.667 -76 -51c-23.333 -26 -35 -61.667 -35 -107c0 -80.667 57.333 -121 172 -121l68 113c-36 9.33301 -72.667 21 -110 35z" />
    <glyph glyph-name="Cacute" unicode="&#x106;" horiz-adv-x="1104" 
d="M57 851c0 142.667 44.333 265 133 367c92.667 107.333 209.334 161 350.001 161c120.667 0 225.334 -41 314.001 -123c84 -78.667 137 -178.667 159 -300h-128c-17.333 86 -57 156 -119 210c-64 55.333 -139.333 83 -226 83c-105.333 0 -191 -38 -257 -114
c-64 -72 -96 -161.333 -96 -268v-377c0 -106.667 32 -196 96 -268c66 -76 151.667 -114 257 -114c86.667 0 162 27.667 226 83c62 54 101.667 124 119 210h128c-22 -121.333 -75 -221.333 -159 -300c-88.667 -82 -193.334 -123 -314.001 -123
c-140.667 0 -257.334 53.667 -350.001 161c-88.667 102 -133 224.333 -133 367v345zM489 1513l200 211h235l-377 -268z" />
    <glyph glyph-name="cacute" unicode="&#x107;" horiz-adv-x="985" 
d="M529 979c90.667 0 174.332 -25.3311 250.999 -75.998c74 -48.667 132.333 -114.667 175 -198h-152c-71.333 96 -162.666 144 -273.999 144c-98 0 -181 -38 -249 -114c-66 -72.667 -99 -158.667 -99 -258c0 -98.667 33 -184.334 99 -257.001
c68.667 -74.667 151.667 -112 249 -112c100 0 188.667 44 266 132h155c-98 -174.667 -238.333 -262 -421 -262c-132 0 -245 50.667 -339 152c-92.667 99.333 -139 215.333 -139 348c0 133.333 46.5 250.166 139.5 350.499s205.833 150.5 338.5 150.5zM438.998 1144l200 211
h235l-377 -268z" />
    <glyph glyph-name="Ccircumflex" unicode="&#x108;" horiz-adv-x="1104" 
d="M57 851c0 142.667 44.333 265 133 367c92.667 107.333 209.334 161 350.001 161c120.667 0 225.334 -41 314.001 -123c84 -78.667 137 -178.667 159 -300h-128c-17.333 86 -57 156 -119 210c-64 55.333 -139.333 83 -226 83c-105.333 0 -191 -38 -257 -114
c-64 -72 -96 -161.333 -96 -268v-377c0 -106.667 32 -196 96 -268c66 -76 151.667 -114 257 -114c86.667 0 162 27.667 226 83c62 54 101.667 124 119 210h128c-22 -121.333 -75 -221.333 -159 -300c-88.667 -82 -193.334 -123 -314.001 -123
c-140.667 0 -257.334 53.667 -350.001 161c-88.667 102 -133 224.333 -133 367v345zM265 1463h164l113 158l113 -158h164l-194 271h-167z" />
    <glyph glyph-name="ccircumflex" unicode="&#x109;" horiz-adv-x="985" 
d="M529 979c90.667 0 174.332 -25.3311 250.999 -75.998c74 -48.667 132.333 -114.667 175 -198h-152c-71.333 96 -162.666 144 -273.999 144c-98 0 -181 -38 -249 -114c-66 -72.667 -99 -158.667 -99 -258c0 -98.667 33 -184.334 99 -257.001
c68.667 -74.667 151.667 -112 249 -112c100 0 188.667 44 266 132h155c-98 -174.667 -238.333 -262 -421 -262c-132 0 -245 50.667 -339 152c-92.667 99.333 -139 215.333 -139 348c0 133.333 46.5 250.166 139.5 350.499s205.833 150.5 338.5 150.5zM254.998 1084h164
l113 158l113 -158h164l-194 271h-167z" />
    <glyph glyph-name="uni010A" unicode="&#x10a;" horiz-adv-x="1104" 
d="M57 851c0 142.667 44.333 265 133 367c92.667 107.333 209.334 161 350.001 161c120.667 0 225.334 -41 314.001 -123c84 -78.667 137 -178.667 159 -300h-128c-17.333 86 -57 156 -119 210c-64 55.333 -139.333 83 -226 83c-105.333 0 -191 -38 -257 -114
c-64 -72 -96 -161.333 -96 -268v-377c0 -106.667 32 -196 96 -268c66 -76 151.667 -114 257 -114c86.667 0 162 27.667 226 83c62 54 101.667 124 119 210h128c-22 -121.333 -75 -221.333 -159 -300c-88.667 -82 -193.334 -123 -314.001 -123
c-140.667 0 -257.334 53.667 -350.001 161c-88.667 102 -133 224.333 -133 367v345zM425 1566c0 31.333 10.5 57.666 31.5 78.999s47.167 32 78.5 32s57.333 -10.667 78 -32s31 -47.666 31 -78.999c0 -30.667 -10.5 -56.5 -31.5 -77.5s-46.833 -31.5 -77.5 -31.5
s-56.667 10.5 -78 31.5s-32 46.833 -32 77.5z" />
    <glyph glyph-name="uni010B" unicode="&#x10b;" horiz-adv-x="985" 
d="M529 979c90.667 0 174.332 -25.3311 250.999 -75.998c74 -48.667 132.333 -114.667 175 -198h-152c-71.333 96 -162.666 144 -273.999 144c-98 0 -181 -38 -249 -114c-66 -72.667 -99 -158.667 -99 -258c0 -98.667 33 -184.334 99 -257.001
c68.667 -74.667 151.667 -112 249 -112c100 0 188.667 44 266 132h155c-98 -174.667 -238.333 -262 -421 -262c-132 0 -245 50.667 -339 152c-92.667 99.333 -139 215.333 -139 348c0 133.333 46.5 250.166 139.5 350.499s205.833 150.5 338.5 150.5zM414.998 1194
c0 31.333 10.5 57.666 31.5 78.999s47.167 32 78.5 32s57.333 -10.667 78 -32s31 -47.666 31 -78.999c0 -30.667 -10.5 -56.5 -31.5 -77.5s-46.833 -31.5 -77.5 -31.5s-56.667 10.5 -78 31.5s-32 46.833 -32 77.5z" />
    <glyph glyph-name="Ccaron" unicode="&#x10c;" horiz-adv-x="1104" 
d="M57 851c0 142.667 44.333 265 133 367c92.667 107.333 209.334 161 350.001 161c120.667 0 225.334 -41 314.001 -123c84 -78.667 137 -178.667 159 -300h-128c-17.333 86 -57 156 -119 210c-64 55.333 -139.333 83 -226 83c-105.333 0 -191 -38 -257 -114
c-64 -72 -96 -161.333 -96 -268v-377c0 -106.667 32 -196 96 -268c66 -76 151.667 -114 257 -114c86.667 0 162 27.667 226 83c62 54 101.667 124 119 210h128c-22 -121.333 -75 -221.333 -159 -300c-88.667 -82 -193.334 -123 -314.001 -123
c-140.667 0 -257.334 53.667 -350.001 161c-88.667 102 -133 224.333 -133 367v345zM261 1726h164l113 -158l113 158h164l-194 -271h-167z" />
    <glyph glyph-name="ccaron" unicode="&#x10d;" horiz-adv-x="985" 
d="M529 979c90.667 0 174.332 -25.3311 250.999 -75.998c74 -48.667 132.333 -114.667 175 -198h-152c-71.333 96 -162.666 144 -273.999 144c-98 0 -181 -38 -249 -114c-66 -72.667 -99 -158.667 -99 -258c0 -98.667 33 -184.334 99 -257.001
c68.667 -74.667 151.667 -112 249 -112c100 0 188.667 44 266 132h155c-98 -174.667 -238.333 -262 -421 -262c-132 0 -245 50.667 -339 152c-92.667 99.333 -139 215.333 -139 348c0 133.333 46.5 250.166 139.5 350.499s205.833 150.5 338.5 150.5zM251.998 1355h164
l113 -158l113 158h164l-194 -271h-167z" />
    <glyph glyph-name="Dcaron" unicode="&#x10e;" horiz-adv-x="1097" 
d="M204 130h296c104.667 0 190 41 256 123c61.333 76 92 167.667 92 275v299c0 110.667 -30 203 -90 277c-64 80.667 -150 121 -258 121h-296v-1095zM500 1355c138 0 253.334 -54.332 346.001 -162.999c88 -102.667 132 -224.334 132 -365.001v-299
c0 -141.333 -43.667 -263.333 -131 -366c-92.667 -108 -208.334 -162 -347.001 -162h-426v1355h426zM188.001 1726h164l113 -158l113 158h164l-194 -271h-167z" />
    <glyph glyph-name="dcaron" unicode="&#x10f;" horiz-adv-x="1474" 
d="M585 979c146.667 0 261 -65.332 343 -195.999v572h132v-1355h-132v174c-85.333 -130.667 -201.333 -196 -348 -196c-132.667 0 -249.167 50.167 -349.5 150.5s-150.5 216.833 -150.5 349.5c0 133.333 50.833 250.166 152.5 350.499s219.167 150.5 352.5 150.5z
M585 849.001c-98 0 -185 -37.502 -261 -112.502s-114 -161.167 -114 -258.5s37.333 -183.333 112 -258s160.667 -112 258 -112s179.333 37.667 246 113c64.667 72.667 97 158.334 97 257.001s-31.333 184.334 -94 257.001c-66 76 -147.333 114 -244 114zM1290 1382
c29.333 0 55.168 -10.832 77.501 -32.499s33.5 -47.167 33.5 -76.5c0 -70 -21 -133.333 -63 -190c-45.333 -60.667 -102 -94 -170 -100l-15 58c80.667 31.333 122.667 69.666 126 114.999c-31.333 2 -57.333 13.5 -78 34.5s-31 47.167 -31 78.5
c0 33.333 11.667 60.5 35 81.5s51.666 31.5 84.999 31.5z" />
    <glyph glyph-name="uni0110" unicode="&#x110;" horiz-adv-x="1097" 
d="M204 130h296c104.667 0 190 41 256 123c61.333 76 92 167.667 92 275v299c0 110.667 -30 203 -90 277c-64 80.667 -150 121 -258 121h-296v-1095zM500 1355c138 0 253.334 -54.332 346.001 -162.999c88 -102.667 132 -224.334 132 -365.001v-299
c0 -141.333 -43.667 -263.333 -131 -366c-92.667 -108 -208.334 -162 -347.001 -162h-426v1355h426zM-124.999 726.001h523v-130h-523v130z" />
    <glyph glyph-name="uni0111" unicode="&#x111;" horiz-adv-x="1259" 
d="M553 979c146.667 0 261 -65.332 343 -195.999v572h132v-1355h-132v174c-85.333 -130.667 -201.333 -196 -348 -196c-132.667 0 -249.167 50.167 -349.5 150.5s-150.5 216.833 -150.5 349.5c0 133.333 50.833 250.166 152.5 350.499s219.167 150.5 352.5 150.5z
M553 849.001c-98 0 -185 -37.502 -261 -112.502s-114 -161.167 -114 -258.5s37.333 -183.333 112 -258s160.667 -112 258 -112s179.333 37.667 246 113c64.667 72.667 97 158.334 97 257.001s-31.333 184.334 -94 257.001c-66 76 -147.333 114 -244 114zM696 1216h523v-130
h-523v130z" />
    <glyph glyph-name="Emacron" unicode="&#x112;" horiz-adv-x="944" 
d="M865 1355v-130h-661v-428h531v-130h-531v-537h661v-130h-791v1355h791zM197 1585h523v-130h-523v130z" />
    <glyph glyph-name="emacron" unicode="&#x113;" horiz-adv-x="1125" 
d="M180 463c4 -94.667 40.666 -176.998 109.999 -246.998c70.667 -72 153 -108 247 -108c68.667 0 136.334 21 203.001 63s114.667 94 144 156l130 -23c-37.333 -92.667 -101.5 -170.167 -192.5 -232.5s-185.833 -93.5 -284.5 -93.5c-132.667 0 -246.667 50 -342 150
s-143 216.667 -143 350s47.667 250.166 143 350.499s209.333 150.5 342 150.5c136.667 0 251.667 -52.333 345 -157c90 -100.667 135 -220.334 135 -359.001h-837zM536.999 849.002c-73.333 0 -142.333 -25.667 -207 -77c-60.667 -48 -105 -107.667 -133 -179h670
c-24 72 -65.667 132.333 -125 181c-62.667 50 -131 75 -205 75zM265.999 1216h523v-130h-523v130z" />
    <glyph glyph-name="Ebreve" unicode="&#x114;" horiz-adv-x="944" 
d="M865 1355v-130h-661v-428h531v-130h-531v-537h661v-130h-791v1355h791zM425 1593c97.333 0 171.333 35.333 222 106l105 -74c-79.333 -108.667 -188.333 -163 -327 -163s-247.667 54.333 -327 163l105 74c50.667 -70.667 124.667 -106 222 -106z" />
    <glyph glyph-name="ebreve" unicode="&#x115;" horiz-adv-x="1125" 
d="M180 463c4 -94.667 40.666 -176.998 109.999 -246.998c70.667 -72 153 -108 247 -108c68.667 0 136.334 21 203.001 63s114.667 94 144 156l130 -23c-37.333 -92.667 -101.5 -170.167 -192.5 -232.5s-185.833 -93.5 -284.5 -93.5c-132.667 0 -246.667 50 -342 150
s-143 216.667 -143 350s47.667 250.166 143 350.499s209.333 150.5 342 150.5c136.667 0 251.667 -52.333 345 -157c90 -100.667 135 -220.334 135 -359.001h-837zM536.999 849.002c-73.333 0 -142.333 -25.667 -207 -77c-60.667 -48 -105 -107.667 -133 -179h670
c-24 72 -65.667 132.333 -125 181c-62.667 50 -131 75 -205 75zM543.999 1214c97.333 0 171.333 35.333 222 106l105 -74c-79.333 -108.667 -188.333 -163 -327 -163s-247.667 54.333 -327 163l105 74c50.667 -70.667 124.667 -106 222 -106z" />
    <glyph glyph-name="uni0116" unicode="&#x116;" horiz-adv-x="944" 
d="M865 1355v-130h-661v-428h531v-130h-531v-537h661v-130h-791v1355h791zM352 1567c0 31.333 10.5 57.666 31.5 78.999s47.167 32 78.5 32s57.333 -10.667 78 -32s31 -47.666 31 -78.999c0 -30.667 -10.5 -56.5 -31.5 -77.5s-46.833 -31.5 -77.5 -31.5
s-56.667 10.5 -78 31.5s-32 46.833 -32 77.5z" />
    <glyph glyph-name="uni0117" unicode="&#x117;" horiz-adv-x="1125" 
d="M180 463c4 -94.667 40.666 -176.998 109.999 -246.998c70.667 -72 153 -108 247 -108c68.667 0 136.334 21 203.001 63s114.667 94 144 156l130 -23c-37.333 -92.667 -101.5 -170.167 -192.5 -232.5s-185.833 -93.5 -284.5 -93.5c-132.667 0 -246.667 50 -342 150
s-143 216.667 -143 350s47.667 250.166 143 350.499s209.333 150.5 342 150.5c136.667 0 251.667 -52.333 345 -157c90 -100.667 135 -220.334 135 -359.001h-837zM536.999 849.002c-73.333 0 -142.333 -25.667 -207 -77c-60.667 -48 -105 -107.667 -133 -179h670
c-24 72 -65.667 132.333 -125 181c-62.667 50 -131 75 -205 75zM430.999 1198c0 31.333 10.5 57.666 31.5 78.999s47.167 32 78.5 32s57.333 -10.667 78 -32s31 -47.666 31 -78.999c0 -30.667 -10.5 -56.5 -31.5 -77.5s-46.833 -31.5 -77.5 -31.5s-56.667 10.5 -78 31.5
s-32 46.833 -32 77.5z" />
    <glyph glyph-name="Eogonek" unicode="&#x118;" horiz-adv-x="944" 
d="M865 1355v-130h-661v-428h531v-130h-531v-537h661v-130h-791v1355h791zM421 -190c0 7.33301 27.333 38 82 92l101 98h-129c-14 -20 -38.333 -39.667 -73 -59c-38.667 -20.667 -64 -37.667 -76 -51c-23.333 -26 -35 -61.667 -35 -107c0 -80.667 57.333 -121 172 -121
l68 113c-36 9.33301 -72.667 21 -110 35z" />
    <glyph glyph-name="eogonek" unicode="&#x119;" horiz-adv-x="1125" 
d="M180 463c4 -94.667 40.666 -176.998 109.999 -246.998c70.667 -72 153 -108 247 -108c68.667 0 136.334 21 203.001 63s114.667 94 144 156l130 -23c-37.333 -92.667 -101.5 -170.167 -192.5 -232.5s-185.833 -93.5 -284.5 -93.5c-132.667 0 -246.667 50 -342 150
s-143 216.667 -143 350s47.667 250.166 143 350.499s209.333 150.5 342 150.5c136.667 0 251.667 -52.333 345 -157c90 -100.667 135 -220.334 135 -359.001h-837zM536.999 849.002c-73.333 0 -142.333 -25.667 -207 -77c-60.667 -48 -105 -107.667 -133 -179h670
c-24 72 -65.667 132.333 -125 181c-62.667 50 -131 75 -205 75zM439.999 -218.998c0 7.33301 27.333 38 82 92l101 98h-129c-14 -20 -38.333 -39.667 -73 -59c-38.667 -20.667 -64 -37.667 -76 -51c-23.333 -26 -35 -61.667 -35 -107c0 -80.667 57.333 -121 172 -121l68 113
c-36 9.33301 -72.667 21 -110 35z" />
    <glyph glyph-name="Ecaron" unicode="&#x11a;" horiz-adv-x="944" 
d="M865 1355v-130h-661v-428h531v-130h-531v-537h661v-130h-791v1355h791zM203 1724h164l113 -158l113 158h164l-194 -271h-167z" />
    <glyph glyph-name="ecaron" unicode="&#x11b;" horiz-adv-x="1125" 
d="M180 463c4 -94.667 40.666 -176.998 109.999 -246.998c70.667 -72 153 -108 247 -108c68.667 0 136.334 21 203.001 63s114.667 94 144 156l130 -23c-37.333 -92.667 -101.5 -170.167 -192.5 -232.5s-185.833 -93.5 -284.5 -93.5c-132.667 0 -246.667 50 -342 150
s-143 216.667 -143 350s47.667 250.166 143 350.499s209.333 150.5 342 150.5c136.667 0 251.667 -52.333 345 -157c90 -100.667 135 -220.334 135 -359.001h-837zM536.999 849.002c-73.333 0 -142.333 -25.667 -207 -77c-60.667 -48 -105 -107.667 -133 -179h670
c-24 72 -65.667 132.333 -125 181c-62.667 50 -131 75 -205 75zM251.999 1355h164l113 -158l113 158h164l-194 -271h-167z" />
    <glyph glyph-name="Gcircumflex" unicode="&#x11c;" horiz-adv-x="1139" 
d="M893 0l-0.00292969 140.998c-90 -108.667 -207.667 -163 -353 -163c-140.667 0 -257.334 53.667 -350.001 161c-88.667 102 -133 224.333 -133 367v345c0 142.667 44.333 265 133 367c92.667 107.333 209.334 161 350.001 161s257.334 -53.667 350.001 -161
c88.667 -102 133 -224.333 133 -367h-130c0 112 -30.333 205 -91 279c-65.333 79.333 -152.666 119 -261.999 119c-105.333 0 -191 -38 -257 -114c-64 -72 -96 -161.333 -96 -268v-377c0 -106.667 32 -196 96 -268c66 -76 151.667 -114 257 -114
c106.667 0 193.334 38.667 260.001 116c62.667 72.667 94 163.334 94 272.001h-288c-0.666992 20.667 -1 51.334 -1 92.001l1 37h360c11.333 0 23.5 -6.5 36.5 -19.5s19.5 -25.167 19.5 -36.5v-569h-129zM254.997 1463h164l113 158l113 -158h164l-194 271h-167z" />
    <glyph glyph-name="gcircumflex" unicode="&#x11d;" horiz-adv-x="1100" 
d="M510 108c96.667 0 175.666 38.334 236.999 115.001c58 71.333 87 156.333 87 255c0 99.333 -28.667 184.666 -86 255.999c-62 76.667 -141.333 115 -238 115s-177 -38.333 -241 -115c-61.333 -72 -92 -157.333 -92 -256s30.333 -184 91 -256
c64.667 -76 145.334 -114 242.001 -114zM509.999 -21.999c-136 0 -247.998 50 -335.998 150c-84.667 95.333 -127 212 -127 350c0 134 43.333 250 130 348c90 102 201 153 333 153c140 0 249.667 -67 329 -201v179h130v-888c0 -133.333 -43.5 -243.833 -130.5 -331.5
s-197.167 -131.5 -330.5 -131.5c-113.333 0 -210.833 35.333 -292.5 106s-133.167 162 -154.5 274l127 21c18 -81.333 55 -146.333 111 -195c58 -50.667 128 -76 210 -76c97.333 0 176.666 33.333 237.999 100s92 149 92 247v91
c-82.667 -130.667 -192.334 -196 -329.001 -196zM225.001 1084h164l113 158l113 -158h164l-194 271h-167z" />
    <glyph glyph-name="Gbreve" unicode="&#x11e;" horiz-adv-x="1139" 
d="M893 0l-0.00292969 140.998c-90 -108.667 -207.667 -163 -353 -163c-140.667 0 -257.334 53.667 -350.001 161c-88.667 102 -133 224.333 -133 367v345c0 142.667 44.333 265 133 367c92.667 107.333 209.334 161 350.001 161s257.334 -53.667 350.001 -161
c88.667 -102 133 -224.333 133 -367h-130c0 112 -30.333 205 -91 279c-65.333 79.333 -152.666 119 -261.999 119c-105.333 0 -191 -38 -257 -114c-64 -72 -96 -161.333 -96 -268v-377c0 -106.667 32 -196 96 -268c66 -76 151.667 -114 257 -114
c106.667 0 193.334 38.667 260.001 116c62.667 72.667 94 163.334 94 272.001h-288c-0.666992 20.667 -1 51.334 -1 92.001l1 37h360c11.333 0 23.5 -6.5 36.5 -19.5s19.5 -25.167 19.5 -36.5v-569h-129zM523.997 1593c97.333 0 171.333 35.333 222 106l105 -74
c-79.333 -108.667 -188.333 -163 -327 -163s-247.667 54.333 -327 163l105 74c50.667 -70.667 124.667 -106 222 -106z" />
    <glyph glyph-name="gbreve" unicode="&#x11f;" horiz-adv-x="1100" 
d="M510 108c96.667 0 175.666 38.334 236.999 115.001c58 71.333 87 156.333 87 255c0 99.333 -28.667 184.666 -86 255.999c-62 76.667 -141.333 115 -238 115s-177 -38.333 -241 -115c-61.333 -72 -92 -157.333 -92 -256s30.333 -184 91 -256
c64.667 -76 145.334 -114 242.001 -114zM509.999 -21.999c-136 0 -247.998 50 -335.998 150c-84.667 95.333 -127 212 -127 350c0 134 43.333 250 130 348c90 102 201 153 333 153c140 0 249.667 -67 329 -201v179h130v-888c0 -133.333 -43.5 -243.833 -130.5 -331.5
s-197.167 -131.5 -330.5 -131.5c-113.333 0 -210.833 35.333 -292.5 106s-133.167 162 -154.5 274l127 21c18 -81.333 55 -146.333 111 -195c58 -50.667 128 -76 210 -76c97.333 0 176.666 33.333 237.999 100s92 149 92 247v91
c-82.667 -130.667 -192.334 -196 -329.001 -196zM494.001 1224c97.333 0 171.333 35.333 222 106l105 -74c-79.333 -108.667 -188.333 -163 -327 -163s-247.667 54.333 -327 163l105 74c50.667 -70.667 124.667 -106 222 -106z" />
    <glyph glyph-name="uni0120" unicode="&#x120;" horiz-adv-x="1139" 
d="M893 0l-0.00292969 140.998c-90 -108.667 -207.667 -163 -353 -163c-140.667 0 -257.334 53.667 -350.001 161c-88.667 102 -133 224.333 -133 367v345c0 142.667 44.333 265 133 367c92.667 107.333 209.334 161 350.001 161s257.334 -53.667 350.001 -161
c88.667 -102 133 -224.333 133 -367h-130c0 112 -30.333 205 -91 279c-65.333 79.333 -152.666 119 -261.999 119c-105.333 0 -191 -38 -257 -114c-64 -72 -96 -161.333 -96 -268v-377c0 -106.667 32 -196 96 -268c66 -76 151.667 -114 257 -114
c106.667 0 193.334 38.667 260.001 116c62.667 72.667 94 163.334 94 272.001h-288c-0.666992 20.667 -1 51.334 -1 92.001l1 37h360c11.333 0 23.5 -6.5 36.5 -19.5s19.5 -25.167 19.5 -36.5v-569h-129zM430.997 1567c0 31.333 10.5 57.666 31.5 78.999s47.167 32 78.5 32
s57.333 -10.667 78 -32s31 -47.666 31 -78.999c0 -30.667 -10.5 -56.5 -31.5 -77.5s-46.833 -31.5 -77.5 -31.5s-56.667 10.5 -78 31.5s-32 46.833 -32 77.5z" />
    <glyph glyph-name="uni0121" unicode="&#x121;" horiz-adv-x="1100" 
d="M510 108c96.667 0 175.666 38.334 236.999 115.001c58 71.333 87 156.333 87 255c0 99.333 -28.667 184.666 -86 255.999c-62 76.667 -141.333 115 -238 115s-177 -38.333 -241 -115c-61.333 -72 -92 -157.333 -92 -256s30.333 -184 91 -256
c64.667 -76 145.334 -114 242.001 -114zM509.999 -21.999c-136 0 -247.998 50 -335.998 150c-84.667 95.333 -127 212 -127 350c0 134 43.333 250 130 348c90 102 201 153 333 153c140 0 249.667 -67 329 -201v179h130v-888c0 -133.333 -43.5 -243.833 -130.5 -331.5
s-197.167 -131.5 -330.5 -131.5c-113.333 0 -210.833 35.333 -292.5 106s-133.167 162 -154.5 274l127 21c18 -81.333 55 -146.333 111 -195c58 -50.667 128 -76 210 -76c97.333 0 176.666 33.333 237.999 100s92 149 92 247v91
c-82.667 -130.667 -192.334 -196 -329.001 -196zM381.001 1198c0 31.333 10.5 57.666 31.5 78.999s47.167 32 78.5 32s57.333 -10.667 78 -32s31 -47.666 31 -78.999c0 -30.667 -10.5 -56.5 -31.5 -77.5s-46.833 -31.5 -77.5 -31.5s-56.667 10.5 -78 31.5
s-32 46.833 -32 77.5z" />
    <glyph glyph-name="uni0122" unicode="&#x122;" horiz-adv-x="1139" 
d="M893 0l-0.00292969 140.998c-90 -108.667 -207.667 -163 -353 -163c-140.667 0 -257.334 53.667 -350.001 161c-88.667 102 -133 224.333 -133 367v345c0 142.667 44.333 265 133 367c92.667 107.333 209.334 161 350.001 161s257.334 -53.667 350.001 -161
c88.667 -102 133 -224.333 133 -367h-130c0 112 -30.333 205 -91 279c-65.333 79.333 -152.666 119 -261.999 119c-105.333 0 -191 -38 -257 -114c-64 -72 -96 -161.333 -96 -268v-377c0 -106.667 32 -196 96 -268c66 -76 151.667 -114 257 -114
c106.667 0 193.334 38.667 260.001 116c62.667 72.667 94 163.334 94 272.001h-288c-0.666992 20.667 -1 51.334 -1 92.001l1 37h360c11.333 0 23.5 -6.5 36.5 -19.5s19.5 -25.167 19.5 -36.5v-569h-129zM645.997 -213.002c0 7.33301 -27.333 38 -82 92l-101 98h129
c14 -20 38.333 -39.667 73 -59c38.667 -20.667 64 -37.667 76 -51c23.333 -26 35 -61.667 35 -107c0 -80.667 -57.333 -121 -172 -121l-68 113c36 9.33301 72.667 21 110 35z" />
    <glyph glyph-name="uni0123" unicode="&#x123;" horiz-adv-x="1100" 
d="M510 108c96.667 0 175.666 38.334 236.999 115.001c58 71.333 87 156.333 87 255c0 99.333 -28.667 184.666 -86 255.999c-62 76.667 -141.333 115 -238 115s-177 -38.333 -241 -115c-61.333 -72 -92 -157.333 -92 -256s30.333 -184 91 -256
c64.667 -76 145.334 -114 242.001 -114zM509.999 -21.999c-136 0 -247.998 50 -335.998 150c-84.667 95.333 -127 212 -127 350c0 134 43.333 250 130 348c90 102 201 153 333 153c140 0 249.667 -67 329 -201v179h130v-888c0 -133.333 -43.5 -243.833 -130.5 -331.5
s-197.167 -131.5 -330.5 -131.5c-113.333 0 -210.833 35.333 -292.5 106s-133.167 162 -154.5 274l127 21c18 -81.333 55 -146.333 111 -195c58 -50.667 128 -76 210 -76c97.333 0 176.666 33.333 237.999 100s92 149 92 247v91
c-82.667 -130.667 -192.334 -196 -329.001 -196zM499.001 1089c-29.333 0 -55.168 10.832 -77.501 32.499s-33.5 47.167 -33.5 76.5c0 70 21 133.333 63 190c45.333 60.667 102 94 170 100l15 -58c-80.667 -31.333 -122.667 -69.666 -126 -114.999
c31.333 -2 57.333 -13.5 78 -34.5s31 -47.167 31 -78.5c0 -33.333 -11.667 -60.5 -35 -81.5s-51.666 -31.5 -84.999 -31.5z" />
    <glyph glyph-name="Hcircumflex" unicode="&#x124;" horiz-adv-x="1040" 
d="M204 1355v-708h570v708h130v-1355h-130v517h-570v-517h-130v1355h130zM222 1450h164l113 158l113 -158h164l-194 271h-167z" />
    <glyph glyph-name="hcircumflex" unicode="&#x125;" horiz-adv-x="1051" 
d="M74 1355h130v-572c84 130.667 197 196 339 196c128.667 0 232.667 -51.333 312 -154c72.667 -94 109 -207 109 -339v-486h-130v478c0 99.333 -23 183.333 -69 252c-53.333 79.333 -127.333 119 -222 119c-95.333 0 -176.333 -38.333 -243 -115
c-64 -74 -96 -159.333 -96 -256v-478h-130v1355zM-136 1462h164l113 158l113 -158h164l-194 271h-167z" />
    <glyph glyph-name="Hbar" unicode="&#x126;" horiz-adv-x="1040" 
d="M797 655v430h-570v-430h570zM227 1363v-148h570v148h130v-148h103v-130h-103v-1077h-130v517h-570v-517h-130v1077h-97v130h93l4 148h130z" />
    <glyph glyph-name="hbar" unicode="&#x127;" horiz-adv-x="1051" 
d="M74 1355h130v-572c84 130.667 197 196 339 196c128.667 0 232.667 -51.333 312 -154c72.667 -94 109 -207 109 -339v-486h-130v478c0 99.333 -23 183.333 -69 252c-53.333 79.333 -127.333 119 -222 119c-95.333 0 -176.333 -38.333 -243 -115
c-64 -74 -96 -159.333 -96 -256v-478h-130v1355zM-122 1216h523v-130h-523v130z" />
    <glyph glyph-name="Itilde" unicode="&#x128;" horiz-adv-x="612" 
d="M49 130h171v1096h-171v129h479v-129h-176v-1096h176v-130h-479v130zM181 1671c34.667 0 76.501 -14 125.501 -42s81.833 -42 98.5 -42c29.333 0 55.333 27 78 81l123 -46c-41.333 -114 -110 -171 -206 -171c-38 0 -79.833 14.333 -125.5 43s-76.834 43 -93.501 43
c-30.667 0 -56.667 -27.333 -78 -82l-123 49c38.667 111.333 105.667 167 201 167z" />
    <glyph glyph-name="itilde" unicode="&#x129;" horiz-adv-x="680" 
d="M171 957h257v-957h-130v827h-127v130zM207 1303c34.667 0 76.501 -14 125.501 -42s81.833 -42 98.5 -42c29.333 0 55.333 27 78 81l123 -46c-41.333 -114 -110 -171 -206 -171c-38 0 -79.833 14.333 -125.5 43s-76.834 43 -93.501 43c-30.667 0 -56.667 -27.333 -78 -82
l-123 49c38.667 111.333 105.667 167 201 167z" />
    <glyph glyph-name="Imacron" unicode="&#x12a;" horiz-adv-x="612" 
d="M49 130h171v1096h-171v129h479v-129h-176v-1096h176v-130h-479v130zM24 1583h523v-130h-523v130z" />
    <glyph glyph-name="imacron" unicode="&#x12b;" horiz-adv-x="576" 
d="M158 957h257v-957h-130v827h-127v130zM33 1216h523v-130h-523v130z" />
    <glyph glyph-name="Ibreve" unicode="&#x12c;" horiz-adv-x="612" 
d="M49 130h171v1096h-171v129h479v-129h-176v-1096h176v-130h-479v130zM290 1580c97.333 0 171.333 35.333 222 106l105 -74c-79.333 -108.667 -188.333 -163 -327 -163s-247.667 54.333 -327 163l105 74c50.667 -70.667 124.667 -106 222 -106z" />
    <glyph glyph-name="ibreve" unicode="&#x12d;" horiz-adv-x="685" 
d="M216 957h257v-957h-130v827h-127v130zM350 1214c97.333 0 171.333 35.333 222 106l105 -74c-79.333 -108.667 -188.333 -163 -327 -163s-247.667 54.333 -327 163l105 74c50.667 -70.667 124.667 -106 222 -106z" />
    <glyph glyph-name="Iogonek" unicode="&#x12e;" horiz-adv-x="612" 
d="M49 130h171v1096h-171v129h479v-129h-176v-1096h176v-130h-479v130zM191 -190c0 7.33301 27.333 38 82 92l101 98h-129c-14 -20 -38.333 -39.667 -73 -59c-38.667 -20.667 -64 -37.667 -76 -51c-23.333 -26 -35 -61.667 -35 -107c0 -80.667 57.333 -121 172 -121l68 113
c-36 9.33301 -72.667 21 -110 35z" />
    <glyph glyph-name="iogonek" unicode="&#x12f;" horiz-adv-x="400" 
d="M161 1281c0 20.667 8 38.5 24 53.5s34.333 22.5 55 22.5c21.333 0 39.666 -7.33301 54.999 -22s23 -32.667 23 -54s-7.66699 -39.333 -23 -54s-33.666 -22 -54.999 -22c-20.667 0 -39 7.5 -55 22.5s-24 32.833 -24 53.5zM47 957h257v-957h-130v827h-127v130zM191 -190
c0 7.33301 27.333 38 82 92l101 98h-129c-14 -20 -38.333 -39.667 -73 -59c-38.667 -20.667 -64 -37.667 -76 -51c-23.333 -26 -35 -61.667 -35 -107c0 -80.667 57.333 -121 172 -121l68 113c-36 9.33301 -72.667 21 -110 35z" />
    <glyph glyph-name="uni0130" unicode="&#x130;" horiz-adv-x="612" 
d="M49 130h171v1096h-171v129h479v-129h-176v-1096h176v-130h-479v130zM174 1565c0 31.333 10.5 57.666 31.5 78.999s47.167 32 78.5 32s57.333 -10.667 78 -32s31 -47.666 31 -78.999c0 -30.667 -10.5 -56.5 -31.5 -77.5s-46.833 -31.5 -77.5 -31.5s-56.667 10.5 -78 31.5
s-32 46.833 -32 77.5z" />
    <glyph glyph-name="dotlessi" unicode="&#x131;" horiz-adv-x="407" 
d="M74 957h257v-957h-130v827h-127v130z" />
    <glyph glyph-name="IJ" unicode="&#x132;" horiz-adv-x="1583" 
d="M49 130h171v1096h-171v129h479v-129h-176v-1096h176v-130h-479v130zM1131 1354l326 -0.000976562v-993c0 -105.333 -41.667 -196.333 -125 -273c-81.333 -74 -175 -111 -281 -111c-108.667 0 -204.334 37.667 -287.001 113c-84.667 78 -127 170.667 -127 278v126h130
v-132c0 -65.333 31 -124.666 93 -177.999c60 -51.333 123 -77 189 -77c72.667 0 136.834 25.5 192.501 76.5s83.5 112.5 83.5 184.5v856h-194v130z" />
    <glyph glyph-name="ij" unicode="&#x133;" horiz-adv-x="785" 
d="M161 1281c0 20.667 8 38.5 24 53.5s34.333 22.5 55 22.5c21.333 0 39.666 -7.33301 54.999 -22s23 -32.667 23 -54s-7.66699 -39.333 -23 -54s-33.666 -22 -54.999 -22c-20.667 0 -39 7.5 -55 22.5s-24 32.833 -24 53.5zM47 957h257v-957h-130v827h-127v130zM558 1279
c0 20.667 8 38.5 24 53.5s34.333 22.5 55 22.5c21.333 0 39.666 -7.33301 54.999 -22s23 -32.667 23 -54s-7.66699 -39.333 -23 -54s-33.666 -22 -54.999 -22c-20.667 0 -39 7.5 -55 22.5s-24 32.833 -24 53.5zM444 827v130.001h257l-1 -1055
c0 -90 -30.5 -162.667 -91.5 -218s-136.833 -83 -227.5 -83v134c52.667 0 96.667 14.333 132 43c38 31.333 57 72.666 57 123.999v923h-124c0 1.33301 -0.666992 2 -2 2z" />
    <glyph glyph-name="Jcircumflex" unicode="&#x134;" horiz-adv-x="955" 
d="M508 1355l326 -0.000976562v-993c0 -105.333 -41.667 -196.333 -125 -273c-81.333 -74 -175 -111 -281 -111c-108.667 0 -204.334 37.667 -287.001 113c-84.667 78 -127 170.667 -127 278v126h130v-132c0 -65.333 31 -124.666 93 -177.999c60 -51.333 123 -77 189 -77
c72.667 0 136.834 25.5 192.501 76.5s83.5 112.5 83.5 184.5v856h-194v130zM379 1452h164l113 158l113 -158h164l-194 271h-167z" />
    <glyph glyph-name="jcircumflex" unicode="&#x135;" horiz-adv-x="638" 
d="M296 1279c0 20.667 8 38.5 24 53.5s34.333 22.5 55 22.5c21.333 0 39.666 -7.33301 54.999 -22s23 -32.667 23 -54s-7.66699 -39.333 -23 -54s-33.666 -22 -54.999 -22c-20.667 0 -39 7.5 -55 22.5s-24 32.833 -24 53.5zM182 827v130.001h257l-1 -1055
c0 -90 -30.5 -162.667 -91.5 -218s-136.833 -83 -227.5 -83v134c52.667 0 96.667 14.333 132 43c38 31.333 57 72.666 57 123.999v923h-124c0 1.33301 -0.666992 2 -2 2zM45 1452h164l113 158l113 -158h164l-194 271h-167z" />
    <glyph glyph-name="uni0136" unicode="&#x136;" horiz-adv-x="1154" 
d="M192 725l627 630h187l-550 -554l576 -801h-163l-510 702l-167 -166v-536h-131v1355h131v-630zM503 -191c0 7.33301 -27.333 38 -82 92l-101 98h129c14 -20 38.333 -39.667 73 -59c38.667 -20.667 64 -37.667 76 -51c23.333 -26 35 -61.667 35 -107
c0 -80.667 -57.333 -121 -172 -121l-68 113c36 9.33301 72.667 21 110 35z" />
    <glyph glyph-name="uni0137" unicode="&#x137;" horiz-adv-x="844" 
d="M204 656l437 331l87 -99l-330 -254l384 -634h-156l-337 554l-85 -65v-489h-132v1355h132v-699zM438 -190c0 7.33301 -27.333 38 -82 92l-101 98h129c14 -20 38.333 -39.667 73 -59c38.667 -20.667 64 -37.667 76 -51c23.333 -26 35 -61.667 35 -107
c0 -80.667 -57.333 -121 -172 -121l-68 113c36 9.33301 72.667 21 110 35z" />
    <glyph glyph-name="Lacute" unicode="&#x139;" horiz-adv-x="911" 
d="M204 1355v-1225h596v-130h-726v1355h130zM99 1512l200 211h235l-377 -268z" />
    <glyph glyph-name="lacute" unicode="&#x13a;" horiz-adv-x="391" 
d="M148 1355h132v-1355h-132v1355zM173 1512l200 211h235l-377 -268z" />
    <glyph glyph-name="uni013B" unicode="&#x13b;" horiz-adv-x="911" 
d="M204 1355v-1225h596v-130h-726v1355h130zM487 -190c0 7.33301 -27.333 38 -82 92l-101 98h129c14 -20 38.333 -39.667 73 -59c38.667 -20.667 64 -37.667 76 -51c23.333 -26 35 -61.667 35 -107c0 -80.667 -57.333 -121 -172 -121l-68 113c36 9.33301 72.667 21 110 35z
" />
    <glyph glyph-name="uni013C" unicode="&#x13c;" horiz-adv-x="518" 
d="M148 1355h132v-1355h-132v1355zM340 -205c0 7.33301 -27.333 38 -82 92l-101 98h129c14 -20 38.333 -39.667 73 -59c38.667 -20.667 64 -37.667 76 -51c23.333 -26 35 -61.667 35 -107c0 -80.667 -57.333 -121 -172 -121l-68 113c36 9.33301 72.667 21 110 35z" />
    <glyph glyph-name="Lcaron" unicode="&#x13d;" horiz-adv-x="911" 
d="M204 1355v-1225h596v-130h-726v1355h130zM464 1381c29.333 0 55.168 -10.832 77.501 -32.499s33.5 -47.167 33.5 -76.5c0 -70 -21 -133.333 -63 -190c-45.333 -60.667 -102 -94 -170 -100l-15 58c80.667 31.333 122.667 69.666 126 114.999
c-31.333 2 -57.333 13.5 -78 34.5s-31 47.167 -31 78.5c0 33.333 11.667 60.5 35 81.5s51.666 31.5 84.999 31.5z" />
    <glyph glyph-name="lcaron" unicode="&#x13e;" horiz-adv-x="680" 
d="M148 1355h132v-1355h-132v1355zM497 1364c29.333 0 55.168 -10.832 77.501 -32.499s33.5 -47.167 33.5 -76.5c0 -70 -21 -133.333 -63 -190c-45.333 -60.667 -102 -94 -170 -100l-15 58c80.667 31.333 122.667 69.666 126 114.999c-31.333 2 -57.333 13.5 -78 34.5
s-31 47.167 -31 78.5c0 33.333 11.667 60.5 35 81.5s51.666 31.5 84.999 31.5z" />
    <glyph glyph-name="Ldot" unicode="&#x13f;" horiz-adv-x="911" 
d="M204 1355v-1225h596v-130h-726v1355h130zM363 757c0 31.333 10.5 57.666 31.5 78.999s47.167 32 78.5 32s57.333 -10.667 78 -32s31 -47.666 31 -78.999c0 -30.667 -10.5 -56.5 -31.5 -77.5s-46.833 -31.5 -77.5 -31.5s-56.667 10.5 -78 31.5s-32 46.833 -32 77.5z" />
    <glyph glyph-name="ldot" unicode="&#x140;" horiz-adv-x="680" 
d="M148 1355h132v-1355h-132v1355zM380 623c0 31.333 10.5 57.666 31.5 78.999s47.167 32 78.5 32s57.333 -10.667 78 -32s31 -47.666 31 -78.999c0 -30.667 -10.5 -56.5 -31.5 -77.5s-46.833 -31.5 -77.5 -31.5s-56.667 10.5 -78 31.5s-32 46.833 -32 77.5z" />
    <glyph glyph-name="Lslash" unicode="&#x141;" horiz-adv-x="1377" 
d="M406 1355v-493l192 61l39 -126l-231 -76v-587h823v-134h-953v681l-190 -62l-42 125l232 72v539h130z" />
    <glyph glyph-name="lslash" unicode="&#x142;" horiz-adv-x="750" 
d="M400 1355v-493l195 61l38 -126l-233 -76v-721h-130v681l-187 -62l-43 125l230 72v539h130z" />
    <glyph glyph-name="Nacute" unicode="&#x143;" horiz-adv-x="1166" 
d="M227 1355l668 -1130v1130h132v-1355h-154l-669 1135v-1135h-132v1355h155zM466 1511l200 211h235l-377 -268z" />
    <glyph glyph-name="nacute" unicode="&#x144;" horiz-adv-x="1117" 
d="M74 957l130 0.000976562v-174c76.667 130.667 190.334 196 341.001 196c144.667 0 257 -46.667 337 -140c74.667 -87.333 112 -205 112 -353v-486h-132v478c0 110 -24.667 197.333 -74 262c-54.667 72.667 -135.667 109 -243 109c-100.667 0 -183.334 -37 -248.001 -111
c-62 -70.667 -93 -157.334 -93 -260.001v-478h-130v957zM498 1144l200 211h235l-377 -268z" />
    <glyph glyph-name="uni0145" unicode="&#x145;" horiz-adv-x="1166" 
d="M227 1355l668 -1130v1130h132v-1355h-154l-669 1135v-1135h-132v1355h155zM584 -207c0 7.33301 -27.333 38 -82 92l-101 98h129c14 -20 38.333 -39.667 73 -59c38.667 -20.667 64 -37.667 76 -51c23.333 -26 35 -61.667 35 -107c0 -80.667 -57.333 -121 -172 -121
l-68 113c36 9.33301 72.667 21 110 35z" />
    <glyph glyph-name="uni0146" unicode="&#x146;" horiz-adv-x="1117" 
d="M74 957l130 0.000976562v-174c76.667 130.667 190.334 196 341.001 196c144.667 0 257 -46.667 337 -140c74.667 -87.333 112 -205 112 -353v-486h-132v478c0 110 -24.667 197.333 -74 262c-54.667 72.667 -135.667 109 -243 109c-100.667 0 -183.334 -37 -248.001 -111
c-62 -70.667 -93 -157.334 -93 -260.001v-478h-130v957zM601 -189.999c0 7.33301 -27.333 38 -82 92l-101 98h129c14 -20 38.333 -39.667 73 -59c38.667 -20.667 64 -37.667 76 -51c23.333 -26 35 -61.667 35 -107c0 -80.667 -57.333 -121 -172 -121l-68 113
c36 9.33301 72.667 21 110 35z" />
    <glyph glyph-name="Ncaron" unicode="&#x147;" horiz-adv-x="1166" 
d="M227 1355l668 -1130v1130h132v-1355h-154l-669 1135v-1135h-132v1355h155zM300 1734h164l113 -158l113 158h164l-194 -271h-167z" />
    <glyph glyph-name="ncaron" unicode="&#x148;" horiz-adv-x="1117" 
d="M74 957l130 0.000976562v-174c76.667 130.667 190.334 196 341.001 196c144.667 0 257 -46.667 337 -140c74.667 -87.333 112 -205 112 -353v-486h-132v478c0 110 -24.667 197.333 -74 262c-54.667 72.667 -135.667 109 -243 109c-100.667 0 -183.334 -37 -248.001 -111
c-62 -70.667 -93 -157.334 -93 -260.001v-478h-130v957zM252 1355h164l113 -158l113 158h164l-194 -271h-167z" />
    <glyph glyph-name="uni0149" unicode="&#x149;" horiz-adv-x="1268" 
d="M74 957l130 0.000976562v-174c76.667 130.667 190.334 196 341.001 196c144.667 0 257 -46.667 337 -140c74.667 -87.333 112 -205 112 -353v-486h-132v478c0 110 -24.667 197.333 -74 262c-54.667 72.667 -135.667 109 -243 109c-100.667 0 -183.334 -37 -248.001 -111
c-62 -70.667 -93 -157.334 -93 -260.001v-478h-130v957zM-32 1392c29.333 0 55.168 -10.832 77.501 -32.499s33.5 -47.167 33.5 -76.5c0 -70 -21 -133.333 -63 -190c-45.333 -60.667 -102 -94 -170 -100l-15 58c80.667 31.333 122.667 69.666 126 114.999
c-31.333 2 -57.333 13.5 -78 34.5s-31 47.167 -31 78.5c0 33.333 11.667 60.5 35 81.5s51.666 31.5 84.999 31.5z" />
    <glyph glyph-name="Eng" unicode="&#x14a;" horiz-adv-x="1141" 
d="M664 -210c102 -0.666992 167 8.66602 195 27.999c36.667 25.333 55 86 55 182h-32l-669 1135v-1135h-132v1355h155l668 -1130v1130h132l3 -1397c0 -116 -32.667 -196.667 -98 -242c-54 -37.333 -141.667 -55.666 -263 -54.999h-14v129z" />
    <glyph glyph-name="eng" unicode="&#x14b;" horiz-adv-x="1116" 
d="M853 477c0 110 -24.667 197.331 -74 261.998c-54.667 72.667 -135.667 109 -243 109c-100.667 0 -183.334 -37 -248.001 -111c-62 -70.667 -93 -157.334 -93 -260.001v-478h-130v957h130v-174c76.667 130.667 190.334 196 341.001 196c144.667 0 257 -46.667 337 -140
c74.667 -88 112 -205.667 112 -353l1 -485h1c0.666992 -10.667 1 -22 1 -34c0 -122 -30.667 -206 -92 -252c-52 -39.333 -141 -58.666 -267 -57.999h-14v129c96 0.666992 158.333 12.334 187 35.001c34 26.667 51 86.334 51 179.001v478z" />
    <glyph glyph-name="Omacron" unicode="&#x14c;" horiz-adv-x="1132" 
d="M187 490c0 -106.667 32 -196 96 -268c66 -76 151.667 -114 257 -114s191 38 257 114c64 72 96 161.333 96 268v377c0 106.667 -32 196 -96 268c-66 76 -151.667 114 -257 114s-191 -38 -257 -114c-64 -72 -96 -161.333 -96 -268v-377zM1023 506
c0 -142.667 -44.333 -265 -133 -367c-92.667 -107.333 -209.334 -161 -350.001 -161s-257.334 53.667 -350.001 161c-88.667 102 -133 224.333 -133 367v345c0 142.667 44.333 265 133 367c92.667 107.333 209.334 161 350.001 161s257.334 -53.667 350.001 -161
c88.667 -102 133 -224.333 133 -367v-345zM273 1587h523v-130h-523v130z" />
    <glyph glyph-name="omacron" unicode="&#x14d;" horiz-adv-x="1125" 
d="M530 849c-98 0 -180.999 -38 -248.999 -114c-66 -73.333 -99 -159.333 -99 -258s33 -184.334 99 -257.001c68.667 -74.667 151.667 -112 249 -112s180.666 37.333 249.999 112c67.333 73.333 101 159 101 257c0 98.667 -34 185.334 -102 260.001s-151 112 -249 112z
M530.001 979c132.667 0 246 -50.332 340 -150.999s141 -217.667 141 -351c0 -132.667 -46.667 -248.667 -140 -348c-95.333 -100.667 -209 -151 -341 -151s-245 50.667 -339 152c-92.667 99.333 -139 215.333 -139 348c0 133.333 46.5 250.166 139.5 350.499
s205.833 150.5 338.5 150.5zM266.001 1216h523v-130h-523v130z" />
    <glyph glyph-name="Obreve" unicode="&#x14e;" horiz-adv-x="1132" 
d="M187 490c0 -106.667 32 -196 96 -268c66 -76 151.667 -114 257 -114s191 38 257 114c64 72 96 161.333 96 268v377c0 106.667 -32 196 -96 268c-66 76 -151.667 114 -257 114s-191 -38 -257 -114c-64 -72 -96 -161.333 -96 -268v-377zM1023 506
c0 -142.667 -44.333 -265 -133 -367c-92.667 -107.333 -209.334 -161 -350.001 -161s-257.334 53.667 -350.001 161c-88.667 102 -133 224.333 -133 367v345c0 142.667 44.333 265 133 367c92.667 107.333 209.334 161 350.001 161s257.334 -53.667 350.001 -161
c88.667 -102 133 -224.333 133 -367v-345zM537 1580c97.333 0 171.333 35.333 222 106l105 -74c-79.333 -108.667 -188.333 -163 -327 -163s-247.667 54.333 -327 163l105 74c50.667 -70.667 124.667 -106 222 -106z" />
    <glyph glyph-name="obreve" unicode="&#x14f;" horiz-adv-x="1125" 
d="M530 849c-98 0 -180.999 -38 -248.999 -114c-66 -73.333 -99 -159.333 -99 -258s33 -184.334 99 -257.001c68.667 -74.667 151.667 -112 249 -112s180.666 37.333 249.999 112c67.333 73.333 101 159 101 257c0 98.667 -34 185.334 -102 260.001s-151 112 -249 112z
M530.001 979c132.667 0 246 -50.332 340 -150.999s141 -217.667 141 -351c0 -132.667 -46.667 -248.667 -140 -348c-95.333 -100.667 -209 -151 -341 -151s-245 50.667 -339 152c-92.667 99.333 -139 215.333 -139 348c0 133.333 46.5 250.166 139.5 350.499
s205.833 150.5 338.5 150.5zM525.001 1214c97.333 0 171.333 35.333 222 106l105 -74c-79.333 -108.667 -188.333 -163 -327 -163s-247.667 54.333 -327 163l105 74c50.667 -70.667 124.667 -106 222 -106z" />
    <glyph glyph-name="uni0150" unicode="&#x150;" horiz-adv-x="1132" 
d="M187 490c0 -106.667 32 -196 96 -268c66 -76 151.667 -114 257 -114s191 38 257 114c64 72 96 161.333 96 268v377c0 106.667 -32 196 -96 268c-66 76 -151.667 114 -257 114s-191 -38 -257 -114c-64 -72 -96 -161.333 -96 -268v-377zM1023 506
c0 -142.667 -44.333 -265 -133 -367c-92.667 -107.333 -209.334 -161 -350.001 -161s-257.334 53.667 -350.001 161c-88.667 102 -133 224.333 -133 367v345c0 142.667 44.333 265 133 367c92.667 107.333 209.334 161 350.001 161s257.334 -53.667 350.001 -161
c88.667 -102 133 -224.333 133 -367v-345zM261 1505l200 211h235l-377 -268zM600 1505l200 211h235l-377 -268z" />
    <glyph glyph-name="uni0151" unicode="&#x151;" horiz-adv-x="1125" 
d="M530 849c-98 0 -180.999 -38 -248.999 -114c-66 -73.333 -99 -159.333 -99 -258s33 -184.334 99 -257.001c68.667 -74.667 151.667 -112 249 -112s180.666 37.333 249.999 112c67.333 73.333 101 159 101 257c0 98.667 -34 185.334 -102 260.001s-151 112 -249 112z
M530.001 979c132.667 0 246 -50.332 340 -150.999s141 -217.667 141 -351c0 -132.667 -46.667 -248.667 -140 -348c-95.333 -100.667 -209 -151 -341 -151s-245 50.667 -339 152c-92.667 99.333 -139 215.333 -139 348c0 133.333 46.5 250.166 139.5 350.499
s205.833 150.5 338.5 150.5zM214.001 1150l200 211h235l-377 -268zM553.001 1150l200 211h235l-377 -268z" />
    <glyph glyph-name="OE" unicode="&#x152;" horiz-adv-x="1842" 
d="M540 1231c-103.333 0 -189.332 -42.335 -257.999 -127.002c-64.667 -78.667 -97 -171 -97 -277v-299c0 -109.333 33.333 -202.666 100 -279.999c69.333 -81.333 157.666 -122 264.999 -122c102 0 187 42.333 255 127c62.667 78.667 94 170.334 94 275.001v299
c0 108.667 -32.333 202 -97 280c-68.667 82.667 -156 124 -262 124zM1036 800.998l532.002 0.000976562v-134h-532v-486h660v-120h-794v117c-96.667 -118.667 -217.334 -178 -362.001 -178c-136.667 0 -251.334 54.667 -344.001 164
c-87.333 103.333 -131 224.666 -131 363.999v299c0 142 45 264.333 135 367c94 107.333 210.667 161 350 161c138 0 255.333 -59.333 352 -178v109h794v-120h-660v-365z" />
    <glyph glyph-name="oe" unicode="&#x153;" horiz-adv-x="1950" 
d="M524 827c-97.333 0 -176.166 -33.499 -236.499 -100.499s-90.5 -149.833 -90.5 -248.5c0 -98 29.667 -180 89 -246c61.333 -68 140.666 -102 237.999 -102s178.5 33.667 243.5 101s97.5 149.666 97.5 246.999s-32.667 179.833 -98 247.5s-146.333 101.5 -243 101.5z
M994 459.001c4 -94 37.334 -172.333 100.001 -235s140.667 -94 234 -94c140.667 0 242.334 65.667 305.001 197l128 -23c-37.333 -92.667 -93.666 -166 -168.999 -220c-77.333 -56 -165.333 -84 -264 -84c-166.667 0 -299.334 81 -398.001 243
c-90 -162 -225.333 -243 -406 -243c-132.667 0 -242.334 46.667 -329.001 140c-84.667 91.333 -127 204 -127 338c0 134.667 42 247.667 126 339c86.667 93.333 196.667 140 330 140c176 0 311.333 -79.667 406 -239c91.333 159.333 220.666 239 387.999 239
c138 0 249.333 -49.333 334 -148c80 -93.333 120 -210 120 -350h-778zM1013 597.001h610.999c-25.333 69.333 -64 124.333 -116 165c-55.333 43.333 -118.666 65 -189.999 65c-147.333 0 -249 -76.667 -305 -230z" />
    <glyph glyph-name="Racute" unicode="&#x154;" horiz-adv-x="1097" 
d="M204 1229v-581.999h271c95.333 0 179.666 24 252.999 72c84.667 55.333 127 128.333 127 219c0 95.333 -44.667 169.666 -134 222.999c-75.333 45.333 -163.666 68 -264.999 68h-252zM204 517.001v-517h-132v1355h384c132.667 0 250.667 -35.667 354 -107
c116.667 -80 175 -183.333 175 -310c0 -103.333 -39.667 -192.666 -119 -267.999c-72 -68.667 -161.333 -113.334 -268 -134.001l297 -536h-152l-287 517h-252zM338 1508l200 211h235l-377 -268z" />
    <glyph glyph-name="racute" unicode="&#x155;" horiz-adv-x="857" 
d="M204 783c85.333 116 198.334 174 339.001 174h204v-174c-68.667 29.333 -134.334 44 -197.001 44c-98 0 -180.167 -33.667 -246.5 -101s-99.5 -150 -99.5 -248v-478h-132v957h132v-174zM286.001 1144l200 211h235l-377 -268z" />
    <glyph glyph-name="uni0156" unicode="&#x156;" horiz-adv-x="1097" 
d="M204 1229v-581.999h271c95.333 0 179.666 24 252.999 72c84.667 55.333 127 128.333 127 219c0 95.333 -44.667 169.666 -134 222.999c-75.333 45.333 -163.666 68 -264.999 68h-252zM204 517.001v-517h-132v1355h384c132.667 0 250.667 -35.667 354 -107
c116.667 -80 175 -183.333 175 -310c0 -103.333 -39.667 -192.666 -119 -267.999c-72 -68.667 -161.333 -113.334 -268 -134.001l297 -536h-152l-287 517h-252zM503 -201.999c0 7.33301 -27.333 38 -82 92l-101 98h129c14 -20 38.333 -39.667 73 -59
c38.667 -20.667 64 -37.667 76 -51c23.333 -26 35 -61.667 35 -107c0 -80.667 -57.333 -121 -172 -121l-68 113c36 9.33301 72.667 21 110 35z" />
    <glyph glyph-name="uni0157" unicode="&#x157;" horiz-adv-x="857" 
d="M204 783c85.333 116 198.334 174 339.001 174h204v-174c-68.667 29.333 -134.334 44 -197.001 44c-98 0 -180.167 -33.667 -246.5 -101s-99.5 -150 -99.5 -248v-478h-132v957h132v-174zM491.001 -190c0 7.33301 -27.333 38 -82 92l-101 98h129
c14 -20 38.333 -39.667 73 -59c38.667 -20.667 64 -37.667 76 -51c23.333 -26 35 -61.667 35 -107c0 -80.667 -57.333 -121 -172 -121l-68 113c36 9.33301 72.667 21 110 35z" />
    <glyph glyph-name="Rcaron" unicode="&#x158;" horiz-adv-x="1097" 
d="M204 1229v-581.999h271c95.333 0 179.666 24 252.999 72c84.667 55.333 127 128.333 127 219c0 95.333 -44.667 169.666 -134 222.999c-75.333 45.333 -163.666 68 -264.999 68h-252zM204 517.001v-517h-132v1355h384c132.667 0 250.667 -35.667 354 -107
c116.667 -80 175 -183.333 175 -310c0 -103.333 -39.667 -192.666 -119 -267.999c-72 -68.667 -161.333 -113.334 -268 -134.001l297 -536h-152l-287 517h-252zM123 1709h164l113 -158l113 158h164l-194 -271h-167z" />
    <glyph glyph-name="rcaron" unicode="&#x159;" horiz-adv-x="857" 
d="M204 783c85.333 116 198.334 174 339.001 174h204v-174c-68.667 29.333 -134.334 44 -197.001 44c-98 0 -180.167 -33.667 -246.5 -101s-99.5 -150 -99.5 -248v-478h-132v957h132v-174zM123.001 1355h164l113 -158l113 158h164l-194 -271h-167z" />
    <glyph glyph-name="Sacute" unicode="&#x15a;" horiz-adv-x="1125" 
d="M183 999c0 -109.333 72.668 -184.333 218.001 -225l404 -101c144.667 -59.333 217 -165.333 217 -318c0 -113.333 -54.667 -206.666 -164 -279.999c-96.667 -64.667 -204.667 -97 -324 -97c-126 0 -234.333 33 -325 99c-100 73.333 -152 170.666 -156 291.999h130
c4 -90 41.667 -157.667 113 -203c61.333 -38.667 140 -58 236 -58c91.333 0 170.333 18.667 237 56c82 46 123 110.667 123 194c0 109.333 -72.333 185.333 -217 228l-404 103c-145.333 58.667 -218 161.667 -218 309c0 117.333 52 212.333 156 285c92.667 64 200 96 322 96
c131.333 0 242.666 -31.333 333.999 -94c104.667 -72 157 -171 157 -297h-130c0 92 -37.333 160.667 -112 206c-60.667 36.667 -140 55 -238 55c-239.333 0 -359 -83.333 -359 -250zM479.001 1513l200 211h235l-377 -268z" />
    <glyph glyph-name="sacute" unicode="&#x15b;" horiz-adv-x="1003" 
d="M183 281c4 -59.333 44.001 -104.664 120.001 -135.997c58 -23.333 122.333 -35 193 -35c60 0 115.333 10.667 166 32c66 27.333 99 66.666 99 117.999c0 60 -40 102.333 -120 127c-20.667 6 -104.667 20 -252 42c-108.667 16 -183.667 41.333 -225 76
c-38.667 31.333 -64.334 58.666 -77.001 81.999c-14.667 26 -22 62.333 -22 109c0 92 46.333 163.667 139 215c76 42.667 164 64 264 64c104 0 195 -20.333 273 -61c94.667 -49.333 148.334 -120.333 161.001 -213l-126 -27c-24.667 116 -134.334 174 -329.001 174
c-60 0 -113 -10 -159 -30c-61.333 -26.667 -92 -66.334 -92 -119.001c0 -72.667 54.667 -121.667 164 -147l253 -29c83.333 -12 158.333 -45.667 225 -101c40 -33.333 60 -87.333 60 -162c0 -88.667 -48 -159.667 -144 -213c-80 -44.667 -168.333 -67 -265 -67
c-103.333 0 -194 20.333 -272 61c-94 49.333 -147.333 120.333 -160 213zM409.001 1144l200 211h235l-377 -268z" />
    <glyph glyph-name="Scircumflex" unicode="&#x15c;" horiz-adv-x="1125" 
d="M183 999c0 -109.333 72.668 -184.333 218.001 -225l404 -101c144.667 -59.333 217 -165.333 217 -318c0 -113.333 -54.667 -206.666 -164 -279.999c-96.667 -64.667 -204.667 -97 -324 -97c-126 0 -234.333 33 -325 99c-100 73.333 -152 170.666 -156 291.999h130
c4 -90 41.667 -157.667 113 -203c61.333 -38.667 140 -58 236 -58c91.333 0 170.333 18.667 237 56c82 46 123 110.667 123 194c0 109.333 -72.333 185.333 -217 228l-404 103c-145.333 58.667 -218 161.667 -218 309c0 117.333 52 212.333 156 285c92.667 64 200 96 322 96
c131.333 0 242.666 -31.333 333.999 -94c104.667 -72 157 -171 157 -297h-130c0 92 -37.333 160.667 -112 206c-60.667 36.667 -140 55 -238 55c-239.333 0 -359 -83.333 -359 -250zM305.001 1463h164l113 158l113 -158h164l-194 271h-167z" />
    <glyph glyph-name="scircumflex" unicode="&#x15d;" horiz-adv-x="1003" 
d="M183 281c4 -59.333 44.001 -104.664 120.001 -135.997c58 -23.333 122.333 -35 193 -35c60 0 115.333 10.667 166 32c66 27.333 99 66.666 99 117.999c0 60 -40 102.333 -120 127c-20.667 6 -104.667 20 -252 42c-108.667 16 -183.667 41.333 -225 76
c-38.667 31.333 -64.334 58.666 -77.001 81.999c-14.667 26 -22 62.333 -22 109c0 92 46.333 163.667 139 215c76 42.667 164 64 264 64c104 0 195 -20.333 273 -61c94.667 -49.333 148.334 -120.333 161.001 -213l-126 -27c-24.667 116 -134.334 174 -329.001 174
c-60 0 -113 -10 -159 -30c-61.333 -26.667 -92 -66.334 -92 -119.001c0 -72.667 54.667 -121.667 164 -147l253 -29c83.333 -12 158.333 -45.667 225 -101c40 -33.333 60 -87.333 60 -162c0 -88.667 -48 -159.667 -144 -213c-80 -44.667 -168.333 -67 -265 -67
c-103.333 0 -194 20.333 -272 61c-94 49.333 -147.333 120.333 -160 213zM225.001 1084h164l113 158l113 -158h164l-194 271h-167z" />
    <glyph glyph-name="Scedilla" unicode="&#x15e;" horiz-adv-x="1125" 
d="M183 999c0 -109.333 72.668 -184.333 218.001 -225l404 -101c144.667 -59.333 217 -165.333 217 -318c0 -113.333 -54.667 -206.666 -164 -279.999c-96.667 -64.667 -204.667 -97 -324 -97c-126 0 -234.333 33 -325 99c-100 73.333 -152 170.666 -156 291.999h130
c4 -90 41.667 -157.667 113 -203c61.333 -38.667 140 -58 236 -58c91.333 0 170.333 18.667 237 56c82 46 123 110.667 123 194c0 109.333 -72.333 185.333 -217 228l-404 103c-145.333 58.667 -218 161.667 -218 309c0 117.333 52 212.333 156 285c92.667 64 200 96 322 96
c131.333 0 242.666 -31.333 333.999 -94c104.667 -72 157 -171 157 -297h-130c0 92 -37.333 160.667 -112 206c-60.667 36.667 -140 55 -238 55c-239.333 0 -359 -83.333 -359 -250zM653.001 -209c0 7.33301 -27.333 38 -82 92l-101 98h129c14 -20 38.333 -39.667 73 -59
c38.667 -20.667 64 -37.667 76 -51c23.333 -26 35 -61.667 35 -107c0 -80.667 -57.333 -121 -172 -121l-68 113c36 9.33301 72.667 21 110 35z" />
    <glyph glyph-name="scedilla" unicode="&#x15f;" horiz-adv-x="1003" 
d="M183 281c4 -59.333 44.001 -104.664 120.001 -135.997c58 -23.333 122.333 -35 193 -35c60 0 115.333 10.667 166 32c66 27.333 99 66.666 99 117.999c0 60 -40 102.333 -120 127c-20.667 6 -104.667 20 -252 42c-108.667 16 -183.667 41.333 -225 76
c-38.667 31.333 -64.334 58.666 -77.001 81.999c-14.667 26 -22 62.333 -22 109c0 92 46.333 163.667 139 215c76 42.667 164 64 264 64c104 0 195 -20.333 273 -61c94.667 -49.333 148.334 -120.333 161.001 -213l-126 -27c-24.667 116 -134.334 174 -329.001 174
c-60 0 -113 -10 -159 -30c-61.333 -26.667 -92 -66.334 -92 -119.001c0 -72.667 54.667 -121.667 164 -147l253 -29c83.333 -12 158.333 -45.667 225 -101c40 -33.333 60 -87.333 60 -162c0 -88.667 -48 -159.667 -144 -213c-80 -44.667 -168.333 -67 -265 -67
c-103.333 0 -194 20.333 -272 61c-94 49.333 -147.333 120.333 -160 213zM583.001 -208.998c0 7.33301 -27.333 38 -82 92l-101 98h129c14 -20 38.333 -39.667 73 -59c38.667 -20.667 64 -37.667 76 -51c23.333 -26 35 -61.667 35 -107c0 -80.667 -57.333 -121 -172 -121
l-68 113c36 9.33301 72.667 21 110 35z" />
    <glyph glyph-name="Scaron" unicode="&#x160;" horiz-adv-x="1125" 
d="M190 999c0 -109.333 72.668 -184.333 218.001 -225l404 -101c144.667 -59.333 217 -165.333 217 -318c0 -113.333 -54.667 -206.666 -164 -279.999c-96.667 -64.667 -204.667 -97 -324 -97c-126 0 -234.333 33 -325 99c-100 73.333 -152 170.666 -156 291.999h130
c4 -90 41.667 -157.667 113 -203c61.333 -38.667 140 -58 236 -58c91.333 0 170.333 18.667 237 56c82 46 123 110.667 123 194c0 109.333 -72.333 185.333 -217 228l-404 103c-145.333 58.667 -218 161.667 -218 309c0 117.333 52 212.333 156 285c92.667 64 200 96 322 96
c131.333 0 242.666 -31.333 333.999 -94c104.667 -72 157 -171 157 -297h-130c0 92 -37.333 160.667 -112 206c-60.667 36.667 -140 55 -238 55c-239.333 0 -359 -83.333 -359 -250zM259.001 1723h164l113 -158l113 158h164l-194 -271h-167z" />
    <glyph glyph-name="scaron" unicode="&#x161;" horiz-adv-x="955" 
d="M190 281c4 -59.333 44.001 -104.664 120.001 -135.997c58 -23.333 122.333 -35 193 -35c60 0 115.333 10.667 166 32c66 27.333 99 66.666 99 117.999c0 60 -40 102.333 -120 127c-20.667 6 -104.667 20 -252 42c-108.667 16 -183.667 41.333 -225 76
c-38.667 31.333 -64.334 58.666 -77.001 81.999c-14.667 26 -22 62.333 -22 109c0 92 46.333 163.667 139 215c76 42.667 164 64 264 64c104 0 195 -20.333 273 -61c94.667 -49.333 148.334 -120.333 161.001 -213l-126 -27c-24.667 116 -134.334 174 -329.001 174
c-60 0 -113 -10 -159 -30c-61.333 -26.667 -92 -66.334 -92 -119.001c0 -72.667 54.667 -121.667 164 -147l253 -29c83.333 -12 158.333 -45.667 225 -101c40 -33.333 60 -87.333 60 -162c0 -88.667 -48 -159.667 -144 -213c-80 -44.667 -168.333 -67 -265 -67
c-103.333 0 -194 20.333 -272 61c-94 49.333 -147.333 120.333 -160 213zM173.001 1355h164l113 -158l113 158h164l-194 -271h-167z" />
    <glyph glyph-name="uni0162" unicode="&#x162;" horiz-adv-x="1060" 
d="M558 1225v-1225h-130v1225h-407v130h954v-130h-417zM606 -181c0 7.33301 -27.333 38 -82 92l-101 98h129c14 -20 38.333 -39.667 73 -59c38.667 -20.667 64 -37.667 76 -51c23.333 -26 35 -61.667 35 -107c0 -80.667 -57.333 -121 -172 -121l-68 113
c36 9.33301 72.667 21 110 35z" />
    <glyph glyph-name="uni0163" unicode="&#x163;" horiz-adv-x="612" 
d="M306 957h240.999v-130h-241v-595c0 -70 48.667 -105 146 -105c12 0 28.667 0.5 50 1.5s36.333 1.5 45 1.5v-130h-141c-65.333 -0 -120 22.333 -164 67s-66 99.667 -66 165v595h-150v130c74.667 0 120.334 17 137.001 51c8.66699 17.333 13 69 13 155h130v-206z
M484.999 -180c0 7.33301 -27.333 38 -82 92l-101 98h129c14 -20 38.333 -39.667 73 -59c38.667 -20.667 64 -37.667 76 -51c23.333 -26 35 -61.667 35 -107c0 -80.667 -57.333 -121 -172 -121l-68 113c36 9.33301 72.667 21 110 35z" />
    <glyph glyph-name="Tcaron" unicode="&#x164;" horiz-adv-x="1060" 
d="M558 1225v-1225h-130v1225h-407v130h954v-130h-417zM206 1734h164l113 -158l113 158h164l-194 -271h-167z" />
    <glyph glyph-name="tcaron" unicode="&#x165;" horiz-adv-x="612" 
d="M306 957h240.999v-130h-241v-595c0 -70 48.667 -105 146 -105c12 0 28.667 0.5 50 1.5s36.333 1.5 45 1.5v-130h-141c-65.333 -0 -120 22.333 -164 67s-66 99.667 -66 165v595h-150v130c74.667 0 120.334 17 137.001 51c8.66699 17.333 13 69 13 155h130v-206z
M4.99902 1571h164l113 -158l113 158h164l-194 -271h-167z" />
    <glyph glyph-name="Tbar" unicode="&#x166;" horiz-adv-x="1060" 
d="M558 1225v-1225h-130v1225h-407v130h954v-130h-417zM237 799h523v-130h-523v130z" />
    <glyph glyph-name="tbar" unicode="&#x167;" horiz-adv-x="612" 
d="M306 957h240.999v-130h-241v-595c0 -70 48.667 -105 146 -105c12 0 28.667 0.5 50 1.5s36.333 1.5 45 1.5v-130h-141c-65.333 -0 -120 22.333 -164 67s-66 99.667 -66 165v595h-150v130c74.667 0 120.334 17 137.001 51c8.66699 17.333 13 69 13 155h130v-206z
M32.999 650h523v-130h-523v130z" />
    <glyph glyph-name="Utilde" unicode="&#x168;" horiz-adv-x="1150" 
d="M195 1355l-0.000976562 -867c0 -104 31.667 -192.333 95 -265c66 -76.667 150.333 -115 253 -115s187.334 39 254.001 117c63.333 73.333 95 162.333 95 267v863h130v-849c0 -140 -44.333 -261.667 -133 -365c-92.667 -108.667 -208 -163 -346 -163
s-253.333 54.333 -346 163c-88 103.333 -132 225 -132 365v849h130zM443.999 1682c34.667 0 76.501 -14 125.501 -42s81.833 -42 98.5 -42c29.333 0 55.333 27 78 81l123 -46c-41.333 -114 -110 -171 -206 -171c-38 0 -79.833 14.333 -125.5 43s-76.834 43 -93.501 43
c-30.667 0 -56.667 -27.333 -78 -82l-123 49c38.667 111.333 105.667 167 201 167z" />
    <glyph glyph-name="utilde" unicode="&#x169;" horiz-adv-x="1040" 
d="M904 0l-129.998 -0.000976562v137c-72.667 -106 -169.667 -159 -291 -159c-134.667 0 -239.334 47.333 -314.001 142c-68 86 -102 198 -102 336v501h130v-501c0 -93.333 24 -172.666 72 -237.999c53.333 -73.333 124.666 -110 213.999 -110c97.333 0 172 38.667 224 116
c44.667 67.333 67 152 67 254v479h130v-957zM384.002 1313c34.667 0 76.501 -14 125.501 -42s81.833 -42 98.5 -42c29.333 0 55.333 27 78 81l123 -46c-41.333 -114 -110 -171 -206 -171c-38 0 -79.833 14.333 -125.5 43s-76.834 43 -93.501 43
c-30.667 0 -56.667 -27.333 -78 -82l-123 49c38.667 111.333 105.667 167 201 167z" />
    <glyph glyph-name="Umacron" unicode="&#x16a;" horiz-adv-x="1150" 
d="M195 1355l-0.000976562 -867c0 -104 31.667 -192.333 95 -265c66 -76.667 150.333 -115 253 -115s187.334 39 254.001 117c63.333 73.333 95 162.333 95 267v863h130v-849c0 -140 -44.333 -261.667 -133 -365c-92.667 -108.667 -208 -163 -346 -163
s-253.333 54.333 -346 163c-88 103.333 -132 225 -132 365v849h130zM275.999 1585h523v-130h-523v130z" />
    <glyph glyph-name="umacron" unicode="&#x16b;" horiz-adv-x="1040" 
d="M904 0l-129.998 -0.000976562v137c-72.667 -106 -169.667 -159 -291 -159c-134.667 0 -239.334 47.333 -314.001 142c-68 86 -102 198 -102 336v501h130v-501c0 -93.333 24 -172.666 72 -237.999c53.333 -73.333 124.666 -110 213.999 -110c97.333 0 172 38.667 224 116
c44.667 67.333 67 152 67 254v479h130v-957zM226.002 1216h523v-130h-523v130z" />
    <glyph glyph-name="Ubreve" unicode="&#x16c;" horiz-adv-x="1150" 
d="M195 1355l-0.000976562 -867c0 -104 31.667 -192.333 95 -265c66 -76.667 150.333 -115 253 -115s187.334 39 254.001 117c63.333 73.333 95 162.333 95 267v863h130v-849c0 -140 -44.333 -261.667 -133 -365c-92.667 -108.667 -208 -163 -346 -163
s-253.333 54.333 -346 163c-88 103.333 -132 225 -132 365v849h130zM546.999 1582c97.333 0 171.333 35.333 222 106l105 -74c-79.333 -108.667 -188.333 -163 -327 -163s-247.667 54.333 -327 163l105 74c50.667 -70.667 124.667 -106 222 -106z" />
    <glyph glyph-name="ubreve" unicode="&#x16d;" horiz-adv-x="1040" 
d="M904 0l-129.998 -0.000976562v137c-72.667 -106 -169.667 -159 -291 -159c-134.667 0 -239.334 47.333 -314.001 142c-68 86 -102 198 -102 336v501h130v-501c0 -93.333 24 -172.666 72 -237.999c53.333 -73.333 124.666 -110 213.999 -110c97.333 0 172 38.667 224 116
c44.667 67.333 67 152 67 254v479h130v-957zM482.002 1214c97.333 0 171.333 35.333 222 106l105 -74c-79.333 -108.667 -188.333 -163 -327 -163s-247.667 54.333 -327 163l105 74c50.667 -70.667 124.667 -106 222 -106z" />
    <glyph glyph-name="Uring" unicode="&#x16e;" horiz-adv-x="1150" 
d="M195 1355l-0.000976562 -867c0 -104 31.667 -192.333 95 -265c66 -76.667 150.333 -115 253 -115s187.334 39 254.001 117c63.333 73.333 95 162.333 95 267v863h130v-849c0 -140 -44.333 -261.667 -133 -365c-92.667 -108.667 -208 -163 -346 -163
s-253.333 54.333 -346 163c-88 103.333 -132 225 -132 365v849h130zM531.999 1764c44.667 0 83 -15.167 115 -45.5s48 -67.833 48 -112.5c0 -44 -16 -81.167 -48 -111.5s-70.333 -45.5 -115 -45.5c-43.333 0 -80.666 15.5 -111.999 46.5s-47 67.833 -47 110.5
c0 43.333 15.667 80.5 47 111.5s68.666 46.5 111.999 46.5zM531.999 1684c-21.333 0 -39.833 -7.66699 -55.5 -23s-23.5 -33.666 -23.5 -54.999c0 -22 7.66699 -40.333 23 -55s34 -22 56 -22s41.333 7.33301 58 22s25 33 25 55c0 21.333 -8.5 39.666 -25.5 54.999
s-36.167 23 -57.5 23z" />
    <glyph glyph-name="uring" unicode="&#x16f;" horiz-adv-x="1040" 
d="M904 0l-129.998 -0.000976562v137c-72.667 -106 -169.667 -159 -291 -159c-134.667 0 -239.334 47.333 -314.001 142c-68 86 -102 198 -102 336v501h130v-501c0 -93.333 24 -172.666 72 -237.999c53.333 -73.333 124.666 -110 213.999 -110c97.333 0 172 38.667 224 116
c44.667 67.333 67 152 67 254v479h130v-957zM472.002 1405c44.667 0 83 -15.167 115 -45.5s48 -67.833 48 -112.5c0 -44 -16 -81.167 -48 -111.5s-70.333 -45.5 -115 -45.5c-43.333 0 -80.666 15.5 -111.999 46.5s-47 67.833 -47 110.5c0 43.333 15.667 80.5 47 111.5
s68.666 46.5 111.999 46.5zM472.002 1325c-21.333 0 -39.833 -7.66699 -55.5 -23s-23.5 -33.666 -23.5 -54.999c0 -22 7.66699 -40.333 23 -55s34 -22 56 -22s41.333 7.33301 58 22s25 33 25 55c0 21.333 -8.5 39.666 -25.5 54.999s-36.167 23 -57.5 23z" />
    <glyph glyph-name="uni0170" unicode="&#x170;" horiz-adv-x="1150" 
d="M195 1355l-0.000976562 -867c0 -104 31.667 -192.333 95 -265c66 -76.667 150.333 -115 253 -115s187.334 39 254.001 117c63.333 73.333 95 162.333 95 267v863h130v-849c0 -140 -44.333 -261.667 -133 -365c-92.667 -108.667 -208 -163 -346 -163
s-253.333 54.333 -346 163c-88 103.333 -132 225 -132 365v849h130zM223.999 1504l200 211h235l-377 -268zM562.999 1504l200 211h235l-377 -268z" />
    <glyph glyph-name="uni0171" unicode="&#x171;" horiz-adv-x="1040" 
d="M904 0l-129.998 -0.000976562v137c-72.667 -106 -169.667 -159 -291 -159c-134.667 0 -239.334 47.333 -314.001 142c-68 86 -102 198 -102 336v501h130v-501c0 -93.333 24 -172.666 72 -237.999c53.333 -73.333 124.666 -110 213.999 -110c97.333 0 172 38.667 224 116
c44.667 67.333 67 152 67 254v479h130v-957zM171.002 1137l200 211h235l-377 -268zM510.002 1137l200 211h235l-377 -268z" />
    <glyph glyph-name="Uogonek" unicode="&#x172;" horiz-adv-x="1150" 
d="M195 1355l-0.000976562 -867c0 -104 31.667 -192.333 95 -265c66 -76.667 150.333 -115 253 -115s187.334 39 254.001 117c63.333 73.333 95 162.333 95 267v863h130v-849c0 -140 -44.333 -261.667 -133 -365c-92.667 -108.667 -208 -163 -346 -163
s-253.333 54.333 -346 163c-88 103.333 -132 225 -132 365v849h130zM450.999 -209c0 7.33301 27.333 38 82 92l101 98h-129c-14 -20 -38.333 -39.667 -73 -59c-38.667 -20.667 -64 -37.667 -76 -51c-23.333 -26 -35 -61.667 -35 -107c0 -80.667 57.333 -121 172 -121l68 113
c-36 9.33301 -72.667 21 -110 35z" />
    <glyph glyph-name="uogonek" unicode="&#x173;" horiz-adv-x="1040" 
d="M904 0l-129.998 -0.000976562v137c-72.667 -106 -169.667 -159 -291 -159c-134.667 0 -239.334 47.333 -314.001 142c-68 86 -102 198 -102 336v501h130v-501c0 -93.333 24 -172.666 72 -237.999c53.333 -73.333 124.666 -110 213.999 -110c97.333 0 172 38.667 224 116
c44.667 67.333 67 152 67 254v479h130v-957zM381.002 -219.001c0 7.33301 27.333 38 82 92l101 98h-129c-14 -20 -38.333 -39.667 -73 -59c-38.667 -20.667 -64 -37.667 -76 -51c-23.333 -26 -35 -61.667 -35 -107c0 -80.667 57.333 -121 172 -121l68 113
c-36 9.33301 -72.667 21 -110 35z" />
    <glyph glyph-name="Wcircumflex" unicode="&#x174;" horiz-adv-x="1459" 
d="M1188 1355h137l-243 -1355h-141l-253 1071l-257 -1071h-135l-243 1355h135l188 -1059l246 1059h129l252 -1059zM406 1450h164l113 158l113 -158h164l-194 271h-167z" />
    <glyph glyph-name="wcircumflex" unicode="&#x175;" horiz-adv-x="1439" 
d="M395 0l-335 957h137l259 -739l167 476l-93 263h137l262 -744l258 744h138l-334 -957h-125l-174 498l-176 -498h-121zM418 1084h164l113 158l113 -158h164l-194 271h-167z" />
    <glyph glyph-name="Ycircumflex" unicode="&#x176;" horiz-adv-x="1048" 
d="M428 681l-402 674h152l315 -543l318 543h153l-403 -674v-681h-133v681zM218 1450h164l113 158l113 -158h164l-194 271h-167z" />
    <glyph glyph-name="ycircumflex" unicode="&#x177;" horiz-adv-x="1104" 
d="M253 -269c88 -1.33301 142.333 23.667 163 75l103 259l-486 892h148l400 -735l292 735h140l-458 -1151c-55.333 -138.667 -152 -207 -290 -205h-12v130zM265 1084h164l113 158l113 -158h164l-194 271h-167z" />
    <glyph glyph-name="Ydieresis" unicode="&#x178;" horiz-adv-x="1048" 
d="M435 681l-402 674h152l315 -543l318 543h153l-403 -674v-681h-133v681zM562 1544c0 28 9.66699 52.333 29 73s43 31 71 31c27.333 0 50.666 -10.5 69.999 -31.5s29 -45.167 29 -72.5s-9.66699 -50.5 -29 -69.5s-42.666 -28.5 -69.999 -28.5c-28 0 -51.667 9.5 -71 28.5
s-29 42.167 -29 69.5zM203 1544c0 28 9.5 52.333 28.5 73s42.167 31 69.5 31s50.5 -10.5 69.5 -31.5s28.5 -45.167 28.5 -72.5s-9.5 -50.5 -28.5 -69.5s-42.167 -28.5 -69.5 -28.5c-28 0 -51.333 9.33301 -70 28s-28 42 -28 70z" />
    <glyph glyph-name="Zacute" unicode="&#x179;" horiz-adv-x="1031" 
d="M50 1355h877v-144l-728 -1081h730v-130h-880v156l715 1074h-714v125zM390 1510l200 211h235l-377 -268z" />
    <glyph glyph-name="zacute" unicode="&#x17a;" horiz-adv-x="1000" 
d="M223 130h657v-130h-812v167l626 660h-625v130h811v-133zM378 1133l200 211h235l-377 -268z" />
    <glyph glyph-name="uni017B" unicode="&#x17b;" horiz-adv-x="1031" 
d="M50 1355h877v-144l-728 -1081h730v-130h-880v156l715 1074h-714v125zM379 1560c0 31.333 10.5 57.666 31.5 78.999s47.167 32 78.5 32s57.333 -10.667 78 -32s31 -47.666 31 -78.999c0 -30.667 -10.5 -56.5 -31.5 -77.5s-46.833 -31.5 -77.5 -31.5s-56.667 10.5 -78 31.5
s-32 46.833 -32 77.5z" />
    <glyph glyph-name="uni017C" unicode="&#x17c;" horiz-adv-x="1000" 
d="M223 130h657v-130h-812v167l626 660h-625v130h811v-133zM367 1194c0 31.333 10.5 57.666 31.5 78.999s47.167 32 78.5 32s57.333 -10.667 78 -32s31 -47.666 31 -78.999c0 -30.667 -10.5 -56.5 -31.5 -77.5s-46.833 -31.5 -77.5 -31.5s-56.667 10.5 -78 31.5
s-32 46.833 -32 77.5z" />
    <glyph glyph-name="Zcaron" unicode="&#x17d;" horiz-adv-x="1031" 
d="M50 1355h877v-144l-728 -1081h730v-130h-880v156l715 1074h-714v125zM187 1715h164l113 -158l113 158h164l-194 -271h-167z" />
    <glyph glyph-name="zcaron" unicode="&#x17e;" horiz-adv-x="1000" 
d="M223 130h657v-130h-812v167l626 660h-625v130h811v-133zM179 1364h164l113 -158l113 158h164l-194 -271h-167z" />
    <glyph glyph-name="uni0192" unicode="&#x192;" horiz-adv-x="642" 
d="M30 -211c53.333 0 97.333 14 132 42c37.333 30.667 56 72.334 56 125.001v867h-78v130h78v98c0 90.667 31 164 93 220c60 53.333 135.667 80 227 80v-133c-53.333 0 -97.333 -14 -132 -42c-37.333 -30.667 -56 -72.334 -56 -125.001v-98h188v-130h-188v-867
c0 -90.667 -31 -164 -93 -220c-60 -53.333 -135.667 -80 -227 -80v133z" />
    <glyph glyph-name="Uhorn" unicode="&#x1af;" horiz-adv-x="1458" 
d="M195 1355l-0.000976562 -867c0 -104 31.667 -192.333 95 -265c66 -76.667 150.333 -115 253 -115s187.334 39 254.001 117c63.333 73.333 95 162.333 95 267v863h130v-849c0 -140 -44.333 -261.667 -133 -365c-92.667 -108.667 -208 -163 -346 -163
s-253.333 54.333 -346 163c-88 103.333 -132 225 -132 365v849h130zM1258 1380c29.333 0 55.168 -10.832 77.501 -32.499s33.5 -47.167 33.5 -76.5c0 -70 -21 -133.333 -63 -190c-45.333 -60.667 -102 -94 -170 -100l-15 58c80.667 31.333 122.667 69.666 126 114.999
c-31.333 2 -57.333 13.5 -78 34.5s-31 47.167 -31 78.5c0 33.333 11.667 60.5 35 81.5s51.666 31.5 84.999 31.5z" />
    <glyph glyph-name="uhorn" unicode="&#x1b0;" horiz-adv-x="1299" 
d="M904 0l-129.998 -0.000976562v137c-72.667 -106 -169.667 -159 -291 -159c-134.667 0 -239.334 47.333 -314.001 142c-68 86 -102 198 -102 336v501h130v-501c0 -93.333 24 -172.666 72 -237.999c53.333 -73.333 124.666 -110 213.999 -110c97.333 0 172 38.667 224 116
c44.667 67.333 67 152 67 254v479h130v-957zM1143 946.999c29.333 0 55.168 -10.832 77.501 -32.499s33.5 -47.167 33.5 -76.5c0 -70 -21 -133.333 -63 -190c-45.333 -60.667 -102 -94 -170 -100l-15 58c80.667 31.333 122.667 69.666 126 114.999
c-31.333 2 -57.333 13.5 -78 34.5s-31 47.167 -31 78.5c0 33.333 11.667 60.5 35 81.5s51.666 31.5 84.999 31.5z" />
    <glyph glyph-name="uni01CD" unicode="&#x1cd;" horiz-adv-x="1150" 
d="M695 649l-152 510l-156 -510h308zM888 0l-156 517h-384l-156 -517h-135l406 1355h160l406 -1355h-141zM264 1721h164l113 -158l113 158h164l-194 -271h-167z" />
    <glyph glyph-name="uni01CE" unicode="&#x1ce;" horiz-adv-x="1066" 
d="M497 108c60 0 120.33 10.334 180.997 31.001c81.333 27.333 122 64.666 122 111.999v220c-1.33301 -10 -58.666 -16.667 -171.999 -20c-89.333 -3.33301 -153.666 -9.33301 -192.999 -18c-73.333 -15.333 -127.666 -46 -162.999 -92c-24.667 -32 -37 -62 -37 -90
c0 -95.333 87.333 -143 262 -143zM799.997 705.001c0 44 -33.668 81.0039 -101.001 111.004c-55.333 24 -108.333 36 -159 36c-166 0 -269 -58 -309 -174l-126 27c18 94.667 69.667 165.667 155 213c72 40.667 160.333 61 265 61c86.667 0 171.334 -20 254.001 -60
c100.667 -48.667 151 -111.334 151 -188.001v-579c0 -26.667 16 -41.334 48 -44.001c-1.33301 -21.333 -3 -64.333 -5 -129c-72 4 -122.333 33 -151 87c-82 -58.667 -188 -88 -318 -88c-271.333 0 -407 91.667 -407 275c0 49.333 16.667 98.666 50 147.999
c47.333 71.333 113.333 118 198 140c42 11.333 118 18.333 228 21c92 2.66699 158.333 15 199 37c17.333 9.33301 27 24.666 29 45.999c-0.666992 -7.33301 -1 12.667 -1 60zM251.996 1355h164l113 -158l113 158h164l-194 -271h-167z" />
    <glyph glyph-name="uni01CF" unicode="&#x1cf;" horiz-adv-x="612" 
d="M49 130h171v1096h-171v129h479v-129h-176v-1096h176v-130h-479v130zM17 1721h164l113 -158l113 158h164l-194 -271h-167z" />
    <glyph glyph-name="uni01D0" unicode="&#x1d0;" horiz-adv-x="578" 
d="M133 957h257v-957h-130v827h-127v130zM5 1355h164l113 -158l113 158h164l-194 -271h-167z" />
    <glyph glyph-name="uni01D1" unicode="&#x1d1;" horiz-adv-x="1132" 
d="M187 490c0 -106.667 32 -196 96 -268c66 -76 151.667 -114 257 -114s191 38 257 114c64 72 96 161.333 96 268v377c0 106.667 -32 196 -96 268c-66 76 -151.667 114 -257 114s-191 -38 -257 -114c-64 -72 -96 -161.333 -96 -268v-377zM1023 506
c0 -142.667 -44.333 -265 -133 -367c-92.667 -107.333 -209.334 -161 -350.001 -161s-257.334 53.667 -350.001 161c-88.667 102 -133 224.333 -133 367v345c0 142.667 44.333 265 133 367c92.667 107.333 209.334 161 350.001 161s257.334 -53.667 350.001 -161
c88.667 -102 133 -224.333 133 -367v-345zM252 1721h164l113 -158l113 158h164l-194 -271h-167z" />
    <glyph glyph-name="uni01D2" unicode="&#x1d2;" horiz-adv-x="1125" 
d="M530 849c-98 0 -180.999 -38 -248.999 -114c-66 -73.333 -99 -159.333 -99 -258s33 -184.334 99 -257.001c68.667 -74.667 151.667 -112 249 -112s180.666 37.333 249.999 112c67.333 73.333 101 159 101 257c0 98.667 -34 185.334 -102 260.001s-151 112 -249 112z
M530.001 979c132.667 0 246 -50.332 340 -150.999s141 -217.667 141 -351c0 -132.667 -46.667 -248.667 -140 -348c-95.333 -100.667 -209 -151 -341 -151s-245 50.667 -339 152c-92.667 99.333 -139 215.333 -139 348c0 133.333 46.5 250.166 139.5 350.499
s205.833 150.5 338.5 150.5zM252.001 1355h164l113 -158l113 158h164l-194 -271h-167z" />
    <glyph glyph-name="uni01D3" unicode="&#x1d3;" horiz-adv-x="1150" 
d="M195 1355l-0.000976562 -867c0 -104 31.667 -192.333 95 -265c66 -76.667 150.333 -115 253 -115s187.334 39 254.001 117c63.333 73.333 95 162.333 95 267v863h130v-849c0 -140 -44.333 -261.667 -133 -365c-92.667 -108.667 -208 -163 -346 -163
s-253.333 54.333 -346 163c-88 103.333 -132 225 -132 365v849h130zM251.999 1721h164l113 -158l113 158h164l-194 -271h-167z" />
    <glyph glyph-name="uni01D4" unicode="&#x1d4;" horiz-adv-x="1040" 
d="M904 0l-129.998 -0.000976562v137c-72.667 -106 -169.667 -159 -291 -159c-134.667 0 -239.334 47.333 -314.001 142c-68 86 -102 198 -102 336v501h130v-501c0 -93.333 24 -172.666 72 -237.999c53.333 -73.333 124.666 -110 213.999 -110c97.333 0 172 38.667 224 116
c44.667 67.333 67 152 67 254v479h130v-957zM252.002 1355h164l113 -158l113 158h164l-194 -271h-167z" />
    <glyph glyph-name="circumflex" unicode="&#x2c6;" horiz-adv-x="692" 
d="M76 1084h164l113 158l113 -158h164l-194 271h-167z" />
    <glyph glyph-name="caron" unicode="&#x2c7;" horiz-adv-x="1038" 
d="M252 1355h164l113 -158l113 158h164l-194 -271h-167z" />
    <glyph glyph-name="breve" unicode="&#x2d8;" horiz-adv-x="785" 
d="M395 1214c97.333 0 171.333 35.333 222 106l105 -74c-79.333 -108.667 -188.333 -163 -327 -163s-247.667 54.333 -327 163l105 74c50.667 -70.667 124.667 -106 222 -106z" />
    <glyph glyph-name="ring" unicode="&#x2da;" horiz-adv-x="514" 
d="M243 1355c44.667 0 83 -15.167 115 -45.5s48 -67.833 48 -112.5c0 -44 -16 -81.167 -48 -111.5s-70.333 -45.5 -115 -45.5c-43.333 0 -80.666 15.5 -111.999 46.5s-47 67.833 -47 110.5c0 43.333 15.667 80.5 47 111.5s68.666 46.5 111.999 46.5zM243 1275
c-21.333 0 -39.833 -7.66699 -55.5 -23s-23.5 -33.666 -23.5 -54.999c0 -22 7.66699 -40.333 23 -55s34 -22 56 -22s41.333 7.33301 58 22s25 33 25 55c0 21.333 -8.5 39.666 -25.5 54.999s-36.167 23 -57.5 23z" />
    <glyph glyph-name="ogonek" unicode="&#x2db;" horiz-adv-x="462" 
d="M191 -190c0 7.33301 27.333 38 82 92l101 98h-129c-14 -20 -38.333 -39.667 -73 -59c-38.667 -20.667 -64 -37.667 -76 -51c-23.333 -26 -35 -61.667 -35 -107c0 -80.667 57.333 -121 172 -121l68 113c-36 9.33301 -72.667 21 -110 35z" />
    <glyph glyph-name="tilde" unicode="&#x2dc;" horiz-adv-x="758" 
d="M245 1173c34.667 0 76.501 -14 125.501 -42s81.833 -42 98.5 -42c29.333 0 55.333 27 78 81l123 -46c-41.333 -114 -110 -171 -206 -171c-38 0 -79.833 14.333 -125.5 43s-76.834 43 -93.501 43c-30.667 0 -56.667 -27.333 -78 -82l-123 49
c38.667 111.333 105.667 167 201 167z" />
    <glyph glyph-name="hungarumlaut" unicode="&#x2dd;" horiz-adv-x="956" 
d="M84 1244l200 211h235l-377 -268zM423 1244l200 211h235l-377 -268z" />
    <glyph glyph-name="uni038F" unicode="&#x38f;" horiz-adv-x="1308" 
d="M636 1204c174 0 316.999 -67.665 428.999 -202.998c105.333 -127.333 158 -279.666 158 -456.999c0 -154.667 -69 -304 -207 -448h157v-132h-384v132h36c78 45.333 142.167 111.833 192.5 199.5s75.5 176.5 75.5 266.5c0 134 -42 251.667 -126 353
c-89.333 106.667 -199.666 160 -330.999 160s-241.666 -53.333 -330.999 -160c-84 -101.333 -126 -219 -126 -353c0 -90.667 24 -179.334 72 -266.001c49.333 -88.667 112.666 -155.334 189.999 -200.001h36v-132h-384v132h157c-134 139.333 -201 288.333 -201 447
c0 177.333 52.667 329.666 158 456.999c111.333 136 254.333 204 429 204zM7.99902 1128l200 211h235l-377 -268z" />
    <glyph glyph-name="uni0390" unicode="&#x390;" horiz-adv-x="684" 
d="M170 957h257v-957h-130v827h-127v130zM394 1187c0 28 9.66699 52.333 29 73s43 31 71 31c27.333 0 50.666 -10.5 69.999 -31.5s29 -45.167 29 -72.5s-9.66699 -50.5 -29 -69.5s-42.666 -28.5 -69.999 -28.5c-28 0 -51.667 9.5 -71 28.5s-29 42.167 -29 69.5zM35 1187
c0 28 9.5 52.333 28.5 73s42.167 31 69.5 31s50.5 -10.5 69.5 -31.5s28.5 -45.167 28.5 -72.5s-9.5 -50.5 -28.5 -69.5s-42.167 -28.5 -69.5 -28.5c-28 0 -51.333 9.33301 -70 28s-28 42 -28 70zM238 1387l200 211h235l-377 -268z" />
    <glyph glyph-name="Alpha" unicode="&#x391;" horiz-adv-x="0" 
d="M695 649l-152 510l-156 -510h308zM888 0l-156 517h-384l-156 -517h-135l406 1355h160l406 -1355h-141z" />
    <glyph glyph-name="Beta" unicode="&#x392;" horiz-adv-x="1120" 
d="M204 591l0.000976562 -461h357c73.333 0 142.666 20.667 207.999 62c74 46.667 111 104.667 111 174c0 70 -37.333 126.667 -112 170c-63.333 36.667 -132.333 55 -207 55h-357zM204.001 1225l0.000976562 -500h299c79.333 0 148.666 21.333 207.999 64
c66.667 48 100 110 100 186c0 74 -33 135.333 -99 184c-60 44 -128.333 66 -205 66h-303zM500.002 1355c119.333 0 220.668 -33 304.001 -99c91.333 -71.333 137 -165 137 -281c0 -122 -53 -220 -159 -294c149.333 -71.333 224 -176.333 224 -315
c0 -110.667 -47.667 -201 -143 -271c-86.667 -63.333 -187.334 -95 -302.001 -95h-487v1355h426z" />
    <glyph glyph-name="Gamma" unicode="&#x393;" horiz-adv-x="895" 
d="M82 0v1270h726v-130h-596v-1140h-130z" />
    <glyph glyph-name="Delta" unicode="&#x394;" horiz-adv-x="1080" 
d="M879 130l-353 845l-354 -845h707zM15 90l450 1076h119l450 -1071l-55 -94h-900z" />
    <glyph glyph-name="Delta" unicode="&#x2206;" horiz-adv-x="1080" 
d="M879 130l-353 845l-354 -845h707zM15 90l450 1076h119l450 -1071l-55 -94h-900z" />
    <glyph glyph-name="Omega" unicode="&#x3a9;" horiz-adv-x="1308" 
d="M636 1204c174 0 316.999 -67.665 428.999 -202.998c105.333 -127.333 158 -279.666 158 -456.999c0 -154.667 -69 -304 -207 -448h157v-132h-384v132h36c78 45.333 142.167 111.833 192.5 199.5s75.5 176.5 75.5 266.5c0 134 -42 251.667 -126 353
c-89.333 106.667 -199.666 160 -330.999 160s-241.666 -53.333 -330.999 -160c-84 -101.333 -126 -219 -126 -353c0 -90.667 24 -179.334 72 -266.001c49.333 -88.667 112.666 -155.334 189.999 -200.001h36v-132h-384v132h157c-134 139.333 -201 288.333 -201 447
c0 177.333 52.667 329.666 158 456.999c111.333 136 254.333 204 429 204z" />
    <glyph glyph-name="Omega" unicode="&#x2126;" horiz-adv-x="1308" 
d="M636 1204c174 0 316.999 -67.665 428.999 -202.998c105.333 -127.333 158 -279.666 158 -456.999c0 -154.667 -69 -304 -207 -448h157v-132h-384v132h36c78 45.333 142.167 111.833 192.5 199.5s75.5 176.5 75.5 266.5c0 134 -42 251.667 -126 353
c-89.333 106.667 -199.666 160 -330.999 160s-241.666 -53.333 -330.999 -160c-84 -101.333 -126 -219 -126 -353c0 -90.667 24 -179.334 72 -266.001c49.333 -88.667 112.666 -155.334 189.999 -200.001h36v-132h-384v132h157c-134 139.333 -201 288.333 -201 447
c0 177.333 52.667 329.666 158 456.999c111.333 136 254.333 204 429 204z" />
    <glyph glyph-name="glyph227" unicode="&#x1e00;" horiz-adv-x="1150" 
d="M695 649l-152 510l-156 -510h308zM888 0l-156 517h-384l-156 -517h-135l406 1355h160l406 -1355h-141zM543 -87c44.667 0 83 -15.167 115 -45.5s48 -67.833 48 -112.5c0 -44 -16 -81.167 -48 -111.5s-70.333 -45.5 -115 -45.5c-43.333 0 -80.666 15.5 -111.999 46.5
s-47 67.833 -47 110.5c0 43.333 15.667 80.5 47 111.5s68.666 46.5 111.999 46.5zM543 -167c-21.333 0 -39.833 -7.66699 -55.5 -23s-23.5 -33.666 -23.5 -54.999c0 -22 7.66699 -40.333 23 -55s34 -22 56 -22s41.333 7.33301 58 22s25 33 25 55
c0 21.333 -8.5 39.666 -25.5 54.999s-36.167 23 -57.5 23z" />
    <glyph glyph-name="glyph228" unicode="&#x1e01;" horiz-adv-x="1066" 
d="M497 108c60 0 120.33 10.334 180.997 31.001c81.333 27.333 122 64.666 122 111.999v220c-1.33301 -10 -58.666 -16.667 -171.999 -20c-89.333 -3.33301 -153.666 -9.33301 -192.999 -18c-73.333 -15.333 -127.666 -46 -162.999 -92c-24.667 -32 -37 -62 -37 -90
c0 -95.333 87.333 -143 262 -143zM799.997 705.001c0 44 -33.668 81.0039 -101.001 111.004c-55.333 24 -108.333 36 -159 36c-166 0 -269 -58 -309 -174l-126 27c18 94.667 69.667 165.667 155 213c72 40.667 160.333 61 265 61c86.667 0 171.334 -20 254.001 -60
c100.667 -48.667 151 -111.334 151 -188.001v-579c0 -26.667 16 -41.334 48 -44.001c-1.33301 -21.333 -3 -64.333 -5 -129c-72 4 -122.333 33 -151 87c-82 -58.667 -188 -88 -318 -88c-271.333 0 -407 91.667 -407 275c0 49.333 16.667 98.666 50 147.999
c47.333 71.333 113.333 118 198 140c42 11.333 118 18.333 228 21c92 2.66699 158.333 15 199 37c17.333 9.33301 27 24.666 29 45.999c-0.666992 -7.33301 -1 12.667 -1 60zM517.996 -21.9951c44.667 0 83 -15.167 115 -45.5s48 -67.833 48 -112.5
c0 -44 -16 -81.167 -48 -111.5s-70.333 -45.5 -115 -45.5c-43.333 0 -80.666 15.5 -111.999 46.5s-47 67.833 -47 110.5c0 43.333 15.667 80.5 47 111.5s68.666 46.5 111.999 46.5zM517.996 -101.995c-21.333 0 -39.833 -7.66699 -55.5 -23s-23.5 -33.666 -23.5 -54.999
c0 -22 7.66699 -40.333 23 -55s34 -22 56 -22s41.333 7.33301 58 22s25 33 25 55c0 21.333 -8.5 39.666 -25.5 54.999s-36.167 23 -57.5 23z" />
    <glyph glyph-name="glyph232" unicode="&#x1e02;" horiz-adv-x="1120" 
d="M204 591l0.000976562 -461h357c73.333 0 142.666 20.667 207.999 62c74 46.667 111 104.667 111 174c0 70 -37.333 126.667 -112 170c-63.333 36.667 -132.333 55 -207 55h-357zM204.001 1225l0.000976562 -500h299c79.333 0 148.666 21.333 207.999 64
c66.667 48 100 110 100 186c0 74 -33 135.333 -99 184c-60 44 -128.333 66 -205 66h-303zM500.002 1355c119.333 0 220.668 -33 304.001 -99c91.333 -71.333 137 -165 137 -281c0 -122 -53 -220 -159 -294c149.333 -71.333 224 -176.333 224 -315
c0 -110.667 -47.667 -201 -143 -271c-86.667 -63.333 -187.334 -95 -302.001 -95h-487v1355h426zM317.004 1558c0 31.333 10.5 57.666 31.5 78.999s47.167 32 78.5 32s57.333 -10.667 78 -32s31 -47.666 31 -78.999c0 -30.667 -10.5 -56.5 -31.5 -77.5
s-46.833 -31.5 -77.5 -31.5s-56.667 10.5 -78 31.5s-32 46.833 -32 77.5z" />
    <glyph glyph-name="glyph233" unicode="&#x1e03;" horiz-adv-x="1138" 
d="M547 849c-96.667 0 -178 -37.998 -244 -113.998c-62.667 -72.667 -94 -158.334 -94 -257.001s32.333 -184.334 97 -257.001c66.667 -75.333 148.667 -113 246 -113s183.333 37.333 258 112s112 160.667 112 258s-38 183.5 -114 258.5s-163 112.5 -261 112.5zM547 979.002
c133.333 0 250.833 -50.168 352.5 -150.501s152.5 -217.166 152.5 -350.499c0 -132.667 -50.167 -249.167 -150.5 -349.5s-216.833 -150.5 -349.5 -150.5c-146.667 0 -262.667 65.333 -348 196v-174h-132v1355h132v-572c82 130.667 196.333 196 343 196zM443 1201
c0 31.333 10.5 57.666 31.5 78.999s47.167 32 78.5 32s57.333 -10.667 78 -32s31 -47.666 31 -78.999c0 -30.667 -10.5 -56.5 -31.5 -77.5s-46.833 -31.5 -77.5 -31.5s-56.667 10.5 -78 31.5s-32 46.833 -32 77.5z" />
    <glyph glyph-name="glyph234" unicode="&#x1e04;" horiz-adv-x="1120" 
d="M204 591l0.000976562 -461h357c73.333 0 142.666 20.667 207.999 62c74 46.667 111 104.667 111 174c0 70 -37.333 126.667 -112 170c-63.333 36.667 -132.333 55 -207 55h-357zM204.001 1225l0.000976562 -500h299c79.333 0 148.666 21.333 207.999 64
c66.667 48 100 110 100 186c0 74 -33 135.333 -99 184c-60 44 -128.333 66 -205 66h-303zM500.002 1355c119.333 0 220.668 -33 304.001 -99c91.333 -71.333 137 -165 137 -281c0 -122 -53 -220 -159 -294c149.333 -71.333 224 -176.333 224 -315
c0 -110.667 -47.667 -201 -143 -271c-86.667 -63.333 -187.334 -95 -302.001 -95h-487v1355h426zM322.004 -210c0 31.333 10.5 57.666 31.5 78.999s47.167 32 78.5 32s57.333 -10.667 78 -32s31 -47.666 31 -78.999c0 -30.667 -10.5 -56.5 -31.5 -77.5
s-46.833 -31.5 -77.5 -31.5s-56.667 10.5 -78 31.5s-32 46.833 -32 77.5z" />
    <glyph glyph-name="glyph235" unicode="&#x1e05;" horiz-adv-x="1138" 
d="M547 849c-96.667 0 -178 -37.998 -244 -113.998c-62.667 -72.667 -94 -158.334 -94 -257.001s32.333 -184.334 97 -257.001c66.667 -75.333 148.667 -113 246 -113s183.333 37.333 258 112s112 160.667 112 258s-38 183.5 -114 258.5s-163 112.5 -261 112.5zM547 979.002
c133.333 0 250.833 -50.168 352.5 -150.501s152.5 -217.166 152.5 -350.499c0 -132.667 -50.167 -249.167 -150.5 -349.5s-216.833 -150.5 -349.5 -150.5c-146.667 0 -262.667 65.333 -348 196v-174h-132v1355h132v-572c82 130.667 196.333 196 343 196zM441 -209.999
c0 31.333 10.5 57.666 31.5 78.999s47.167 32 78.5 32s57.333 -10.667 78 -32s31 -47.666 31 -78.999c0 -30.667 -10.5 -56.5 -31.5 -77.5s-46.833 -31.5 -77.5 -31.5s-56.667 10.5 -78 31.5s-32 46.833 -32 77.5z" />
    <glyph glyph-name="glyph236" unicode="&#x1e06;" horiz-adv-x="1120" 
d="M204 591l0.000976562 -461h357c73.333 0 142.666 20.667 207.999 62c74 46.667 111 104.667 111 174c0 70 -37.333 126.667 -112 170c-63.333 36.667 -132.333 55 -207 55h-357zM204.001 1225l0.000976562 -500h299c79.333 0 148.666 21.333 207.999 64
c66.667 48 100 110 100 186c0 74 -33 135.333 -99 184c-60 44 -128.333 66 -205 66h-303zM500.002 1355c119.333 0 220.668 -33 304.001 -99c91.333 -71.333 137 -165 137 -281c0 -122 -53 -220 -159 -294c149.333 -71.333 224 -176.333 224 -315
c0 -110.667 -47.667 -201 -143 -271c-86.667 -63.333 -187.334 -95 -302.001 -95h-487v1355h426zM182.004 -98h523v-130h-523v130z" />
    <glyph glyph-name="glyph237" unicode="&#x1e07;" horiz-adv-x="1138" 
d="M547 849c-96.667 0 -178 -37.998 -244 -113.998c-62.667 -72.667 -94 -158.334 -94 -257.001s32.333 -184.334 97 -257.001c66.667 -75.333 148.667 -113 246 -113s183.333 37.333 258 112s112 160.667 112 258s-38 183.5 -114 258.5s-163 112.5 -261 112.5zM547 979.002
c133.333 0 250.833 -50.168 352.5 -150.501s152.5 -217.166 152.5 -350.499c0 -132.667 -50.167 -249.167 -150.5 -349.5s-216.833 -150.5 -349.5 -150.5c-146.667 0 -262.667 65.333 -348 196v-174h-132v1355h132v-572c82 130.667 196.333 196 343 196zM301 -97.999h523
v-130h-523v130z" />
    <glyph glyph-name="glyph238" unicode="&#x1e08;" horiz-adv-x="1104" 
d="M57 851c0 142.667 44.333 265 133 367c92.667 107.333 209.334 161 350.001 161c120.667 0 225.334 -41 314.001 -123c84 -78.667 137 -178.667 159 -300h-128c-17.333 86 -57 156 -119 210c-64 55.333 -139.333 83 -226 83c-105.333 0 -191 -38 -257 -114
c-64 -72 -96 -161.333 -96 -268v-377c0 -106.667 32 -196 96 -268c66 -76 151.667 -114 257 -114c86.667 0 162 27.667 226 83c62 54 101.667 124 119 210h128c-22 -121.333 -75 -221.333 -159 -300c-88.667 -82 -193.334 -123 -314.001 -123
c-140.667 0 -257.334 53.667 -350.001 161c-88.667 102 -133 224.333 -133 367v345zM573 -191c0 7.33301 -27.333 38 -82 92l-101 98h129c14 -20 38.333 -39.667 73 -59c38.667 -20.667 64 -37.667 76 -51c23.333 -26 35 -61.667 35 -107c0 -80.667 -57.333 -121 -172 -121
l-68 113c36 9.33301 72.667 21 110 35zM509 1503l200 211h235l-377 -268z" />
    <glyph glyph-name="glyph239" unicode="&#x1e09;" horiz-adv-x="985" 
d="M529 979c90.667 0 174.332 -25.3311 250.999 -75.998c74 -48.667 132.333 -114.667 175 -198h-152c-71.333 96 -162.666 144 -273.999 144c-98 0 -181 -38 -249 -114c-66 -72.667 -99 -158.667 -99 -258c0 -98.667 33 -184.334 99 -257.001
c68.667 -74.667 151.667 -112 249 -112c100 0 188.667 44 266 132h155c-98 -174.667 -238.333 -262 -421 -262c-132 0 -245 50.667 -339 152c-92.667 99.333 -139 215.333 -139 348c0 133.333 46.5 250.166 139.5 350.499s205.833 150.5 338.5 150.5zM612.998 -208.998
c0 7.33301 -27.333 38 -82 92l-101 98h129c14 -20 38.333 -39.667 73 -59c38.667 -20.667 64 -37.667 76 -51c23.333 -26 35 -61.667 35 -107c0 -80.667 -57.333 -121 -172 -121l-68 113c36 9.33301 72.667 21 110 35zM458.998 1135l200 211h235l-377 -268z" />
    <glyph glyph-name="endash" unicode="&#x2013;" horiz-adv-x="966" 
d="M72 649h767v-132h-767v132z" />
    <glyph glyph-name="emdash" unicode="&#x2014;" horiz-adv-x="1584" 
d="M46 642h1405v-134h-1405v134z" />
    <glyph glyph-name="quoteleft" unicode="&#x2018;" horiz-adv-x="354" 
d="M137 960c-26.667 0 -50.167 11.335 -70.5 34.002s-30.5 47.334 -30.5 74.001c0 57.333 24.833 118.166 74.5 182.499s102.5 99.166 158.5 104.499c5.33301 -13.333 11 -33.333 17 -60l-1 -1c-82 -26 -123 -62.667 -123 -110c36 -20.667 59 -36.334 69 -47.001
c18 -18.667 27 -43.667 27 -75c0 -68 -40.333 -102 -121 -102z" />
    <glyph glyph-name="quoteright" unicode="&#x2019;" horiz-adv-x="354" 
d="M79 1207c0 25.333 11.6689 48.498 35.002 69.498s47.666 31.5 72.999 31.5c30.667 0 56.667 -10.5 78 -31.5s32 -46.833 32 -77.5c0 -60 -23.667 -121.333 -71 -184c-50 -65.333 -103.667 -101.666 -161 -108.999c-4.66699 13.333 -10.334 33.333 -17.001 60l1 2
c27.333 10 53.333 24.333 78 43c33.333 24.667 49 47.334 47 68.001c-63.333 44 -95 86.667 -95 128z" />
    <glyph glyph-name="quotesinglbase" unicode="&#x201a;" horiz-adv-x="360" 
d="M190 218c29.333 0 55.168 -10.832 77.501 -32.499s33.5 -47.167 33.5 -76.5c0 -70 -21 -133.333 -63 -190c-45.333 -60.667 -102 -94 -170 -100l-15 58c80.667 31.333 122.667 69.666 126 114.999c-31.333 2 -57.333 13.5 -78 34.5s-31 47.167 -31 78.5
c0 33.333 11.667 60.5 35 81.5s51.666 31.5 84.999 31.5z" />
    <glyph glyph-name="quotedblleft" unicode="&#x201c;" horiz-adv-x="698" 
d="M155 960c-26.667 0 -49.833 11.3301 -69.5 33.9971s-29.5 47.334 -29.5 74.001c0 58 24.333 118.333 73 181c50 65.333 103.333 100.666 160 105.999c10.667 -25.333 15.667 -45.666 15 -60.999c-82 -26 -123 -62 -123 -108c36 -21.333 59 -37.666 69 -48.999
c18 -19.333 27 -44.666 27 -75.999c0 -67.333 -40.667 -101 -122 -101zM565.001 1055c0 -63.333 -40 -95 -120 -95c-28 0 -51.833 11.333 -71.5 34s-29.5 48 -29.5 76c0 58.667 24.5 119.5 73.5 182.5s102.167 97.167 159.5 102.5l18 -61
c-78 -24.667 -121 -59.667 -129 -105l73 -51c17.333 -17.333 26 -45 26 -83z" />
    <glyph glyph-name="quotedblright" unicode="&#x201d;" horiz-adv-x="694" 
d="M486 1356c30.667 0 56.668 -10.166 78.001 -30.499s32 -45.5 32 -75.5c0 -62 -23 -124 -69 -186c-48.667 -64.667 -103 -100.334 -163 -107.001c-8.66699 16 -14 36.333 -16 61c89.333 33.333 131.666 70 126.999 110l-67 49c-19.333 18.667 -29 43.334 -29 74.001
c0 31.333 10 56.666 30 75.999s45.667 29 77 29zM199.001 1356c29.333 0 55.001 -10.668 77.001 -32.001s33 -46.666 33 -75.999c0 -58.667 -24 -119.667 -72 -183c-50.667 -66 -104.334 -102 -161.001 -108c-8.66699 20 -14 39.667 -16 59l1 2
c86 33.333 127.333 70 124 110c-44.667 30 -67.667 45.667 -69 47c-18 17.333 -27 43 -27 77c0 27.333 11.5 51.5 34.5 72.5s48.167 31.5 75.5 31.5z" />
    <glyph glyph-name="quotedblbase" unicode="&#x201e;" horiz-adv-x="694" 
d="M486 231c30.667 0 56.667 -10.166 78 -30.499s32 -45.833 32 -76.5c0 -62.667 -23 -124.667 -69 -186c-48.667 -64.667 -103 -100.334 -163 -107.001c-8.66699 16 -14 36.333 -16 61c88.667 33.333 131 70 127 110l-67 49c-19.333 18.667 -29 43.667 -29 75
c0 28 11 52.5 33 73.5s46.667 31.5 74 31.5zM199 231.001c29.333 0 55.001 -10.833 77.001 -32.5s33 -47.167 33 -76.5c0 -58.667 -24 -119.667 -72 -183c-50.667 -66 -104.334 -102 -161.001 -108c-8.66699 20 -14 39.667 -16 59c0.666992 0.666992 1 1.33398 1 2.00098
c86 33.333 127.333 70 124 110l-69 47c-18 17.333 -27 43 -27 77c0 27.333 11.5 51.666 34.5 72.999s48.167 32 75.5 32z" />
    <glyph glyph-name="dagger" unicode="&#x2020;" horiz-adv-x="687" 
d="M621 1090v-131.999c-19.333 0 -48.333 3 -87 9s-67.667 9 -87 9c-41.333 0 -61.333 -11.667 -60 -35l34 -642c1.33301 -53.333 -5 -130.333 -19 -231c-14 -105.333 -21 -182.666 -21 -231.999h-77c0 49.333 -7 126.666 -21 231.999c-14 100.667 -20.333 177.667 -19 231
l1 30l33 612c1.33301 23.333 -18.667 35 -60 35c-19.333 0 -48.333 -3 -87 -9s-67.667 -9 -87 -9v132c130 -11.333 195.667 -17 197 -17c20.667 0 31 18.667 31 56c0 24.667 -4.5 61.5 -13.5 110.5s-13.5 85.833 -13.5 110.5h155c0 -24.667 -4.5 -61.834 -13.5 -111.501
s-13.5 -87.167 -13.5 -112.5c0 -35.333 10.333 -53 31 -53c1.33301 0 67 5.66699 197 17z" />
    <glyph glyph-name="daggerdbl" unicode="&#x2021;" horiz-adv-x="753" 
d="M661 1058c-19.333 0 -48.333 3 -87 9s-67.667 9 -87 9c-40 0 -60 -10.667 -60 -32c0 -46.667 3.83301 -116.667 11.5 -210s11.5 -163.333 11.5 -210l-22 -494c-1.33301 -23.333 18.667 -35 60 -35c19.333 0 48.333 3 87 9s67.667 9 87 9v-132
c-130 11.333 -195.333 17 -196 17c-20.667 0 -31 -16.667 -31 -50c0 -25.333 4.33301 -63.166 13 -113.499s13 -88.166 13 -113.499h-155c0 25.333 4.5 63.166 13.5 113.499s13.5 88.166 13.5 113.499c0 33.333 -10.667 50 -32 50c-0.666992 0 -66 -5.66699 -196 -17v132
c19.333 0 48.333 -3 87 -9s67.667 -9 87 -9c40 0 60 10.667 60 32c0 55.333 -4 138.333 -12 249s-12 193.667 -12 249c0 46.667 3.83301 116.5 11.5 209.5s11.5 162.833 11.5 209.5c0 21.333 -20 32 -60 32c-19.333 0 -48.333 -3 -87 -9s-67.667 -9 -87 -9v132
c130 -11.333 195.333 -17 196 -17c21.333 0 32 16.667 32 50c0 25.333 -4.5 63.166 -13.5 113.499s-13.5 88.166 -13.5 113.499h155c0 -25.333 -4.33301 -63.166 -13 -113.499s-13 -88.166 -13 -113.499c0 -33.333 10.333 -50 31 -50c0.666992 0 66 5.66699 196 17v-132z
" />
    <glyph glyph-name="bullet" unicode="&#x2022;" horiz-adv-x="573" 
d="M53 656c0 58.667 21.1709 108.334 63.5039 149.001s93.166 61 152.499 61s110.166 -20.333 152.499 -61s63.5 -90.334 63.5 -149.001c0 -58 -21.333 -107 -64 -147s-93.334 -60 -152.001 -60s-109.334 20 -152.001 60s-64 89 -64 147z" />
    <glyph glyph-name="ellipsis" unicode="&#x2026;" horiz-adv-x="1519" 
d="M68 109c0 31.333 10.499 57.668 31.499 79.001s47.167 32 78.5 32c30.667 0 56.834 -10.833 78.501 -32.5s32.5 -47.834 32.5 -78.501c0 -30 -11 -55.667 -33 -77s-48 -32 -78 -32c-30.667 0 -56.667 10.5 -78 31.5s-32 46.833 -32 77.5zM606.999 109.002
c0 31.333 10.5 57.666 31.5 78.999s47.167 32 78.5 32s57.5 -10.667 78.5 -32s31.5 -47.666 31.5 -78.999c0 -30.667 -10.667 -56.5 -32 -77.5s-47.333 -31.5 -78 -31.5s-56.667 10.5 -78 31.5s-32 46.833 -32 77.5zM1145 109.002c0 30.667 10.832 56.832 32.499 78.499
s47.834 32.5 78.501 32.5c31.333 0 57.5 -10.667 78.5 -32s31.5 -47.666 31.5 -78.999c0 -30.667 -10.667 -56.5 -32 -77.5s-47.333 -31.5 -78 -31.5c-30 0 -56 10.667 -78 32s-33 47 -33 77z" />
    <glyph glyph-name="perthousand" unicode="&#x2030;" horiz-adv-x="1923" 
d="M880 1355l-398 -1355h-141l402 1355h137zM906 524c73.333 0 136.167 -25.333 188.5 -76s78.5 -112.667 78.5 -186c0 -74 -26 -136.167 -78 -186.5s-115 -75.5 -189 -75.5s-136.667 25.167 -188 75.5s-77 112.5 -77 186.5s25.667 136.167 77 186.5s114 75.5 188 75.5z
M906.001 391c-36 0 -67 -12.499 -93 -37.499s-39 -55.5 -39 -91.5s13 -66.333 39 -91s57 -37 93 -37s67.333 12.5 94 37.5s40 55.167 40 90.5s-13.5 65.666 -40.5 90.999s-58.167 38 -93.5 38zM315.001 1355c74.667 0 138.167 -24.999 190.5 -74.999s78.5 -112 78.5 -186
s-26.167 -136.167 -78.5 -186.5s-115.833 -75.5 -190.5 -75.5c-74 0 -136.833 25.167 -188.5 75.5s-77.5 112.5 -77.5 186.5c0 73.333 26 135.166 78 185.499s114.667 75.5 188 75.5zM315.001 1222c-38 0 -69.833 -11.833 -95.5 -35.5s-38.5 -54.5 -38.5 -92.5
c0 -37.333 13 -68.333 39 -93s57.667 -37 95 -37s69.5 12.333 96.5 37s40.5 55.667 40.5 93c0 36 -13.667 66.333 -41 91s-59.333 37 -96 37zM1518 517.002c74 0 136.667 -25.335 188 -76.002s77 -113 77 -187c0 -73.333 -25.833 -135.166 -77.5 -185.499
s-114.167 -75.5 -187.5 -75.5c-74.667 0 -137.5 24.833 -188.5 74.5s-76.5 111.834 -76.5 186.501s25.5 137.167 76.5 187.5s113.833 75.5 188.5 75.5zM1518 384c-36 0 -67.333 -12.667 -94 -38s-40 -56 -40 -92c0 -36.667 13.167 -67.167 39.5 -91.5
s57.833 -36.5 94.5 -36.5c36 0 67.333 12.5 94 37.5s40 55.167 40 90.5s-13.5 65.833 -40.5 91.5s-58.167 38.5 -93.5 38.5z" />
    <glyph glyph-name="guilsinglleft" unicode="&#x2039;" horiz-adv-x="529" 
d="M445 779l-210 -283l210 -276v-178l-438 459l438 456v-178z" />
    <glyph glyph-name="guilsinglright" unicode="&#x203a;" horiz-adv-x="545" 
d="M72 957l436 -456l-436 -459v178l208 276l-208 283v178z" />
    <glyph glyph-name="fraction" unicode="&#x2044;" horiz-adv-x="895" 
d="M14 0l670 1355h146l-667 -1355h-149z" />
    <glyph glyph-name="uni20AC" unicode="&#x20ac;" horiz-adv-x="1024" 
d="M877 1041c-62.667 144.667 -166.666 217.002 -311.999 217.002c-84 0 -158 -32.667 -222 -98c-60 -61.333 -96 -135 -108 -221h210v-132h-214v-230h214v-132h-213c7.33301 -89.333 41.333 -168 102 -236c65.333 -72.667 141.666 -109 228.999 -109
c65.333 0 128 21.333 188 64s102 95 126 157h125c-25.333 -96.667 -80 -179.334 -164 -248.001s-175.333 -103 -274 -103c-83.333 0 -165 28.5 -245 85.5s-135 124.833 -165 203.5c-27.333 72 -43.333 134 -48 186h-184v132h182v230h-182v132h186
c16 119.333 65.667 222.666 149 309.999c88 92.667 190.333 139 307 139c94.667 0 186.5 -34.833 275.5 -104.5s143.5 -150.5 163.5 -242.5h-126z" />
    <glyph glyph-name="trademark" unicode="&#x2122;" horiz-adv-x="1208" 
d="M57 1355h436v-133h-148v-341h-132v341h-156v133zM938 881v159l-54 -159h-145l-51 159v-159h-134v474h160l97 -312l99 312h159v-474h-131z" />
    <glyph glyph-name="periodcentered" unicode="&#x2219;" horiz-adv-x="328" 
d="M52 549c0 31.333 10.5 57.666 31.5 78.999s47.167 32 78.5 32s57.333 -10.667 78 -32s31 -47.666 31 -78.999c0 -30.667 -10.5 -56.5 -31.5 -77.5s-46.833 -31.5 -77.5 -31.5s-56.667 10.5 -78 31.5s-32 46.833 -32 77.5z" />
    <glyph glyph-name="fi" unicode="&#xf001;" horiz-adv-x="850" 
d="M487 1222c-52.667 0 -96.667 -14.333 -132 -43c-37.333 -30.667 -56 -72 -56 -124v-98h188v-130h-188v-827h-132v827h-78v130h78v98c0 90 31.333 163 94 219c60 54 135.333 81 226 81v-133zM604 1281c0 20.667 8 38.5 24 53.5s34.333 22.5 55 22.5
c21.333 0 39.666 -7.33301 54.999 -22s23 -32.667 23 -54s-7.66699 -39.333 -23 -54s-33.666 -22 -54.999 -22c-20.667 0 -39 7.5 -55 22.5s-24 32.833 -24 53.5zM490 957h257v-957h-130v827h-127v130z" />
    <glyph glyph-name="fl" unicode="&#xf002;" horiz-adv-x="720" 
d="M475 1222c-52.667 0 -96.667 -14.333 -132 -43c-37.333 -30.667 -56 -72 -56 -124v-98h188v-130h-188v-827h-132v827h-78v130h78v98c0 90 31.333 163 94 219c60 54 135.333 81 226 81v-133zM479 1355h132v-1355h-132v1355z" />
    <glyph glyph-name=".null" horiz-adv-x="0" 
 />
    <glyph glyph-name="nonmarkingreturn" horiz-adv-x="724" 
 />
    <glyph glyph-name="glyph231" horiz-adv-x="724" 
 />
    <glyph glyph-name="glyph232" horiz-adv-x="724" 
 />
    <glyph glyph-name="glyph218" horiz-adv-x="945" 
d="M627 633h-320v-632h-130v632h-175v130h940v-130h-185v-632h-130v632z" />
    <glyph glyph-name="glyph219" horiz-adv-x="1086" 
 />
    <glyph glyph-name="glyph236" 
 />
    <glyph glyph-name="glyph237" 
 />
    <glyph glyph-name="glyph238" 
 />
    <glyph glyph-name="glyph239" 
 />
    <glyph glyph-name="uni00DF" horiz-adv-x="1158" 
d="M512 765c246.667 0 370.001 69.668 370.001 209.001c0 72.667 -33.333 133.667 -100 183c-60.667 44.667 -128.667 67 -204 67c-103.333 0 -170.333 -4.66699 -201 -14c-69.333 -22 -104 -72.667 -104 -152l-2 -928h1v-130c-0.666992 0 -1 -0.333008 -1 -1l-239 1v130
h111v928c0 83.333 29 153.5 87 210.5s128.667 85.5 212 85.5h129c115.333 0 216.666 -33.667 303.999 -101c94 -73.333 141 -166.333 141 -279c0 -94.667 -54.333 -179 -163 -253c149.333 -71.333 224 -190 224 -356c0 -244 -148.333 -366 -445 -366h-205v130h205
c86.667 0 159.667 21 219 63c66.667 47.333 100 112.666 100 195.999c0 162 -146.333 243 -439 243v134z" />
    <glyph glyph-name="glyph241" 
 />
    <glyph glyph-name="glyph242" 
 />
    <glyph glyph-name="glyph245" 
 />
    <glyph glyph-name="glyph247" 
 />
    <glyph glyph-name="glyph250" 
 />
    <glyph glyph-name="glyph253" 
 />
    <glyph glyph-name="glyph255" 
 />
    <glyph glyph-name="glyph256" 
 />
    <glyph glyph-name="glyph257" horiz-adv-x="724" 
 />
    <glyph glyph-name="glyph258" 
 />
    <glyph glyph-name="glyph259" 
 />
    <glyph glyph-name="glyph261" 
 />
    <glyph glyph-name="glyph262" 
 />
    <glyph glyph-name="glyph224" horiz-adv-x="1024" 
d="M556 314c-97.333 0 -178.5 33.499 -243.5 100.499s-97.5 149.5 -97.5 247.5s32.5 180.667 97.5 248s146.167 101 243.5 101s179.833 -33.833 247.5 -101.5s101.5 -150.167 101.5 -247.5s-33.833 -179.666 -101.5 -246.999s-150.167 -101 -247.5 -101z" />
    <glyph glyph-name="glyph226" horiz-adv-x="0" 
 />
    <glyph glyph-name="ch262" horiz-adv-x="714" 
d="M97 1216h523v-130h-523v130z" />
    <glyph glyph-name="ch263" horiz-adv-x="390" 
d="M85 550c0 31.333 10.5 57.666 31.5 78.999s47.167 32 78.5 32s57.333 -10.667 78 -32s31 -47.666 31 -78.999c0 -30.667 -10.5 -56.5 -31.5 -77.5s-46.833 -31.5 -77.5 -31.5s-56.667 10.5 -78 31.5s-32 46.833 -32 77.5z" />
    </font>
</defs>
</svg>
